<?xml version="1.0" encoding="UTF-8"?>
<svg version="1.1" xmlns="http://www.w3.org/2000/svg" width="512" height="512">
<path d="M0 0 C1.06077255 -0.00671722 2.1215451 -0.01343445 3.21446228 -0.02035522 C6.72008961 -0.03934785 10.2255256 -0.04326016 13.73120117 -0.04541016 C16.17111795 -0.05183742 18.61103395 -0.05856573 21.0509491 -0.06558228 C26.1661457 -0.07755838 31.28127474 -0.08126277 36.39648438 -0.08007812 C42.94350949 -0.07987497 49.49010035 -0.10717221 56.03702259 -0.14162254 C61.07714315 -0.16388623 66.11715914 -0.16791581 71.15732384 -0.16685867 C73.5705992 -0.16921561 75.9838774 -0.17804428 78.39710426 -0.19352341 C81.77676205 -0.21317076 85.1554826 -0.2073493 88.53515625 -0.1953125 C89.52712006 -0.20655151 90.51908386 -0.21779053 91.54110718 -0.22937012 C98.82624198 -0.16360776 104.17378339 1.40933061 109.70385742 6.25537109 C110.24268555 6.90634766 110.78151367 7.55732422 111.33666992 8.22802734 C111.8909668 8.87642578 112.44526367 9.52482422 113.01635742 10.19287109 C116.64163923 15.45442874 116.75880352 20.17621118 116.75219727 26.36010742 C116.75891449 27.26482285 116.76563171 28.16953827 116.77255249 29.10166931 C116.79152545 32.0878552 116.79545645 35.07381621 116.79760742 38.06005859 C116.80403619 40.14125154 116.81076461 42.22244359 116.81777954 44.30363464 C116.82975081 48.66557917 116.83346055 53.02744451 116.83227539 57.3894043 C116.8320723 62.96791407 116.85936564 68.54591387 116.89381981 74.12430286 C116.91610171 78.42325657 116.92011252 82.72208784 116.91905594 87.02109337 C116.92141028 89.07711226 116.93022438 91.13313461 116.94572067 93.18909645 C116.96540499 96.07067775 116.95953271 98.9511632 116.94750977 101.83276367 C116.95874878 102.67511566 116.96998779 103.51746765 116.98156738 104.38534546 C116.90977548 111.18631439 115.00264808 116.39088229 110.49682617 121.53271484 C109.84584961 122.07154297 109.19487305 122.61037109 108.52416992 123.16552734 C107.87577148 123.71982422 107.22737305 124.27412109 106.55932617 124.84521484 C102.11641046 127.90644169 98.50380943 128.53321173 93.14916992 128.41552734 C92.08053711 128.39748047 91.0119043 128.37943359 89.91088867 128.36083984 C89.10264648 128.33763672 88.2944043 128.31443359 87.46166992 128.29052734 C87.67823242 128.96857422 87.89479492 129.64662109 88.11791992 130.34521484 C90.3696528 137.87184047 92.59202083 145.78052765 88.83666992 153.16552734 C86.46166992 156.29052734 86.46166992 156.29052734 80.46166992 160.29052734 C71.22166992 160.29052734 61.98166992 160.29052734 52.46166992 160.29052734 C52.46166992 181.41052734 52.46166992 202.53052734 52.46166992 224.29052734 C58.40166992 224.29052734 64.34166992 224.29052734 70.46166992 224.29052734 C70.62989258 222.10943359 70.62989258 222.10943359 70.80151367 219.88427734 C71.33157403 214.64082813 72.47158408 209.81669507 74.02416992 204.79052734 C74.28810547 203.93104492 74.55204102 203.0715625 74.82397461 202.18603516 C86.56209299 165.20756975 112.17919239 132.85804165 146.46166992 114.29052734 C147.12166992 114.29052734 147.78166992 114.29052734 148.46166992 114.29052734 C148.46166992 102.74052734 148.46166992 91.19052734 148.46166992 79.29052734 C146.81166992 78.63052734 145.16166992 77.97052734 143.46166992 77.29052734 C138.34028185 73.73557116 133.61978688 69.65454866 132.46166992 63.29052734 C131.71750128 55.39668782 131.29049686 47.729286 136.46166992 41.29052734 C141.26615631 36.24531512 145.62344047 32.68489739 152.73120117 31.95458984 C161.24743565 31.86069531 167.13762486 32.17279855 173.42651367 38.16162109 C179.80833672 45.06547466 180.94209244 50.49220664 180.76635742 59.84521484 C180.06617819 67.76262617 176.34747592 71.89625228 170.46166992 76.94287109 C168.46166992 78.29052734 168.46166992 78.29052734 164.46166992 79.29052734 C164.46166992 88.20052734 164.46166992 97.11052734 164.46166992 106.29052734 C167.76166992 104.97052734 171.06166992 103.65052734 174.46166992 102.29052734 C177.96517665 101.20692296 181.50912916 100.40578 185.08666992 99.60302734 C186.3918457 99.28495117 186.3918457 99.28495117 187.72338867 98.96044922 C196.15551814 97.0374384 203.51127141 96.84992725 212.46166992 96.29052734 C212.46166992 80.12052734 212.46166992 63.95052734 212.46166992 47.29052734 C210.81166992 46.63052734 209.16166992 45.97052734 207.46166992 45.29052734 C202.34028185 41.73557116 197.61978688 37.65454866 196.46166992 31.29052734 C195.71750128 23.39668782 195.29049686 15.729286 200.46166992 9.29052734 C205.26615631 4.24531512 209.62344047 0.68489739 216.73120117 -0.04541016 C225.24743565 -0.13930469 231.13762486 0.17279855 237.42651367 6.16162109 C243.80833672 13.06547466 244.94209244 18.49220664 244.76635742 27.84521484 C244.06617819 35.76262617 240.34747592 39.89625228 234.46166992 44.94287109 C232.46166992 46.29052734 232.46166992 46.29052734 228.46166992 47.29052734 C228.46166992 63.46052734 228.46166992 79.63052734 228.46166992 96.29052734 C233.74166992 96.62052734 239.02166992 96.95052734 244.46166992 97.29052734 C247.58279601 97.89018814 250.4455528 98.47847699 253.46166992 99.35302734 C254.15260742 99.53929688 254.84354492 99.72556641 255.55541992 99.91748047 C257.19461779 100.36142989 258.82884166 100.8236948 260.46166992 101.29052734 C260.46166992 99.31052734 260.46166992 97.33052734 260.46166992 95.29052734 C259.80166992 95.10490234 259.14166992 94.91927734 258.46166992 94.72802734 C252.98058376 92.10167356 248.78007389 88.30933341 245.46166992 83.22802734 C243.12848431 76.48771336 243.0841021 67.40109278 245.96166992 60.85302734 C249.48163774 55.02816956 254.95129926 50.30836152 261.46166992 48.29052734 C269.297752 47.48538629 277.08089569 47.16592343 283.46166992 52.29052734 C288.50688214 57.09501373 292.06729987 61.45229789 292.79760742 68.56005859 C292.8918668 77.10938462 292.56668547 82.98362579 286.55541992 89.29052734 C283.32900624 92.27616389 280.87631398 94.51205216 276.46166992 95.29052734 C275.72990705 99.3944346 275.76792865 102.44389807 277.46166992 106.29052734 C281.09306191 109.11996711 285.55052908 110.58773352 289.78198242 112.29833984 C294.37605753 114.15987957 298.40941468 116.54447985 302.52416992 119.29052734 C303.42558716 119.88824951 303.42558716 119.88824951 304.34521484 120.49804688 C305.72331702 121.42004103 307.09350805 122.353846 308.46166992 123.29052734 C309.00456161 122.59041534 309.54745331 121.89030334 310.10679626 121.16897583 C312.46166992 118.29052734 312.46166992 118.29052734 315.21803284 115.44699097 C324.43454346 105.60138307 324.96147349 97.24380262 324.61401367 84.17333984 C324.60575664 82.26196838 324.60297535 80.35056628 324.60536194 78.43917847 C324.5997393 73.44675001 324.53223481 68.45727548 324.4473877 63.46563721 C324.32081482 55.45902154 324.28512112 47.45170703 324.25830269 39.44424057 C324.23936791 36.6628748 324.19096254 33.88322897 324.13816833 31.10232544 C324.12149698 29.38918741 324.10551509 27.67604249 324.09033203 25.96289062 C324.06802017 25.20013321 324.04570831 24.43737579 324.02272034 23.65150452 C324.0047199 17.09354169 326.09962129 11.98598642 330.42651367 7.04833984 C331.07749023 6.50951172 331.7284668 5.97068359 332.39916992 5.41552734 C333.04756836 4.86123047 333.6959668 4.30693359 334.36401367 3.73583984 C339.62557132 0.11055804 344.34735375 -0.00660626 350.53125 0 C351.88832314 -0.01007584 351.88832314 -0.01007584 353.27281189 -0.02035522 C356.25899778 -0.03932819 359.24495879 -0.04325918 362.23120117 -0.04541016 C364.31239412 -0.05183893 366.39358617 -0.05856735 368.47477722 -0.06558228 C372.83672175 -0.07755354 377.19858708 -0.08126328 381.56054688 -0.08007812 C387.13905665 -0.07987503 392.71705645 -0.10716837 398.29544544 -0.14162254 C402.59439915 -0.16390444 406.89323042 -0.16791525 411.19223595 -0.16685867 C413.24825484 -0.16921302 415.30427719 -0.17802712 417.36023903 -0.19352341 C420.24182033 -0.21320773 423.12230578 -0.20733545 426.00390625 -0.1953125 C427.26743423 -0.21217102 427.26743423 -0.21217102 428.55648804 -0.22937012 C435.35745696 -0.15757821 440.56202487 1.74954919 445.70385742 6.25537109 C446.24268555 6.90634766 446.78151367 7.55732422 447.33666992 8.22802734 C447.8909668 8.87642578 448.44526367 9.52482422 449.01635742 10.19287109 C452.4477781 15.17306813 452.71460241 19.6650078 452.57421875 25.57470703 C452.55176037 27.27829806 452.52945408 28.9818911 452.50727844 30.68548584 C452.49199915 31.58510796 452.47671986 32.48473007 452.46097755 33.41161346 C452.38845727 38.21604561 452.37875623 43.02079873 452.3581543 47.82568359 C452.32867125 53.92219791 452.281299 60.01679099 452.16357422 66.11230469 C452.06980869 71.05314031 452.04134228 75.99080941 452.0539608 80.93247223 C452.04722059 82.79984734 452.01763498 84.66730621 451.96311378 86.5338974 C451.55858218 100.97695898 455.17072182 109.03861842 465.06376171 119.60144424 C469.16105915 124.55218121 469.00032681 129.50140968 468.90307617 135.73193359 C468.24973107 140.99916712 466.33021754 144.67180766 462.46166992 148.29052734 C456.25645942 152.79109048 451.14454609 152.82565046 443.62182617 152.68115234 C442.12854797 152.67510986 442.12854797 152.67510986 440.60510254 152.66894531 C436.91126896 152.64812785 433.21769957 152.59228279 429.52416992 152.54052734 C421.25354492 152.45802734 412.98291992 152.37552734 404.46166992 152.29052734 C404.46166992 181.33052734 404.46166992 210.37052734 404.46166992 240.29052734 C393.90166992 240.29052734 383.34166992 240.29052734 372.46166992 240.29052734 C372.46166992 245.57052734 372.46166992 250.85052734 372.46166992 256.29052734 C383.02166992 256.29052734 393.58166992 256.29052734 404.46166992 256.29052734 C404.46166992 277.41052734 404.46166992 298.53052734 404.46166992 320.29052734 C419.56938329 320.13263338 419.56938329 320.13263338 434.67651367 319.93017578 C436.58405661 319.91848276 438.4916096 319.90829239 440.39916992 319.89990234 C441.37305664 319.87943848 442.34694336 319.85897461 443.3503418 319.83789062 C450.74364404 319.83414149 456.09087671 321.33667894 461.70385742 326.25537109 C462.24268555 326.90634766 462.78151367 327.55732422 463.33666992 328.22802734 C463.8909668 328.87642578 464.44526367 329.52482422 465.01635742 330.19287109 C467.93811173 334.43336315 468.71251415 338.12259722 468.72909546 343.22883606 C468.74189041 345.01401894 468.74189041 345.01401894 468.75494385 346.83526611 C468.75403748 348.13252625 468.7531311 349.42978638 468.75219727 350.76635742 C468.7581849 352.15311545 468.76499099 353.53987015 468.77255249 354.92662048 C468.79019704 358.68709009 468.79490724 362.44746863 468.79618406 366.20797563 C468.79760723 368.55974346 468.80187999 370.91148825 468.8071785 373.26325035 C468.82567448 381.47458741 468.83384975 389.6858596 468.83227539 397.8972168 C468.83107448 405.54022094 468.85216787 413.18294246 468.88376272 420.8258751 C468.90995369 427.39676067 468.92064149 433.96755409 468.91936457 440.53849143 C468.91885571 444.45899279 468.92449626 448.37924298 468.94572067 452.29969215 C468.96515059 455.98932797 468.96519559 459.67847427 468.95068741 463.36812782 C468.94761475 465.35851042 468.96424293 467.34889331 468.98156738 469.33920288 C468.92400209 477.56388708 468.07049527 483.17230518 462.49682617 489.53271484 C461.84584961 490.07154297 461.19487305 490.61037109 460.52416992 491.16552734 C459.87577148 491.71982422 459.22737305 492.27412109 458.55932617 492.84521484 C453.29776853 496.47049665 448.57598609 496.58766094 442.39208984 496.58105469 C441.48737442 496.58777191 440.582659 496.59448914 439.65052795 496.60140991 C436.66434207 496.62038287 433.67838106 496.62431387 430.69213867 496.62646484 C428.61094572 496.63289361 426.52975368 496.63962203 424.44856262 496.64663696 C420.0866181 496.65860823 415.72475276 496.66231797 411.36279297 496.66113281 C405.7842832 496.66092972 400.2062834 496.68822306 394.6278944 496.72267723 C390.3289407 496.74495913 386.03010943 496.74896994 381.7311039 496.74791336 C379.67508501 496.7502677 377.61906266 496.7590818 375.56310081 496.77457809 C372.68151951 496.79426241 369.80103406 496.78839013 366.91943359 496.77636719 C366.0770816 496.7876062 365.23472961 496.79884521 364.36685181 496.8104248 C357.56588288 496.7386329 352.36131497 494.8315055 347.21948242 490.32568359 C346.6806543 489.67470703 346.14182617 489.02373047 345.58666992 488.35302734 C345.03237305 487.70462891 344.47807617 487.05623047 343.90698242 486.38818359 C341.04024333 482.22753794 340.21117058 478.57606261 340.18319702 473.56413269 C340.1664518 471.84995651 340.1664518 471.84995651 340.14936829 470.10115051 C340.1472081 468.85677719 340.14504791 467.61240387 340.14282227 466.33032227 C340.13277664 465.01286011 340.12273102 463.69539795 340.11238098 462.3380127 C340.08511518 458.73306416 340.06994178 455.12815463 340.05695295 451.52313018 C340.04130741 447.75278619 340.01452173 443.98252167 339.98892212 440.2122345 C339.94215952 433.07611353 339.90540324 425.93997756 339.87224925 418.80378181 C339.83401005 410.67801559 339.7846046 402.55232924 339.73426509 394.42663038 C339.6309827 377.71465342 339.54171032 361.00263212 339.46166992 344.29052734 C338.6643042 345.16225586 337.86693848 346.03398437 337.04541016 346.93212891 C335.97462112 348.09855554 334.90373368 349.26489186 333.83276367 350.43115234 C333.31016968 351.0030127 332.78757568 351.57487305 332.24914551 352.1640625 C316.94480972 368.80819167 298.39736862 381.69193681 277.46166992 390.29052734 C277.13166992 393.92052734 276.80166992 397.55052734 276.46166992 401.29052734 C278.11166992 401.95052734 279.76166992 402.61052734 281.46166992 403.29052734 C286.58305799 406.84548353 291.30355297 410.92650603 292.46166992 417.29052734 C293.20583856 425.18436687 293.63284298 432.85176868 288.46166992 439.29052734 C283.65718353 444.33573956 279.29989937 447.89615729 272.19213867 448.62646484 C263.6759042 448.72035938 257.78571498 448.40825614 251.49682617 442.41943359 C245.11500312 435.51558003 243.9812474 430.08884805 244.15698242 420.73583984 C244.85716165 412.81842852 248.57586392 408.68480241 254.46166992 403.63818359 C256.49594716 402.26743038 258.06319104 401.7134734 260.46166992 401.29052734 C260.46166992 399.31052734 260.46166992 397.33052734 260.46166992 395.29052734 C259.00760742 395.70625 259.00760742 395.70625 257.52416992 396.13037109 C256.17022205 396.49706531 254.81604194 396.8629028 253.46166992 397.22802734 C252.83260742 397.41042969 252.20354492 397.59283203 251.55541992 397.78076172 C243.70028399 399.85784093 237.01628719 399.75586376 228.46166992 400.29052734 C228.46166992 416.46052734 228.46166992 432.63052734 228.46166992 449.29052734 C230.11166992 449.95052734 231.76166992 450.61052734 233.46166992 451.29052734 C238.58305799 454.84548353 243.30355297 458.92650603 244.46166992 465.29052734 C245.20583856 473.18436687 245.63284298 480.85176868 240.46166992 487.29052734 C235.65718353 492.33573956 231.29989937 495.89615729 224.19213867 496.62646484 C215.6759042 496.72035938 209.78571498 496.40825614 203.49682617 490.41943359 C197.11500312 483.51558003 195.9812474 478.08884805 196.15698242 468.73583984 C196.85716165 460.81842852 200.57586392 456.68480241 206.46166992 451.63818359 C208.46166992 450.29052734 208.46166992 450.29052734 212.46166992 449.29052734 C212.46166992 433.12052734 212.46166992 416.95052734 212.46166992 400.29052734 C207.18166992 399.96052734 201.90166992 399.63052734 196.46166992 399.29052734 C192.59078261 398.61525582 188.88546024 397.90380661 185.08666992 396.97802734 C183.74668945 396.67735352 183.74668945 396.67735352 182.37963867 396.37060547 C175.98192634 394.87099655 170.76111545 392.81030556 164.46166992 390.29052734 C164.46166992 399.20052734 164.46166992 408.11052734 164.46166992 417.29052734 C166.11166992 417.95052734 167.76166992 418.61052734 169.46166992 419.29052734 C174.58305799 422.84548353 179.30355297 426.92650603 180.46166992 433.29052734 C181.20583856 441.18436687 181.63284298 448.85176868 176.46166992 455.29052734 C171.65718353 460.33573956 167.29989937 463.89615729 160.19213867 464.62646484 C151.6759042 464.72035938 145.78571498 464.40825614 139.49682617 458.41943359 C133.11500312 451.51558003 131.9812474 446.08884805 132.15698242 436.73583984 C132.85716165 428.81842852 136.57586392 424.68480241 142.46166992 419.63818359 C144.46166992 418.29052734 144.46166992 418.29052734 148.46166992 417.29052734 C148.46166992 405.74052734 148.46166992 394.19052734 148.46166992 382.29052734 C146.81166992 381.63052734 145.16166992 380.97052734 143.46166992 380.29052734 C127.36571644 371.31343459 112.91447663 358.67965101 101.46166992 344.29052734 C101.46020336 344.97890686 101.4587368 345.66728638 101.4572258 346.37652588 C101.42013523 363.14497595 101.36109085 379.91319148 101.27776718 396.68147278 C101.23799856 404.79058148 101.20559506 412.89959343 101.19067383 421.00878906 C101.17764597 428.07876054 101.15065254 435.14851896 101.10705686 442.21837044 C101.0844673 445.96005549 101.06875772 449.70147802 101.06978607 453.4432373 C101.0706734 457.62570711 101.04037486 461.80740477 101.00756836 465.98974609 C101.01511391 467.84012733 101.01511391 467.84012733 101.02281189 469.72789001 C100.92524989 477.77045182 99.94700663 483.31322462 94.49682617 489.53271484 C93.52036133 490.34095703 93.52036133 490.34095703 92.52416992 491.16552734 C91.87577148 491.71982422 91.22737305 492.27412109 90.55932617 492.84521484 C85.29776853 496.47049665 80.57598609 496.58766094 74.39208984 496.58105469 C73.48737442 496.58777191 72.582659 496.59448914 71.65052795 496.60140991 C68.66434207 496.62038287 65.67838106 496.62431387 62.69213867 496.62646484 C60.61094572 496.63289361 58.52975368 496.63962203 56.44856262 496.64663696 C52.0866181 496.65860823 47.72475276 496.66231797 43.36279297 496.66113281 C37.7842832 496.66092972 32.2062834 496.68822306 26.6278944 496.72267723 C22.3289407 496.74495913 18.03010943 496.74896994 13.7311039 496.74791336 C11.67508501 496.7502677 9.61906266 496.7590818 7.56310081 496.77457809 C4.68151951 496.79426241 1.80103406 496.78839013 -1.08056641 496.77636719 C-1.9229184 496.7876062 -2.76527039 496.79884521 -3.63314819 496.8104248 C-10.43411712 496.7386329 -15.63868503 494.8315055 -20.78051758 490.32568359 C-21.3193457 489.67470703 -21.85817383 489.02373047 -22.41333008 488.35302734 C-22.96762695 487.70462891 -23.52192383 487.05623047 -24.09301758 486.38818359 C-27.01477188 482.14769154 -27.7891743 478.45845747 -27.80575562 473.35221863 C-27.81428558 472.16209671 -27.82281555 470.97197479 -27.831604 469.74578857 C-27.83069763 468.44852844 -27.82979126 467.15126831 -27.82885742 465.81469727 C-27.83484505 464.42793924 -27.84165114 463.04118454 -27.84921265 461.6544342 C-27.86685719 457.8939646 -27.8715674 454.13358606 -27.87284422 450.37307906 C-27.87426739 448.02131123 -27.87854015 445.66956644 -27.88383865 443.31780434 C-27.90233464 435.10646728 -27.91050991 426.89519509 -27.90893555 418.68383789 C-27.90773464 411.04083375 -27.92882802 403.39811223 -27.96042287 395.75517958 C-27.98661385 389.18429402 -27.99730165 382.61350059 -27.99602473 376.04256326 C-27.99551587 372.12206189 -28.00115641 368.20181171 -28.02238083 364.28136253 C-28.04181075 360.59172671 -28.04185574 356.90258042 -28.02734756 353.21292686 C-28.0242749 351.22254427 -28.04090309 349.23216138 -28.05822754 347.24185181 C-28.00066225 339.01716761 -27.14715542 333.40874951 -21.57348633 327.04833984 C-20.59702148 326.24009766 -20.59702148 326.24009766 -19.60083008 325.41552734 C-18.95243164 324.86123047 -18.3040332 324.30693359 -17.63598633 323.73583984 C-13.78412058 321.08185413 -10.31298225 320.03837288 -5.65625 320.06347656 C-4.2258136 320.06383911 -4.2258136 320.06383911 -2.76647949 320.06420898 C-1.77724487 320.07444092 -0.78801025 320.08467285 0.23120117 320.09521484 C1.15010132 320.097229 2.06900146 320.09924316 3.01574707 320.10131836 C6.43527242 320.11175105 9.85472639 320.1396736 13.27416992 320.16552734 C20.92604492 320.20677734 28.57791992 320.24802734 36.46166992 320.29052734 C36.46166992 299.17052734 36.46166992 278.05052734 36.46166992 256.29052734 C47.02166992 256.29052734 57.58166992 256.29052734 68.46166992 256.29052734 C68.46166992 251.01052734 68.46166992 245.73052734 68.46166992 240.29052734 C57.90166992 240.29052734 47.34166992 240.29052734 36.46166992 240.29052734 C36.46166992 213.89052734 36.46166992 187.49052734 36.46166992 160.29052734 C27.22166992 160.29052734 17.98166992 160.29052734 8.46166992 160.29052734 C0.06656503 154.29402385 0.06656503 154.29402385 -1.53833008 149.29052734 C-2.46342509 141.88976728 -0.78066919 135.31118431 1.46166992 128.29052734 C0.68823242 128.33693359 -0.08520508 128.38333984 -0.88208008 128.43115234 C-7.7030159 128.66752141 -13.00992456 128.55869418 -18.53833008 124.29052734 C-23.80758442 119.29256134 -27.54169376 114.64843738 -27.80575562 107.17448425 C-27.82366845 105.52338447 -27.83062139 103.87214328 -27.82885742 102.22094727 C-27.83557465 101.31623184 -27.84229187 100.41151642 -27.84921265 99.47938538 C-27.86818561 96.49319949 -27.8721166 93.50723848 -27.87426758 90.52099609 C-27.88069635 88.43980314 -27.88742477 86.3586111 -27.8944397 84.27742004 C-27.90641097 79.91547552 -27.91012071 75.55361018 -27.90893555 71.19165039 C-27.90873245 65.61314062 -27.93602579 60.03514082 -27.97047997 54.45675182 C-27.99276186 50.15779812 -27.99677267 45.85896685 -27.99571609 41.55996132 C-27.99807044 39.50394243 -28.00688454 37.44792008 -28.02238083 35.39195824 C-28.04206515 32.51037693 -28.03619287 29.62989148 -28.02416992 26.74829102 C-28.03540894 25.90593903 -28.04664795 25.06358704 -28.05822754 24.19570923 C-27.98643563 17.3947403 -26.07930823 12.19017239 -21.57348633 7.04833984 C-20.92250977 6.50951172 -20.2715332 5.97068359 -19.60083008 5.41552734 C-18.95243164 4.86123047 -18.3040332 4.30693359 -17.63598633 3.73583984 C-11.96442103 -0.17194258 -6.66978817 -0.0060572 0 0 Z M339.46166992 152.29052734 C344.0404768 159.49541471 344.0404768 159.49541471 348.64916992 166.68115234 C360.06603829 184.69224641 366.11500011 203.52310491 370.46166992 224.29052734 C376.40166992 224.29052734 382.34166992 224.29052734 388.46166992 224.29052734 C388.46166992 200.53052734 388.46166992 176.77052734 388.46166992 152.29052734 C372.29166992 152.29052734 356.12166992 152.29052734 339.46166992 152.29052734 Z M52.46166992 272.29052734 C52.46166992 288.13052734 52.46166992 303.97052734 52.46166992 320.29052734 C63.68166992 320.62052734 74.90166992 320.95052734 86.46166992 321.29052734 C85.26541992 318.56802734 84.06916992 315.84552734 82.83666992 313.04052734 C79.84384942 306.04808779 77.26113359 299.0169963 75.08666992 291.72802734 C74.84867676 290.93299805 74.61068359 290.13796875 74.36547852 289.31884766 C72.7408406 283.69410991 71.55188714 278.04218733 70.46166992 272.29052734 C64.52166992 272.29052734 58.58166992 272.29052734 52.46166992 272.29052734 Z M370.46166992 272.29052734 C370.04208008 274.23378906 370.04208008 274.23378906 369.61401367 276.21630859 C366.08933854 292.02866331 361.04605237 306.47566684 354.46166992 321.29052734 C365.68166992 320.96052734 376.90166992 320.63052734 388.46166992 320.29052734 C388.46166992 304.45052734 388.46166992 288.61052734 388.46166992 272.29052734 C382.52166992 272.29052734 376.58166992 272.29052734 370.46166992 272.29052734 Z " fill="#000000" transform="translate(35.538330078125,7.70947265625)"/>
<path d="M0 0 C0.90621094 0.721875 1.81242188 1.44375 2.74609375 2.1875 C3.52315674 2.80431641 3.52315674 2.80431641 4.31591797 3.43359375 C27.49483473 21.98223121 43.99886873 46.45412113 51.74609375 75.1875 C51.95492188 75.94546875 52.16375 76.7034375 52.37890625 77.484375 C61.51310543 111.93996177 54.68347488 148.61729378 37.46484375 179.35546875 C20.60423008 208.12952837 -6.16014998 229.02642305 -37.56640625 239.625 C-38.54399902 239.95516113 -39.5215918 240.28532227 -40.52880859 240.62548828 C-64.32614314 248.28021077 -91.1877135 248.63700079 -115.25390625 242.1875 C-116.01509766 241.98382813 -116.77628906 241.78015625 -117.56054688 241.5703125 C-134.14880648 236.94899168 -149.87524875 229.05891284 -163.25390625 218.1875 C-163.76614746 217.77918945 -164.27838867 217.37087891 -164.80615234 216.95019531 C-192.46030028 194.83015643 -211.70709861 162.83165713 -215.8515625 127.2890625 C-217.44447217 109.61450579 -216.97772304 92.33320538 -212.25390625 75.1875 C-212.05023438 74.43210937 -211.8465625 73.67671875 -211.63671875 72.8984375 C-207.01695343 56.30150282 -199.13089326 40.57301723 -188.25390625 27.1875 C-187.8455957 26.67525879 -187.43728516 26.16301758 -187.01660156 25.63525391 C-168.49335613 2.47776434 -143.9875597 -14.12424048 -115.25390625 -21.8125 C-114.08504883 -22.12574219 -114.08504883 -22.12574219 -112.89257812 -22.4453125 C-75.02746662 -32.16535737 -31.20546926 -23.74026785 0 0 Z " fill="#FDE8A6" transform="translate(336.25390625,145.8125)"/>
<path d="M0 0 C0.90621094 0.721875 1.81242188 1.44375 2.74609375 2.1875 C3.52315674 2.80431641 3.52315674 2.80431641 4.31591797 3.43359375 C27.49483473 21.98223121 43.99886873 46.45412113 51.74609375 75.1875 C51.95492188 75.94546875 52.16375 76.7034375 52.37890625 77.484375 C61.51310543 111.93996177 54.68347488 148.61729378 37.46484375 179.35546875 C20.60423008 208.12952837 -6.16014998 229.02642305 -37.56640625 239.625 C-38.54399902 239.95516113 -39.5215918 240.28532227 -40.52880859 240.62548828 C-64.32614314 248.28021077 -91.1877135 248.63700079 -115.25390625 242.1875 C-116.01509766 241.98382813 -116.77628906 241.78015625 -117.56054688 241.5703125 C-134.14880648 236.94899168 -149.87524875 229.05891284 -163.25390625 218.1875 C-163.76614746 217.77918945 -164.27838867 217.37087891 -164.80615234 216.95019531 C-192.46030028 194.83015643 -211.70709861 162.83165713 -215.8515625 127.2890625 C-217.44447217 109.61450579 -216.97772304 92.33320538 -212.25390625 75.1875 C-212.05023438 74.43210937 -211.8465625 73.67671875 -211.63671875 72.8984375 C-207.01695343 56.30150282 -199.13089326 40.57301723 -188.25390625 27.1875 C-187.8455957 26.67525879 -187.43728516 26.16301758 -187.01660156 25.63525391 C-168.49335613 2.47776434 -143.9875597 -14.12424048 -115.25390625 -21.8125 C-114.08504883 -22.12574219 -114.08504883 -22.12574219 -112.89257812 -22.4453125 C-75.02746662 -32.16535737 -31.20546926 -23.74026785 0 0 Z M-152.25390625 35.1875 C-153.55328125 36.425 -153.55328125 36.425 -154.87890625 37.6875 C-155.66265625 38.5125 -156.44640625 39.3375 -157.25390625 40.1875 C-157.82238281 40.74953125 -158.39085937 41.3115625 -158.9765625 41.890625 C-168.81439381 52.13918088 -176.15468271 65.64291727 -180.25390625 79.1875 C-180.44710449 79.8160791 -180.64030273 80.4446582 -180.83935547 81.09228516 C-189.09867793 108.99868161 -184.05125658 137.49336778 -170.46875 162.73632812 C-167.05753983 168.80979272 -162.97094687 174.05995743 -158.25390625 179.1875 C-157.58101562 179.92395752 -157.58101562 179.92395752 -156.89453125 180.67529297 C-143.28071286 195.41580443 -126.64445308 205.7691842 -107.25390625 211.1875 C-106.24714844 211.4865625 -105.24039063 211.785625 -104.203125 212.09375 C-77.21837625 219.0742359 -49.19511884 212.18143844 -25.25390625 199.1875 C-2.48339791 185.14873654 13.85898775 162.00633125 21.00390625 136.3984375 C26.75775996 111.50544934 24.89908178 85.87307766 12.74609375 63.1875 C12.05386719 61.77984375 12.05386719 61.77984375 11.34765625 60.34375 C-1.30314191 35.46151715 -24.80229212 18.41030571 -50.87890625 9.875 C-87.30834626 -0.37627962 -125.18112155 8.79023584 -152.25390625 35.1875 Z " fill="#F7D36E" transform="translate(336.25390625,145.8125)"/>
<path d="M0 0 C9.26606126 5.95149245 15.57016053 14.42159693 18.0625 25.125 C19.08093225 30.86038163 18.99203859 36.56991898 18.8125 42.375 C20.3284375 42.436875 20.3284375 42.436875 21.875 42.5 C26.61147939 43.16426235 29.70149472 45.86998878 32.8125 49.375 C35.4526897 53.23254287 35.10092637 57.41110487 35.0871582 61.90380859 C35.09226913 62.76282272 35.09738007 63.62183685 35.10264587 64.50688171 C35.11654269 67.34580458 35.11558488 70.18448467 35.11328125 73.0234375 C35.11716843 74.9987497 35.12150315 76.97406106 35.12626648 78.94937134 C35.13372911 83.09029855 35.13343731 87.23114051 35.12817383 91.37207031 C35.12238243 96.6738438 35.1393021 101.97526758 35.1625185 107.27698326 C35.17726466 111.35710688 35.17812628 115.43714648 35.17500877 119.51729202 C35.17552165 121.47168291 35.18075304 123.42607855 35.19082069 125.38044357 C35.20318331 128.11632617 35.1963942 130.85153027 35.18481445 133.58740234 C35.19245819 134.39176224 35.20010193 135.19612213 35.20797729 136.02485657 C35.15643572 141.54565097 34.16787895 145.79267047 30.3125 150.01953125 C24.94017983 154.20266597 21.00754213 154.53011224 14.3972168 154.55200195 C13.53834869 154.55857315 12.67948059 154.56514435 11.79458618 154.57191467 C8.95029615 154.59163685 6.10605888 154.60330741 3.26171875 154.61328125 C2.29006083 154.61735678 1.3184029 154.6214323 0.3173008 154.62563133 C-4.82484093 154.64648672 -9.966956 154.66079117 -15.10913086 154.67016602 C-20.41883318 154.68123382 -25.72811682 154.71563961 -31.03767109 154.75533772 C-35.12207314 154.78148637 -39.20637511 154.78985626 -43.2908535 154.79344749 C-45.24805723 154.79831739 -47.20525637 154.80994282 -49.16237831 154.82848549 C-51.90326743 154.8528413 -54.64306893 154.85191855 -57.3840332 154.8449707 C-58.59292961 154.86418579 -58.59292961 154.86418579 -59.82624817 154.88378906 C-65.07718558 154.8353527 -68.00157836 153.81301445 -72.1875 150.375 C-76.99716566 145.04537048 -77.34147486 140.91351076 -77.36450195 133.9597168 C-77.37107315 133.10084869 -77.37764435 132.24198059 -77.38441467 131.35708618 C-77.40413685 128.51279615 -77.41580741 125.66855888 -77.42578125 122.82421875 C-77.42985678 121.85256083 -77.4339323 120.8809029 -77.43813133 119.8798008 C-77.45898672 114.73765907 -77.47329117 109.595544 -77.48266602 104.45336914 C-77.49373382 99.14366682 -77.52813961 93.83438318 -77.56783772 88.52482891 C-77.59398637 84.44042686 -77.60235626 80.35612489 -77.60594749 76.2716465 C-77.61081739 74.31444277 -77.62244282 72.35724363 -77.64098549 70.40012169 C-77.6653413 67.65923257 -77.66441855 64.91943107 -77.6574707 62.1784668 C-77.67028076 61.37253586 -77.68309082 60.56660492 -77.69628906 59.73625183 C-77.63664868 53.27069809 -75.48207221 49.66957221 -70.875 45.0625 C-67.62940793 43.02457009 -64.95685698 42.82131308 -61.1875 42.375 C-61.24550781 41.35921875 -61.30351562 40.3434375 -61.36328125 39.296875 C-61.87461688 26.43505866 -59.09254224 16.10943343 -50.1875 6.375 C-36.47576824 -7.5307657 -16.94312683 -9.29805741 0 0 Z " fill="#010100" transform="translate(277.1875,173.625)"/>
<path d="M0 0 C0.82175217 -0.00554901 1.64350433 -0.01109802 2.49015808 -0.01681519 C5.19911515 -0.02859978 7.90639499 -0.00434938 10.61523438 0.02148438 C12.50183028 0.02319588 14.38842856 0.02312939 16.27502441 0.0213623 C20.22606199 0.02301487 24.17653173 0.04170121 28.12744141 0.07324219 C33.1883391 0.11291954 38.24849319 0.11728702 43.30951691 0.10977936 C47.20435379 0.10670774 51.09902394 0.11883701 54.99382019 0.13591003 C56.85970514 0.14293428 58.72560898 0.14606527 60.59150696 0.1452179 C63.20067401 0.14701848 65.80895517 0.16842221 68.41796875 0.1953125 C69.18694992 0.1923819 69.95593109 0.18945129 70.74821472 0.18643188 C75.22812538 0.25756011 78.15074365 0.83251037 81.70898438 3.61523438 C82.99075617 6.17877796 82.84064305 7.9999609 82.84942627 10.87129211 C82.85513641 11.98589813 82.86084656 13.10050415 82.86672974 14.24888611 C82.86840652 16.09178978 82.86840652 16.09178978 82.87011719 17.97192383 C82.87756454 19.90615204 82.87756454 19.90615204 82.88516235 21.87945557 C82.89829498 25.42294775 82.90473312 28.96642098 82.90917301 32.50993371 C82.91210268 34.72345946 82.91620731 36.93698002 82.92067719 39.15050316 C82.93435512 46.07512206 82.94402001 52.9997291 82.94787908 59.92436057 C82.95235906 67.91948662 82.96990283 75.91444164 82.99887967 83.90951568 C83.02049534 90.08793053 83.03058331 96.26629727 83.03192019 102.44474953 C83.03296842 106.13545215 83.03887966 109.82599405 83.05673981 113.51665688 C83.07627973 117.63466391 83.071932 121.75231309 83.06542969 125.87036133 C83.07464447 127.09289108 83.08385925 128.31542084 83.09335327 129.57499695 C83.08778412 130.69806244 83.08221497 131.82112793 83.07647705 132.97822571 C83.07867689 134.43859741 83.07867689 134.43859741 83.08092117 135.92847157 C82.6348251 139.1509393 81.65885056 141.02617656 79.70898438 143.61523438 C75.98138797 144.85776651 72.51219557 144.77078604 68.62915039 144.77636719 C67.80608398 144.78133209 66.98301758 144.786297 66.13500977 144.79141235 C63.41096157 144.80602344 60.68697157 144.81283351 57.96289062 144.81835938 C56.07103982 144.82411081 54.17918903 144.82986855 52.28733826 144.83563232 C48.32038094 144.8461387 44.35344388 144.85198404 40.38647461 144.85546875 C35.30084772 144.86095881 30.21548785 144.88499928 25.1299448 144.9134407 C21.22233799 144.93205228 17.31479576 144.93727185 13.40714836 144.93880463 C11.53203811 144.94183403 9.65692907 144.9498722 7.78186226 144.96298981 C5.16043802 144.98002266 2.53966984 144.97817716 -0.08178711 144.97167969 C-0.85750565 144.98089447 -1.63322418 144.99010925 -2.43244934 144.99960327 C-5.62252211 144.9748031 -7.91360191 144.82080372 -10.74159241 143.28045654 C-13.56563005 140.24535934 -13.42229601 137.18266787 -13.44491577 133.23892212 C-13.45351624 132.12294144 -13.4621167 131.00696075 -13.47097778 129.85716248 C-13.47523773 128.6321553 -13.47949768 127.40714813 -13.48388672 126.14501953 C-13.49206421 124.85538803 -13.5002417 123.56575653 -13.50866699 122.23704529 C-13.5348553 117.95948367 -13.55018877 113.68191239 -13.56445312 109.40429688 C-13.56981362 107.9312273 -13.57519113 106.4581578 -13.58058548 104.98508835 C-13.60220715 98.85832123 -13.62094463 92.73155672 -13.63220787 86.60476112 C-13.64845421 77.82550601 -13.68165613 69.04669294 -13.73860872 60.26760447 C-13.77729737 54.09341919 -13.79683909 47.91935221 -13.80212843 41.74504888 C-13.80578268 38.05758045 -13.81781106 34.37058382 -13.85023117 30.68324661 C-13.88587941 26.5699758 -13.8819438 22.45765682 -13.87451172 18.34423828 C-13.89091705 17.12327957 -13.90732239 15.90232086 -13.92422485 14.6443634 C-13.86411979 6.5401128 -13.86411979 6.5401128 -11.2727356 2.35812378 C-7.46438671 0.13204923 -4.29315194 -0.07404749 0 0 Z " fill="#959EA9" transform="translate(37.291015625,343.384765625)"/>
<path d="M0 0 C1.90845703 0.51046875 1.90845703 0.51046875 3.85546875 1.03125 C24.52872978 6.82612332 41.52756036 17.22703774 57 32 C57.59941406 32.53625 58.19882812 33.0725 58.81640625 33.625 C73.63107227 47.37411 83.85583693 67.6618862 88.52832031 87.09326172 C88.95461905 88.81655007 89.45366639 90.52144216 89.9609375 92.22265625 C94.40266256 108.66518892 93.81315495 128.7171992 89 145 C88.76893555 145.79567383 88.53787109 146.59134766 88.29980469 147.41113281 C78.64048989 180.10700216 58.87401704 206.16205428 29 223 C21.75611103 226.9092622 14.24831236 229.71859688 6.4375 232.25 C5.68235107 232.4965332 4.92720215 232.74306641 4.14916992 232.99707031 C-25.62063426 242.22376345 -57.58087806 237.3964319 -84.8125 223.125 C-95.31973187 217.41197342 -104.30865233 210.18185488 -113 202 C-113.60328125 201.46117187 -114.2065625 200.92234375 -114.828125 200.3671875 C-135.30834586 181.32249614 -146.74674368 151.44979468 -148 124 C-148.04769531 123.18740723 -148.09539062 122.37481445 -148.14453125 121.53759766 C-149.86151613 89.52196164 -137.75817943 59.12027786 -116.56640625 35.39501953 C-101.72021862 19.13562772 -82.15551073 7.11508918 -61 1 C-60.33403809 0.80535156 -59.66807617 0.61070312 -58.98193359 0.41015625 C-40.18150536 -4.87382174 -18.82395112 -5.38447506 0 0 Z M-100 42 C-101.299375 43.2375 -101.299375 43.2375 -102.625 44.5 C-103.40875 45.325 -104.1925 46.15 -105 47 C-105.56847656 47.56203125 -106.13695312 48.1240625 -106.72265625 48.703125 C-116.56048756 58.95168088 -123.90077646 72.45541727 -128 86 C-128.19319824 86.6285791 -128.38639648 87.2571582 -128.58544922 87.90478516 C-136.84477168 115.81118161 -131.79735033 144.30586778 -118.21484375 169.54882812 C-114.80363358 175.62229272 -110.71704062 180.87245743 -106 186 C-105.32710937 186.73645752 -105.32710937 186.73645752 -104.640625 187.48779297 C-91.02680661 202.22830443 -74.39054683 212.5816842 -55 218 C-53.99324219 218.2990625 -52.98648438 218.598125 -51.94921875 218.90625 C-24.96447 225.8867359 3.05878741 218.99393844 27 206 C49.77050834 191.96123654 66.112894 168.81883125 73.2578125 143.2109375 C79.01166621 118.31794934 77.15298803 92.68557766 65 70 C64.30777344 68.59234375 64.30777344 68.59234375 63.6015625 67.15625 C50.95076434 42.27401715 27.45161413 25.22280571 1.375 16.6875 C-35.05444001 6.43622038 -72.9272153 15.60273584 -100 42 Z " fill="#040302" transform="translate(284,139)"/>
<path d="M0 0 C31.68 0 63.36 0 96 0 C96 26.4 96 52.8 96 80 C64.32 80 32.64 80 0 80 C0 53.6 0 27.2 0 0 Z " fill="#69D6F4" transform="translate(392,376)"/>
<path d="M0 0 C0.82175217 -0.00554901 1.64350433 -0.01109802 2.49015808 -0.01681519 C5.19911515 -0.02859978 7.90639499 -0.00434938 10.61523438 0.02148438 C12.50183028 0.02319588 14.38842856 0.02312939 16.27502441 0.0213623 C20.22606199 0.02301487 24.17653173 0.04170121 28.12744141 0.07324219 C33.1883391 0.11291954 38.24849319 0.11728702 43.30951691 0.10977936 C47.20435379 0.10670774 51.09902394 0.11883701 54.99382019 0.13591003 C56.85970514 0.14293428 58.72560898 0.14606527 60.59150696 0.1452179 C63.20067401 0.14701848 65.80895517 0.16842221 68.41796875 0.1953125 C69.18694992 0.1923819 69.95593109 0.18945129 70.74821472 0.18643188 C75.22812538 0.25756011 78.15074365 0.83251037 81.70898438 3.61523438 C83.17752415 6.55231392 82.8391613 9.50869481 82.82250977 12.72705078 C82.8226303 13.47070578 82.82275084 14.21436077 82.82287502 14.98055077 C82.82212741 17.39266301 82.81450606 19.80469841 82.80664062 22.21679688 C82.80517074 23.7040198 82.80415031 25.19124325 82.80358887 26.6784668 C82.79834142 32.19906387 82.78438027 37.71964987 82.77148438 43.24023438 C82.75085938 55.57398438 82.73023438 67.90773438 82.70898438 80.61523438 C51.02898437 80.61523438 19.34898437 80.61523438 -13.29101562 80.61523438 C-13.39414062 68.34335938 -13.49726563 56.07148437 -13.60351562 43.42773438 C-13.64903564 39.55772705 -13.69455566 35.68771973 -13.74145508 31.70043945 C-13.76403809 26.96228027 -13.76403809 26.96228027 -13.76823425 24.741745 C-13.77589532 23.19605813 -13.7934465 21.65040054 -13.81889343 20.10490417 C-13.85558296 17.75862002 -13.86054333 15.41415567 -13.85864258 13.06762695 C-13.88562839 12.04067199 -13.88562839 12.04067199 -13.91315937 10.99297047 C-13.8746154 7.43025497 -13.30858068 5.64072333 -11.27372742 2.68791199 C-7.484196 0.0545778 -4.45560484 -0.07684945 0 0 Z " fill="#CBD0D8" transform="translate(389.291015625,23.384765625)"/>
<path d="M0 0 C0.9778093 -0.00554901 1.95561859 -0.01109802 2.96305847 -0.01681519 C6.19136748 -0.02861436 9.41827378 -0.00433254 12.64648438 0.02148438 C14.89180436 0.02319546 17.13712635 0.02312982 19.38244629 0.0213623 C24.08670174 0.02301571 28.79048076 0.04171827 33.49462891 0.07324219 C39.52404007 0.11291941 45.55282712 0.11728746 51.58234406 0.10977936 C56.2183402 0.10670954 60.85419609 0.11883071 65.49015808 0.13591003 C67.71330383 0.14294039 69.93646548 0.14606452 72.15962219 0.1452179 C75.26686319 0.14701597 78.37335698 0.16839946 81.48046875 0.1953125 C82.39906174 0.1923819 83.31765472 0.18945129 84.26408386 0.18643188 C89.05386571 0.25042776 92.37603763 0.45115905 96.24023438 3.61523438 C97.56977229 6.27431021 97.36009469 8.28088806 97.35375977 11.25830078 C97.35363892 12.45592041 97.35351807 13.65354004 97.35339355 14.88745117 C97.34827759 16.15113525 97.34316162 17.41481934 97.33789062 18.71679688 C97.33688354 19.8746167 97.33587646 21.03243652 97.33483887 22.2253418 C97.32959423 26.56364935 97.31563305 30.90194283 97.30273438 35.24023438 C97.28210938 44.93398437 97.26148438 54.62773438 97.24023438 64.61523438 C60.28023437 64.61523438 23.32023437 64.61523438 -14.75976562 64.61523438 C-14.86289062 54.98335937 -14.96601563 45.35148437 -15.07226562 35.42773438 C-15.11778564 32.39303955 -15.16330566 29.35834473 -15.21020508 26.23168945 C-15.22480911 23.82439276 -15.23754997 21.41708373 -15.24804688 19.00976562 C-15.27362671 17.76142944 -15.29920654 16.51309326 -15.32556152 15.22692871 C-15.32616577 14.02967163 -15.32677002 12.83241455 -15.32739258 11.59887695 C-15.33849564 10.56185135 -15.34959869 9.52482574 -15.36103821 8.45637512 C-13.57405023 0.01247713 -7.21408286 -0.10416163 0 0 Z " fill="#68D5F3" transform="translate(38.759765625,23.384765625)"/>
<path d="M0 0 C26.4 0 52.8 0 80 0 C80 26.4 80 52.8 80 80 C53.6 80 27.2 80 0 80 C0 53.6 0 27.2 0 0 Z " fill="#A9B1BC" transform="translate(216,232)"/>
<path d="M0 0 C21.12 0 42.24 0 64 0 C64 26.4 64 52.8 64 80 C42.88 80 21.76 80 0 80 C0 53.6 0 27.2 0 0 Z " fill="#000000" transform="translate(40,360)"/>
<path d="M0 0 C21.12 0 42.24 0 64 0 C64 15.84 64 31.68 64 48 C42.88 48 21.76 48 0 48 C0 32.16 0 16.32 0 0 Z " fill="#000000" transform="translate(392,40)"/>
<path d="M0 0 C0.96104645 -0.01781525 1.9220929 -0.03563049 2.91226196 -0.0539856 C11.8009782 -0.20870812 20.69081224 -0.29592857 29.58057404 -0.36397934 C35.55501968 -0.41014475 41.52750298 -0.47750865 47.50097656 -0.59667969 C53.27303143 -0.71141989 59.04332527 -0.77187686 64.81645203 -0.79450226 C67.0142117 -0.8122644 69.21190538 -0.84906283 71.40901184 -0.90550995 C89.53614485 -1.34914779 89.53614485 -1.34914779 94.14379883 2.67614746 C96.43677246 5.44902171 98.15100386 8.12665569 99.84960938 11.28808594 C100.87579093 12.59208886 101.91524418 13.88589464 102.97460938 15.16308594 C104.84960938 18.28808594 104.84960938 18.28808594 104.72460938 21.16308594 C103.84960938 23.28808594 103.84960938 23.28808594 102.84960938 24.28808594 C101.24735755 24.38842833 99.64068163 24.41884516 98.03529358 24.42179871 C96.99345413 24.42606369 95.95161469 24.43032867 94.87820435 24.4347229 C93.14907303 24.43404312 93.14907303 24.43404312 91.38500977 24.43334961 C89.57544548 24.43838753 89.57544548 24.43838753 87.72932434 24.44352722 C84.41115412 24.45142299 81.09304645 24.45470616 77.77487111 24.45534301 C75.00883632 24.45629051 72.24280758 24.45996697 69.47677511 24.4635151 C62.9530195 24.47166722 56.4292777 24.47409865 49.90551758 24.47338867 C43.16687741 24.4727877 36.42831724 24.48334161 29.68969733 24.49913234 C23.91219519 24.51219043 18.13471926 24.5175733 12.35720247 24.51693326 C8.9030393 24.51667776 5.44894719 24.51955756 1.99479866 24.53011131 C-1.85563179 24.54155394 -5.70595176 24.53705611 -9.55639648 24.53100586 C-10.70712646 24.53662537 -11.85785645 24.54224487 -13.04345703 24.54803467 C-14.61044594 24.54174294 -14.61044594 24.54174294 -16.20909119 24.5353241 C-17.12036742 24.53586886 -18.03164366 24.53641363 -18.97053432 24.53697491 C-21.15039062 24.28808594 -21.15039062 24.28808594 -23.15039062 22.28808594 C-22.8268337 18.57175997 -21.71452203 16.25883137 -19.46289062 13.33496094 C-18.92921875 12.63371094 -18.39554687 11.93246094 -17.84570312 11.20996094 C-17.00652344 10.13488281 -17.00652344 10.13488281 -16.15039062 9.03808594 C-15.5909375 8.30589844 -15.03148437 7.57371094 -14.45507812 6.81933594 C-9.65276552 0.55544993 -8.05036632 0.12010723 0 0 Z " fill="#959EA9" transform="translate(383.150390625,119.7119140625)"/>
<path d="M0 0 C6.517154 3.6904366 11.82881353 8.78641294 13.9453125 16.1015625 C15.07677143 23.27925509 13.68914171 29.8826462 9.9453125 36.1015625 C6.30310107 40.2065139 3.31111676 42.76011144 -2.0546875 44.1015625 C-2.0546875 50.0415625 -2.0546875 55.9815625 -2.0546875 62.1015625 C-7.3346875 62.1015625 -12.6146875 62.1015625 -18.0546875 62.1015625 C-18.0546875 56.1615625 -18.0546875 50.2215625 -18.0546875 44.1015625 C-20.0346875 43.4415625 -22.0146875 42.7815625 -24.0546875 42.1015625 C-29.93330335 37.23886278 -33.40613593 31.17647852 -34.3671875 23.65625 C-34.66213155 17.62833094 -33.71035924 12.96282811 -30.0546875 8.1015625 C-21.53578211 -0.86236034 -12.04227969 -5.21669606 0 0 Z " fill="#010101" transform="translate(266.0546875,241.8984375)"/>
<path d="M0 0 C36.96 0 73.92 0 112 0 C112 11.55555556 112 11.55555556 109 15 C106.26275838 15.91241387 104.64928323 16.1290677 101.83180237 16.14044189 C100.559543 16.14900711 100.559543 16.14900711 99.26158142 16.15774536 C98.33422684 16.15886322 97.40687225 16.15998108 96.45141602 16.16113281 C95.47229248 16.16609772 94.49316895 16.17106262 93.484375 16.17617798 C90.24087831 16.19080011 86.9974305 16.19760101 83.75390625 16.203125 C81.50333148 16.20887553 79.25275674 16.21463328 77.00218201 16.22039795 C72.28196992 16.23090748 67.56177487 16.23675075 62.84155273 16.24023438 C56.78739803 16.24572503 50.73346756 16.26976558 44.67938328 16.29820633 C40.03060747 16.31680901 35.38188599 16.322037 30.7330761 16.32357025 C28.50070912 16.32660166 26.2683432 16.33464655 24.03601265 16.34775543 C20.91649298 16.36476939 17.79752548 16.36294717 14.67797852 16.35644531 C13.75264816 16.3656601 12.82731781 16.37487488 11.87394714 16.3843689 C5.65458932 16.34366755 5.65458932 16.34366755 2.45762634 14.66522217 C-1.39823697 10.260205 0 6.13737875 0 0 Z " fill="#CBD0D8" transform="translate(24,104)"/>
<path d="M0 0 C10.56 0 21.12 0 32 0 C32 15.84 32 31.68 32 48 C21.44 48 10.88 48 0 48 C0 32.16 0 16.32 0 0 Z " fill="#69D6F4" transform="translate(56,376)"/>
<path d="M0 0 C0.82175217 -0.00554901 1.64350433 -0.01109802 2.49015808 -0.01681519 C5.19911515 -0.02859978 7.90639499 -0.00434938 10.61523438 0.02148438 C12.50183028 0.02319588 14.38842856 0.02312939 16.27502441 0.0213623 C20.22606199 0.02301487 24.17653173 0.04170121 28.12744141 0.07324219 C33.1883391 0.11291954 38.24849319 0.11728702 43.30951691 0.10977936 C47.20435379 0.10670774 51.09902394 0.11883701 54.99382019 0.13591003 C56.85970514 0.14293428 58.72560898 0.14606527 60.59150696 0.1452179 C63.20067401 0.14701848 65.80895517 0.16842221 68.41796875 0.1953125 C69.18694992 0.1923819 69.95593109 0.18945129 70.74821472 0.18643188 C75.22812538 0.25756011 78.15074365 0.83251037 81.70898438 3.61523438 C82.70898438 5.61523438 82.70898438 5.61523438 82.70898438 16.61523438 C51.02898437 16.61523438 19.34898437 16.61523438 -13.29101562 16.61523438 C-13.29101562 5.61523438 -13.29101562 5.61523438 -11.3092041 2.46618652 C-7.48532766 0.1211334 -4.35649296 -0.07513998 0 0 Z " fill="#959EA9" transform="translate(405.291015625,343.384765625)"/>
<path d="M0 0 C31.68 0 63.36 0 96 0 C96 11.55555556 96 11.55555556 93 15 C89.2724036 16.24253213 85.8032112 16.15555167 81.92016602 16.16113281 C80.68556641 16.16858017 80.68556641 16.16858017 79.42602539 16.17617798 C76.7019772 16.19078906 73.9779872 16.19759914 71.25390625 16.203125 C69.36205544 16.20887644 67.47020465 16.21463417 65.57835388 16.22039795 C61.61139657 16.23090433 57.6444595 16.23674966 53.67749023 16.24023438 C48.59186335 16.24572444 43.50650347 16.2697649 38.42096043 16.29820633 C34.51335361 16.3168179 30.60581138 16.32203747 26.69816399 16.32357025 C24.82305374 16.32659965 22.9479447 16.33463783 21.07287788 16.34775543 C18.45145364 16.36478828 15.83068546 16.36294278 13.20922852 16.35644531 C12.04565071 16.37026749 12.04565071 16.37026749 10.85856628 16.3843689 C7.66849351 16.35956873 5.37741371 16.20556934 2.54942322 14.66522217 C-1.45793391 10.35836795 0 6.12187954 0 0 Z " fill="#959EA9" transform="translate(392,472)"/>
<path d="M0 0 C6.55377411 3.43524963 10.69615183 9.27019619 13.1015625 16.1015625 C13.1015625 20.7215625 13.1015625 25.3415625 13.1015625 30.1015625 C-2.7384375 30.1015625 -18.5784375 30.1015625 -34.8984375 30.1015625 C-34.8984375 12.28066698 -34.8984375 12.28066698 -28.8046875 5.9140625 C-20.13655821 -2.1761915 -11.3104223 -4.27637875 0 0 Z " fill="#FCE7A5" transform="translate(266.8984375,185.8984375)"/>
<path d="M0 0 C17.16 0 34.32 0 52 0 C55 12 55 12 55 16 C35.53 16 16.06 16 -4 16 C-2.68 10.72 -1.36 5.44 0 0 Z " fill="#A8B0BB" transform="translate(54,136)"/>
<path d="M0 0 C10.56 0 21.12 0 32 0 C32 5.28 32 10.56 32 16 C21.44 16 10.88 16 0 16 C0 10.72 0 5.44 0 0 Z " fill="#000000" transform="translate(56,456)"/>
<path d="M0 0 C10.56 0 21.12 0 32 0 C32 5.28 32 10.56 32 16 C21.44 16 10.88 16 0 16 C0 10.72 0 5.44 0 0 Z " fill="#69D6F4" transform="translate(408,56)"/>
<path d="M0 0 C4.0743356 0.84881992 5.54405875 2.30225596 8 5.625 C8.625 8.625 8.625 8.625 8 11.625 C5.54405875 14.94774404 4.0743356 16.40118008 0 17.25 C-4.0743356 16.40118008 -5.54405875 14.94774404 -8 11.625 C-8.625 8.625 -8.625 8.625 -8 5.625 C-5.54405875 2.30225596 -4.0743356 0.84881992 0 0 Z " fill="#F27B68" transform="translate(256,471.375)"/>
<path d="M0 0 C4.0743356 0.84881992 5.54405875 2.30225596 8 5.625 C8.625 8.625 8.625 8.625 8 11.625 C5.54405875 14.94774404 4.0743356 16.40118008 0 17.25 C-4.0743356 16.40118008 -5.54405875 14.94774404 -8 11.625 C-8.625 8.625 -8.625 8.625 -8 5.625 C-5.54405875 2.30225596 -4.0743356 0.84881992 0 0 Z " fill="#F27B68" transform="translate(192,439.375)"/>
<path d="M0 0 C4.0743356 0.84881992 5.54405875 2.30225596 8 5.625 C8.625 8.625 8.625 8.625 8 11.625 C5.54405875 14.94774404 4.0743356 16.40118008 0 17.25 C-4.0743356 16.40118008 -5.54405875 14.94774404 -8 11.625 C-8.625 8.625 -8.625 8.625 -8 5.625 C-5.54405875 2.30225596 -4.0743356 0.84881992 0 0 Z " fill="#F27B68" transform="translate(304,423.375)"/>
<path d="M0 0 C4.0743356 0.84881992 5.54405875 2.30225596 8 5.625 C8.625 8.625 8.625 8.625 8 11.625 C5.54405875 14.94774404 4.0743356 16.40118008 0 17.25 C-4.0743356 16.40118008 -5.54405875 14.94774404 -8 11.625 C-8.625 8.625 -8.625 8.625 -8 5.625 C-5.54405875 2.30225596 -4.0743356 0.84881992 0 0 Z " fill="#ABD279" transform="translate(256,255.375)"/>
<path d="M0 0 C4.0743356 0.84881992 5.54405875 2.30225596 8 5.625 C8.625 8.625 8.625 8.625 8 11.625 C5.54405875 14.94774404 4.0743356 16.40118008 0 17.25 C-4.0743356 16.40118008 -5.54405875 14.94774404 -8 11.625 C-8.625 8.625 -8.625 8.625 -8 5.625 C-5.54405875 2.30225596 -4.0743356 0.84881992 0 0 Z " fill="#F27B68" transform="translate(304,71.375)"/>
<path d="M0 0 C4.0743356 0.84881992 5.54405875 2.30225596 8 5.625 C8.625 8.625 8.625 8.625 8 11.625 C5.54405875 14.94774404 4.0743356 16.40118008 0 17.25 C-4.0743356 16.40118008 -5.54405875 14.94774404 -8 11.625 C-8.625 8.625 -8.625 8.625 -8 5.625 C-5.54405875 2.30225596 -4.0743356 0.84881992 0 0 Z " fill="#F27B68" transform="translate(192,55.375)"/>
<path d="M0 0 C4.0743356 0.84881992 5.54405875 2.30225596 8 5.625 C8.625 8.625 8.625 8.625 8 11.625 C5.54405875 14.94774404 4.0743356 16.40118008 0 17.25 C-4.0743356 16.40118008 -5.54405875 14.94774404 -8 11.625 C-8.625 8.625 -8.625 8.625 -8 5.625 C-5.54405875 2.30225596 -4.0743356 0.84881992 0 0 Z " fill="#F27B68" transform="translate(256,23.375)"/>
</svg>
