<?xml version="1.0" encoding="UTF-8"?>
<!DOCTYPE svg PUBLIC "-//W3C//DTD SVG 1.1//EN" "http://www.w3.org/Graphics/SVG/1.1/DTD/svg11.dtd">
<svg xmlns="http://www.w3.org/2000/svg" version="1.1" width="512px" height="512px" style="shape-rendering:geometricPrecision; text-rendering:geometricPrecision; image-rendering:optimizeQuality; fill-rule:evenodd; clip-rule:evenodd" xmlns:xlink="http://www.w3.org/1999/xlink">
<g><path style="opacity:0.984" fill="#020303" d="M 511.5,213.5 C 511.5,241.5 511.5,269.5 511.5,297.5C 505.998,313.495 494.831,322.828 478,325.5C 464.208,369.926 439.375,406.76 403.5,436C 399.688,438.107 396.355,437.607 393.5,434.5C 390.685,430.24 391.018,426.24 394.5,422.5C 403.266,415.238 411.599,407.404 419.5,399C 389.828,398.167 360.161,398.333 330.5,399.5C 329.441,401.534 328.441,403.534 327.5,405.5C 312.702,429.486 295.369,451.653 275.5,472C 307.923,468.976 338.257,459.309 366.5,443C 370.531,442.182 373.864,443.349 376.5,446.5C 378.222,450.703 377.222,454.203 373.5,457C 308.293,492.953 240.626,498.287 170.5,473C 102.593,444.426 56.76,395.259 33,325.5C 16.1691,322.828 5.00243,313.495 -0.5,297.5C -0.5,269.5 -0.5,241.5 -0.5,213.5C 5.00243,197.505 16.1691,188.172 33,185.5C 48.1131,138.754 74.9464,100.254 113.5,70C 118.037,66.5484 122.371,66.7151 126.5,70.5C 127.984,73.5839 127.818,76.5839 126,79.5C 114.363,88.9703 103.529,99.3037 93.5,110.5C 92.7109,110.783 92.0442,111.283 91.5,112C 121.336,112.831 151.003,112.664 180.5,111.5C 195.447,85.8748 213.114,62.2082 233.5,40.5C 212.099,40.6364 191.766,45.3031 172.5,54.5C 165.952,56.7725 159.619,59.6058 153.5,63C 151.5,63.6667 149.5,63.6667 147.5,63C 146.295,61.6244 144.962,60.4577 143.5,59.5C 141.778,55.2966 142.778,51.7966 146.5,49C 201.854,21.0887 259.52,15.0887 319.5,31C 386.568,51.9292 435.735,93.7625 467,156.5C 471.059,166.011 474.726,175.678 478,185.5C 494.831,188.172 505.998,197.505 511.5,213.5 Z"/></g>
<g><path style="opacity:1" fill="#a1dbfb" d="M 180.5,111.5 C 172.833,111.5 165.167,111.5 157.5,111.5C 159.842,91.8001 164.842,72.8001 172.5,54.5C 191.766,45.3031 212.099,40.6364 233.5,40.5C 213.114,62.2082 195.447,85.8748 180.5,111.5 Z"/></g>
<g><path style="opacity:1" fill="#a1dcfc" d="M 417.5,110.5 C 388.671,111.498 359.671,111.831 330.5,111.5C 315.454,84.9395 297.12,60.7729 275.5,39C 332.233,44.5326 379.566,68.3659 417.5,110.5 Z"/></g>
<g><path style="opacity:1" fill="#a2dcfc" d="M 312.5,110.5 C 274.5,111.833 236.5,111.833 198.5,110.5C 213.721,84.2604 232.721,60.9271 255.5,40.5C 278.279,60.9271 297.279,84.2604 312.5,110.5 Z"/></g>
<g><path style="opacity:1" fill="#79cdf9" d="M 172.5,54.5 C 164.842,72.8001 159.842,91.8001 157.5,111.5C 135.993,111.831 114.66,111.497 93.5,110.5C 103.529,99.3037 114.363,88.9703 126,79.5C 127.818,76.5839 127.984,73.5839 126.5,70.5C 131.875,66.4732 137.541,62.8065 143.5,59.5C 144.962,60.4577 146.295,61.6244 147.5,63C 149.5,63.6667 151.5,63.6667 153.5,63C 159.619,59.6058 165.952,56.7725 172.5,54.5 Z"/></g>
<g><path style="opacity:1" fill="#4d7c95" d="M 93.5,110.5 C 114.66,111.497 135.993,111.831 157.5,111.5C 165.167,111.5 172.833,111.5 180.5,111.5C 151.003,112.664 121.336,112.831 91.5,112C 92.0442,111.283 92.7109,110.783 93.5,110.5 Z"/></g>
<g><path style="opacity:1" fill="#618497" d="M 198.5,110.5 C 236.5,111.833 274.5,111.833 312.5,110.5C 313.043,110.56 313.376,110.893 313.5,111.5C 274.833,112.833 236.167,112.833 197.5,111.5C 197.624,110.893 197.957,110.56 198.5,110.5 Z"/></g>
<g><path style="opacity:1" fill="#618396" d="M 417.5,110.5 C 418.289,110.783 418.956,111.283 419.5,112C 389.664,112.831 359.997,112.664 330.5,111.5C 359.671,111.831 388.671,111.498 417.5,110.5 Z"/></g>
<g><path style="opacity:1" fill="#79cdf9" d="M 154.5,127.5 C 153.307,140.323 153.307,152.99 154.5,165.5C 151.566,172.303 149.232,179.303 147.5,186.5C 114.833,186.5 82.1667,186.5 49.5,186.5C 55.9451,165.108 65.9451,145.608 79.5,128C 104.498,127.5 129.498,127.333 154.5,127.5 Z"/></g>
<g><path style="opacity:1" fill="#a0dafa" d="M 154.5,127.5 C 160.176,127.334 165.843,127.501 171.5,128C 164.96,140.129 159.293,152.629 154.5,165.5C 153.307,152.99 153.307,140.323 154.5,127.5 Z"/></g>
<g><path style="opacity:1" fill="#a2ddfd" d="M 188.5,127.5 C 233.168,127.333 277.835,127.5 322.5,128C 333.07,146.475 341.737,165.808 348.5,186C 286.5,186.667 224.5,186.667 162.5,186C 169.405,165.693 178.072,146.193 188.5,127.5 Z"/></g>
<g><path style="opacity:1" fill="#a2ddfd" d="M 339.5,128.5 C 369.997,127.336 400.664,127.169 431.5,128C 445.055,145.608 455.055,165.108 461.5,186.5C 428.833,186.5 396.167,186.5 363.5,186.5C 357.681,166.205 349.681,146.871 339.5,128.5 Z"/></g>
<g><path style="opacity:1" fill="#edcf75" d="M 242.5,201.5 C 239.572,216.51 238.905,231.51 240.5,246.5C 238.683,251.475 236.85,256.475 235,261.5C 230,248.5 225,235.5 220,222.5C 214.879,218.125 210.545,218.791 207,224.5C 206.333,226.167 206.333,227.833 207,229.5C 214.137,249.244 221.47,268.911 229,288.5C 232.077,291.809 235.577,292.309 239.5,290C 241.995,284.848 244.328,279.682 246.5,274.5C 249.977,287.792 256.31,299.458 265.5,309.5C 187.166,309.667 108.833,309.5 30.5,309C 22.6667,306.5 17.5,301.333 15,293.5C 14.3333,267.833 14.3333,242.167 15,216.5C 17.4413,210.392 21.6079,205.892 27.5,203C 99.1087,201.51 170.775,201.01 242.5,201.5 Z"/></g>
<g><path style="opacity:1" fill="#f5ed86" d="M 242.5,201.5 C 321.501,201.333 400.501,201.5 479.5,202C 487.477,203.975 492.977,208.808 496,216.5C 496.667,242.167 496.667,267.833 496,293.5C 493.401,301.766 487.901,306.932 479.5,309C 408.167,309.5 336.834,309.667 265.5,309.5C 256.31,299.458 249.977,287.792 246.5,274.5C 248.901,265.964 251.901,257.631 255.5,249.5C 260.429,262.452 265.262,275.452 270,288.5C 273.112,291.723 276.612,292.223 280.5,290C 282.563,287.489 284.063,284.656 285,281.5C 291.137,264.09 297.47,246.757 304,229.5C 305.126,223.752 302.792,220.419 297,219.5C 294.594,219.703 292.594,220.703 291,222.5C 286,235.5 281,248.5 276,261.5C 271.667,249.5 267.333,237.5 263,225.5C 259.077,218.577 254.41,217.91 249,223.5C 245.865,231.075 243.031,238.741 240.5,246.5C 238.905,231.51 239.572,216.51 242.5,201.5 Z"/></g>
<g><path style="opacity:1" fill="#040302" d="M 100.5,219.5 C 103.747,219.415 106.581,220.415 109,222.5C 113.934,235.137 118.768,247.804 123.5,260.5C 128.489,248.703 132.989,236.703 137,224.5C 141.171,218.271 145.837,217.938 151,223.5C 155.667,236.167 160.333,248.833 165,261.5C 169.667,248.833 174.333,236.167 179,223.5C 183.299,218.289 187.632,218.289 192,223.5C 192.667,226.167 192.667,228.833 192,231.5C 185,250.5 178,269.5 171,288.5C 166.96,292.35 162.96,292.35 159,288.5C 154.259,275.359 149.259,262.359 144,249.5C 139.333,262.167 134.667,274.833 130,287.5C 125.585,292.726 121.251,292.726 117,287.5C 110,268.167 103,248.833 96,229.5C 94.5713,224.783 96.0713,221.45 100.5,219.5 Z"/></g>
<g><path style="opacity:1" fill="#040402" d="M 240.5,246.5 C 243.031,238.741 245.865,231.075 249,223.5C 254.41,217.91 259.077,218.577 263,225.5C 267.333,237.5 271.667,249.5 276,261.5C 281,248.5 286,235.5 291,222.5C 292.594,220.703 294.594,219.703 297,219.5C 302.792,220.419 305.126,223.752 304,229.5C 297.47,246.757 291.137,264.09 285,281.5C 284.063,284.656 282.563,287.489 280.5,290C 276.612,292.223 273.112,291.723 270,288.5C 265.262,275.452 260.429,262.452 255.5,249.5C 251.901,257.631 248.901,265.964 246.5,274.5C 244.328,279.682 241.995,284.848 239.5,290C 235.577,292.309 232.077,291.809 229,288.5C 221.47,268.911 214.137,249.244 207,229.5C 206.333,227.833 206.333,226.167 207,224.5C 210.545,218.791 214.879,218.125 220,222.5C 225,235.5 230,248.5 235,261.5C 236.85,256.475 238.683,251.475 240.5,246.5 Z"/></g>
<g><path style="opacity:1" fill="#040402" d="M 322.5,219.5 C 326.426,219.047 329.592,220.38 332,223.5C 336.667,236.167 341.333,248.833 346,261.5C 350.667,248.833 355.333,236.167 360,223.5C 365.081,218.014 369.748,218.347 374,224.5C 378.011,236.703 382.511,248.703 387.5,260.5C 392.232,247.804 397.066,235.137 402,222.5C 406.625,218.354 410.959,218.687 415,223.5C 415.667,225.5 415.667,227.5 415,229.5C 408,248.833 401,268.167 394,287.5C 390.089,292.257 385.922,292.59 381.5,288.5C 376.568,275.539 371.735,262.539 367,249.5C 361.741,262.359 356.741,275.359 352,288.5C 346.879,292.875 342.545,292.209 339,286.5C 332.53,268.09 325.864,249.757 319,231.5C 317.593,226.599 318.76,222.599 322.5,219.5 Z"/></g>
<g><path style="opacity:1" fill="#79cdf9" d="M 49.5,324.5 C 82.1735,324.167 114.84,324.5 147.5,325.5C 153.709,345.418 161.709,364.584 171.5,383C 140.833,383.667 110.167,383.667 79.5,383C 65.9451,365.392 55.9451,345.892 49.5,324.5 Z"/></g>
<g><path style="opacity:1" fill="#79cdf9" d="M 208.5,324.5 C 226.798,348.473 248.798,368.14 274.5,383.5C 245.831,383.667 217.165,383.5 188.5,383C 177.93,364.458 169.597,344.958 163.5,324.5C 178.5,324.5 193.5,324.5 208.5,324.5 Z"/></g>
<g><path style="opacity:1" fill="#a2ddfd" d="M 208.5,324.5 C 254.833,324.5 301.167,324.5 347.5,324.5C 341.403,344.958 333.07,364.458 322.5,383C 306.503,383.5 290.503,383.667 274.5,383.5C 248.798,368.14 226.798,348.473 208.5,324.5 Z"/></g>
<g><path style="opacity:1" fill="#a2ddfd" d="M 363.5,324.5 C 396.167,324.5 428.833,324.5 461.5,324.5C 455.013,345.474 445.347,364.807 432.5,382.5C 401.505,383.667 370.505,383.833 339.5,383C 349.556,364.327 357.556,344.827 363.5,324.5 Z"/></g>
<g><path style="opacity:1" fill="#487a94" d="M 180.5,399.5 C 151.329,399.169 122.329,399.502 93.5,400.5C 92.7109,400.217 92.0442,399.717 91.5,399C 121.336,398.169 151.003,398.336 180.5,399.5 Z"/></g>
<g><path style="opacity:1" fill="#4a7c95" d="M 312.5,400.5 C 274.5,399.167 236.5,399.167 198.5,400.5C 197.957,400.44 197.624,400.107 197.5,399.5C 236.167,398.167 274.833,398.167 313.5,399.5C 313.376,400.107 313.043,400.44 312.5,400.5 Z"/></g>
<g><path style="opacity:1" fill="#78ccf7" d="M 180.5,399.5 C 195.546,426.06 213.88,450.227 235.5,472C 178.781,466.474 131.448,442.641 93.5,400.5C 122.329,399.502 151.329,399.169 180.5,399.5 Z"/></g>
<g><path style="opacity:1" fill="#79cdf8" d="M 312.5,400.5 C 297.279,426.74 278.279,450.073 255.5,470.5C 232.721,450.073 213.721,426.74 198.5,400.5C 236.5,399.167 274.5,399.167 312.5,400.5 Z"/></g>
<g><path style="opacity:1" fill="#9ed8f7" d="M 394.5,422.5 C 372.257,420.285 350.59,415.451 329.5,408C 328.244,407.583 327.577,406.75 327.5,405.5C 328.441,403.534 329.441,401.534 330.5,399.5C 360.161,398.333 389.828,398.167 419.5,399C 411.599,407.404 403.266,415.238 394.5,422.5 Z"/></g>
<g><path style="opacity:1" fill="#79ccf7" d="M 327.5,405.5 C 327.577,406.75 328.244,407.583 329.5,408C 350.59,415.451 372.257,420.285 394.5,422.5C 391.018,426.24 390.685,430.24 393.5,434.5C 387.81,438.532 382.143,442.532 376.5,446.5C 373.864,443.349 370.531,442.182 366.5,443C 338.257,459.309 307.923,468.976 275.5,472C 295.369,451.653 312.702,429.486 327.5,405.5 Z"/></g>
</svg>
