<svg xmlns="http://www.w3.org/2000/svg" version="1.1" xmlns:xlink="http://www.w3.org/1999/xlink" xmlns:svgjs="http://svgjs.dev/svgjs" width="1500" height="1500" viewBox="0 0 1500 1500"><rect width="1500" height="1500" fill="#ffffff"></rect><g transform="matrix(0.6666666666666666,0,0,0.6666666666666666,249.50000000000006,249.50033628867732)"><svg viewBox="0 0 280 280" data-background-color="#575c5f" preserveAspectRatio="xMidYMid meet" height="1500" width="1500" xmlns="http://www.w3.org/2000/svg" xmlns:xlink="http://www.w3.org/1999/xlink"><g id="tight-bounds" transform="matrix(1,0,0,1,0.13999999999998636,0.13993083974438036)"><svg viewBox="0 0 279.72 279.72" height="279.72" width="279.72"><g><svg viewBox="0 0 279.72 279.72" height="279.72" width="279.72"><g><svg viewBox="0 0 279.72 279.72" height="279.72" width="279.72"><g id="textblocktransform"><svg viewBox="0 0 279.72 279.72" height="279.72" width="279.72" id="textblock"><g><svg viewBox="0 0 279.72 279.72" height="279.72" width="279.72"><g transform="matrix(1,0,0,1,57.446704652707865,57.446704652707865)"><svg viewBox="0 0 164.8265906945843 164.8265906945843" height="164.8265906945843" width="164.8265906945843"><g id="icon-0"><circle r="82" cx="82.41329534729215" cy="82.41329534729215" fill="#000000" data-fill-palette-color="accent"></circle><svg xmlns="http://www.w3.org/2000/svg" xmlns:xlink="http://www.w3.org/1999/xlink" version="1.1" x="24.72398860418764" y="24.723988604187646" viewBox="15 5 70 91.4" enable-background="new 0 0 100 100" xml:space="preserve" height="115.378613486209" width="115.378613486209" class="icon-jxe-0" data-fill-palette-color="quaternary" id="jxe-0"><path d="M17.5 95C18.9 95 20 93.9 20 92.5V40C20 23.5 33.5 10 50 10S80 23.5 80 40V92.5C80 93.9 81.1 95 82.5 95S85 93.9 85 92.5V40C85 20.7 69.3 5 50 5S15 20.7 15 40V92.5C15 93.9 16.1 95 17.5 95" fill="#ffffff" data-fill-palette-color="quaternary"></path><path d="M51.3 40C51.3 39.3 50.7 38.7 50 38.7S48.7 39.3 48.7 40V70C48.7 70.7 49.3 71.3 50 71.3S51.3 70.7 51.3 70z" fill="#ffffff" data-fill-palette-color="quaternary"></path><path d="M25 43.8C24.3 43.8 23.7 44.4 23.7 45.1V70.1C23.7 84.6 35.5 96.4 50 96.4 57 96.4 63.6 93.7 68.6 88.7 69.1 88.2 69.1 87.4 68.6 86.9S67.3 86.4 66.8 86.9C62.3 91.4 56.3 93.9 50 93.9 36.9 93.9 26.2 83.2 26.2 70.1V45C26.3 44.3 25.7 43.8 25 43.8" fill="#ffffff" data-fill-palette-color="quaternary"></path><path d="M71.3 57.5C71.3 56.8 70.7 56.2 70 56.2S68.7 56.8 68.7 57.5V70C68.7 80.3 60.3 88.8 49.9 88.8S31.3 80.3 31.3 70V61.3C31.3 60.6 30.7 60 30 60S28.7 60.6 28.7 61.3V70C28.7 81.7 38.2 91.3 50 91.3S71.3 81.7 71.3 70z" fill="#ffffff" data-fill-palette-color="quaternary"></path><path d="M70 53.8C70.7 53.8 71.3 53.2 71.3 52.5V40C71.3 28.3 61.8 18.7 50 18.7S28.8 28.3 28.8 40V56.3C28.8 57 29.4 57.6 30.1 57.6S31.4 57 31.4 56.3V40C31.4 29.7 39.8 21.2 50.2 21.2S68.8 29.7 68.8 40V52.5C68.8 53.2 69.3 53.8 70 53.8" fill="#ffffff" data-fill-palette-color="quaternary"></path><path d="M66.3 40C66.3 31 59 23.7 50 23.7 45.7 23.7 41.6 25.4 38.5 28.5 38 29 38 29.8 38.5 30.3S39.8 30.8 40.3 30.3C42.9 27.7 46.4 26.3 50 26.3 57.6 26.3 63.8 32.5 63.8 40.1V45.1C63.8 45.8 64.4 46.4 65.1 46.4S66.4 45.8 66.4 45.1V40z" fill="#ffffff" data-fill-palette-color="quaternary"></path><path d="M35 66.3C35.7 66.3 36.3 65.7 36.3 65V40C36.3 38.1 36.7 36.3 37.4 34.7 37.7 34.1 37.4 33.3 36.7 33.1 36.1 32.8 35.3 33.1 35.1 33.8 34.3 35.8 33.8 37.9 33.8 40.1V65.1C33.8 65.7 34.3 66.3 35 66.3" fill="#ffffff" data-fill-palette-color="quaternary"></path><path d="M50 86.3C59 86.3 66.3 79 66.3 70V50C66.3 49.3 65.7 48.7 65 48.7S63.7 49.3 63.7 50V70C63.7 77.6 57.5 83.8 49.9 83.8S36.3 77.6 36.3 70C36.3 69.3 35.7 68.7 35 68.7S33.7 69.3 33.7 70C33.8 79 41 86.3 50 86.3" fill="#ffffff" data-fill-palette-color="quaternary"></path><path d="M60 61.3C60.7 61.3 61.3 60.7 61.3 60V40C61.3 33.8 56.3 28.7 50 28.7S38.7 33.7 38.7 40V70C38.7 76.2 43.7 81.3 50 81.3S61.3 76.3 61.3 70V65C61.3 64.3 60.7 63.7 60 63.7S58.7 64.3 58.7 65V70C58.7 74.8 54.8 78.8 49.9 78.8S41.1 74.9 41.1 70V40C41.1 35.2 45 31.2 49.9 31.2S58.7 35.1 58.7 40V60C58.8 60.7 59.3 61.3 60 61.3" fill="#ffffff" data-fill-palette-color="quaternary"></path><path d="M55 43.8C54.3 43.8 53.7 44.4 53.7 45.1V70.1C53.7 70.6 53.6 71.1 53.4 71.6 53.1 72.2 53.4 73 54.1 73.2 54.3 73.3 54.4 73.3 54.6 73.3 55.1 73.3 55.5 73 55.8 72.5 56.1 71.7 56.3 70.9 56.3 70.1V45C56.3 44.3 55.7 43.8 55 43.8" fill="#ffffff" data-fill-palette-color="quaternary"></path><path d="M50 33.8C46.6 33.8 43.7 36.6 43.7 40.1V55.1C43.7 55.8 44.3 56.4 45 56.4S46.3 55.8 46.3 55.1V40C46.3 37.9 48 36.2 50.1 36.2S53.9 37.9 53.9 40C53.9 40.7 54.5 41.3 55.2 41.3S56.5 40.7 56.5 40C56.3 36.6 53.4 33.8 50 33.8" fill="#ffffff" data-fill-palette-color="quaternary"></path><path d="M45 58.8C44.3 58.8 43.7 59.4 43.7 60.1V70.1C43.7 73.5 46.5 76.4 50 76.4 50.7 76.4 51.3 75.8 51.3 75.1S50.7 73.8 50 73.8C47.9 73.8 46.2 72.1 46.2 70V60C46.3 59.3 45.7 58.8 45 58.8" fill="#ffffff" data-fill-palette-color="quaternary"></path><path d="M70.7 85.2C71.1 85.2 71.5 85 71.7 84.7 72.6 83.3 73.5 81.8 74.1 80.2 75.5 77 76.2 73.5 76.2 70V40C76.2 25.5 64.4 13.7 49.9 13.7S23.8 25.5 23.8 40C23.8 40.7 24.4 41.3 25.1 41.3S26.4 40.7 26.4 40C26.4 26.9 37.1 16.2 50.2 16.2S73.8 26.9 73.8 40V70C73.8 73.2 73.2 76.3 71.9 79.2 71.3 80.6 70.6 82 69.7 83.2 69.3 83.8 69.5 84.5 70 84.9 70.2 85.1 70.5 85.2 70.7 85.2" fill="#ffffff" data-fill-palette-color="quaternary"></path></svg></g></svg></g><g id="text-0"><path d="M25.579 105.542v0c-0.39 1.203-0.919 2.128-1.588 2.773-0.663 0.648-1.38 1.055-2.153 1.222-0.766 0.169-1.491 0.142-2.174-0.079v0c-0.663-0.215-1.245-0.583-1.745-1.104-0.493-0.519-0.841-1.142-1.044-1.869-0.194-0.731-0.158-1.51 0.11-2.336v0c0.15 0.07 0.293 0.127 0.43 0.171 0.137 0.044 0.205 0.066 0.205 0.066v0c1.203 0.39 2.188 0.579 2.953 0.569 0.765-0.011 1.356-0.147 1.771-0.408 0.409-0.263 0.674-0.583 0.796-0.96v0c0.185-0.572 0.123-1.157-0.187-1.753-0.31-0.596-0.771-0.993-1.382-1.192v0c-0.683-0.221-1.379-0.123-2.09 0.294-0.708 0.41-1.523 0.962-2.444 1.655v0c-0.54 0.379-1.138 0.774-1.797 1.186-0.658 0.412-1.38 0.71-2.165 0.895-0.785 0.184-1.624 0.132-2.515-0.157v0c-0.937-0.303-1.691-0.792-2.263-1.467-0.581-0.67-1-1.449-1.259-2.337-0.258-0.889-0.376-1.811-0.355-2.767 0.022-0.956 0.172-1.863 0.451-2.722v0c0.343-1.06 0.798-1.876 1.364-2.447 0.559-0.573 1.164-0.942 1.813-1.105 0.652-0.17 1.264-0.162 1.836 0.023v0c0.54 0.175 1.009 0.492 1.406 0.951 0.4 0.453 0.658 1.018 0.777 1.696 0.12 0.671 0.044 1.43-0.231 2.276v0c-0.237-0.134-0.456-0.245-0.657-0.332-0.202-0.087-0.381-0.156-0.537-0.206v0c-0.898-0.291-1.604-0.307-2.119-0.05-0.51 0.266-0.84 0.63-0.989 1.092v0c-0.145 0.449-0.12 0.935 0.077 1.459 0.199 0.517 0.666 0.895 1.401 1.133v0c0.631 0.204 1.225 0.213 1.781 0.027 0.556-0.186 1.089-0.488 1.598-0.906 0.518-0.422 1.032-0.877 1.541-1.366v0c0.521-0.5 1.065-0.97 1.633-1.411 0.574-0.44 1.182-0.764 1.824-0.973 0.643-0.209 1.357-0.186 2.145 0.07v0c0.826 0.268 1.557 0.752 2.192 1.454 0.635 0.702 1.131 1.534 1.487 2.497 0.348 0.968 0.539 2.007 0.574 3.119 0.042 1.113-0.115 2.219-0.471 3.319z" fill="#000000" data-fill-palette-color="primary"></path><path d="M33.67 85.59v0c-0.283 0.592-0.728 1.016-1.335 1.271-0.601 0.258-1.346 0.175-2.234-0.249v0c-0.08-0.038-0.163-0.078-0.25-0.119-0.086-0.041-0.168-0.092-0.246-0.152v0c0.779 1.001 1.258 1.935 1.435 2.8 0.181 0.875 0.116 1.636-0.193 2.284v0c-0.283 0.592-0.761 1.053-1.434 1.383-0.664 0.327-1.484 0.458-2.461 0.393-0.968-0.068-2.031-0.38-3.191-0.934v0c-1.191-0.569-2.175-1.244-2.954-2.026-0.781-0.775-1.362-1.591-1.741-2.446-0.388-0.852-0.594-1.682-0.618-2.489-0.024-0.807 0.111-1.516 0.403-2.127v0c0.327-0.685 0.83-1.198 1.509-1.54 0.673-0.345 1.511-0.403 2.516-0.174v0c-0.263-0.194-0.51-0.361-0.739-0.5-0.229-0.14-0.383-0.229-0.463-0.267v0c-0.454-0.24-0.684-0.638-0.691-1.194-0.007-0.556 0.119-1.106 0.379-1.65v0c0.227-0.475 0.538-0.88 0.932-1.213 0.389-0.337 0.842-0.477 1.36-0.419v0l0.174 0.015c0.365 0.425 0.823 0.894 1.374 1.407 0.548 0.519 1.133 1.03 1.757 1.533 0.627 0.512 1.253 0.978 1.878 1.398 0.622 0.426 1.186 0.76 1.692 1.002v0c0.568 0.271 0.984 0.398 1.25 0.381 0.275-0.02 0.452-0.114 0.532-0.28v0c0.139-0.29 0.059-0.654-0.24-1.092v0l0.2-0.155c0.58 0.277 1.017 0.717 1.312 1.32 0.304 0.6 0.461 1.247 0.471 1.942 0.013 0.703-0.115 1.335-0.384 1.897zM28.436 88.192v0c0.209-0.438 0.047-1.114-0.485-2.028-0.533-0.914-1.446-1.922-2.738-3.025v0c-0.139-0.105-0.274-0.211-0.405-0.318-0.127-0.099-0.254-0.19-0.381-0.273v0c-0.759-0.029-1.343 0.044-1.753 0.219-0.407 0.169-0.679 0.399-0.818 0.689v0c-0.203 0.426-0.167 0.928 0.109 1.507 0.276 0.579 0.701 1.15 1.274 1.712 0.57 0.553 1.194 0.991 1.872 1.315v0c0.938 0.448 1.69 0.675 2.256 0.68 0.557 0.008 0.913-0.151 1.069-0.478z" fill="#000000" data-fill-palette-color="primary"></path><path d="M42.353 71.32v0c-0.361 0.548-0.86 0.907-1.497 1.077-0.631 0.174-1.357-0.011-2.179-0.553v0c-0.074-0.049-0.151-0.1-0.231-0.153-0.08-0.053-0.154-0.114-0.223-0.183v0c0.635 1.099 0.981 2.089 1.039 2.97 0.059 0.891-0.109 1.636-0.505 2.235v0c-0.361 0.548-0.898 0.939-1.61 1.174-0.702 0.233-1.533 0.25-2.491 0.052-0.949-0.2-1.96-0.654-3.034-1.362v0c-1.101-0.727-1.984-1.53-2.648-2.411-0.668-0.875-1.131-1.762-1.389-2.662-0.268-0.898-0.358-1.748-0.272-2.55 0.087-0.803 0.317-1.486 0.69-2.051v0c0.418-0.633 0.987-1.073 1.707-1.32 0.714-0.25 1.552-0.192 2.515 0.173v0c-0.234-0.228-0.455-0.427-0.663-0.597-0.208-0.17-0.348-0.279-0.422-0.328v0c-0.417-0.3-0.59-0.725-0.521-1.278 0.069-0.552 0.27-1.079 0.601-1.581v0c0.29-0.439 0.653-0.798 1.09-1.075 0.431-0.281 0.899-0.357 1.404-0.229v0l0.171 0.039c0.304 0.471 0.693 0.998 1.168 1.582 0.471 0.589 0.981 1.176 1.53 1.759 0.551 0.593 1.107 1.14 1.669 1.642 0.558 0.507 1.071 0.916 1.539 1.225v0c0.525 0.346 0.92 0.529 1.186 0.549 0.275 0.018 0.463-0.051 0.566-0.205v0c0.177-0.268 0.148-0.64-0.088-1.115v0l0.218-0.126c0.536 0.354 0.91 0.85 1.119 1.488 0.219 0.636 0.286 1.299 0.201 1.988-0.084 0.698-0.297 1.307-0.64 1.826zM36.812 73.181v0c0.267-0.405 0.2-1.097-0.204-2.075-0.403-0.979-1.169-2.102-2.297-3.372v0c-0.124-0.123-0.243-0.246-0.357-0.37-0.112-0.115-0.226-0.223-0.34-0.323v0c-0.748-0.133-1.337-0.141-1.767-0.023-0.426 0.112-0.728 0.302-0.905 0.57v0c-0.26 0.394-0.292 0.896-0.098 1.509 0.194 0.612 0.537 1.235 1.028 1.869 0.488 0.625 1.047 1.145 1.674 1.56v0c0.867 0.572 1.581 0.9 2.141 0.982 0.55 0.085 0.925-0.024 1.125-0.327z" fill="#000000" data-fill-palette-color="primary"></path><path d="M48.041 64.051v0c-0.467 0.499-1.085 0.754-1.854 0.766-0.778 0.011-1.525-0.317-2.238-0.985v0c-0.359-0.336-0.725-0.772-1.096-1.307-0.371-0.525-0.744-1.071-1.121-1.639-0.367-0.568-0.721-1.101-1.061-1.597-0.336-0.492-0.648-0.873-0.938-1.144v0c-0.235-0.22-0.476-0.342-0.723-0.368-0.248-0.026-0.455 0.051-0.624 0.231v0c-0.22 0.235-0.321 0.618-0.303 1.149v0l-0.194 0.043c-0.234-0.191-0.451-0.483-0.654-0.878-0.202-0.395-0.326-0.848-0.371-1.359-0.056-0.511 0.009-1.055 0.192-1.632 0.179-0.582 0.528-1.149 1.047-1.704v0c0.579-0.619 1.231-0.88 1.955-0.783 0.724 0.097 1.388 0.428 1.992 0.993v0c0.07 0.065 0.142 0.133 0.217 0.204 0.08 0.075 0.148 0.147 0.203 0.218v0c-0.181-0.657-0.308-1.347-0.38-2.07-0.068-0.728-0.028-1.441 0.117-2.137 0.151-0.702 0.472-1.315 0.963-1.839v0c0.631-0.674 1.287-0.94 1.968-0.798 0.677 0.147 1.29 0.477 1.84 0.991v0c0.11 0.103 0.215 0.206 0.315 0.309 0.096 0.108 0.186 0.212 0.272 0.31v0c-0.158-0.682-0.283-1.398-0.376-2.15-0.092-0.742-0.066-1.471 0.079-2.187 0.141-0.721 0.489-1.378 1.045-1.972v0c0.682-0.729 1.364-1.027 2.046-0.895 0.677 0.128 1.305 0.462 1.883 1.004v0c0.509 0.477 1.032 1.083 1.57 1.82 0.537 0.737 1.064 1.464 1.582 2.183 0.522 0.713 1.005 1.278 1.449 1.693v0c0.26 0.243 0.507 0.404 0.742 0.484 0.235 0.079 0.436 0.029 0.604-0.151v0c0.14-0.15 0.226-0.332 0.258-0.545 0.036-0.219 0.02-0.412-0.048-0.579v0l0.214-0.109c0.509 0.477 0.821 1.039 0.934 1.689 0.113 0.649 0.072 1.294-0.125 1.934-0.201 0.645-0.507 1.187-0.918 1.627v0c-0.505 0.539-1.126 0.843-1.864 0.911-0.738 0.078-1.521-0.271-2.349-1.047v0c-0.509-0.477-0.998-1.06-1.466-1.751-0.473-0.686-0.925-1.353-1.358-2.001-0.438-0.653-0.836-1.148-1.196-1.484v0c-0.509-0.477-0.93-0.538-1.261-0.184v0c-0.248 0.265-0.383 0.625-0.407 1.081-0.024 0.456 0.046 0.947 0.209 1.473 0.163 0.527 0.38 1.035 0.653 1.524 0.268 0.485 0.581 0.895 0.94 1.231v0c0.33 0.308 0.727 0.61 1.191 0.904 0.464 0.285 0.876 0.595 1.236 0.931v0c0.714 0.668 1.079 1.384 1.094 2.148 0.011 0.759-0.236 1.408-0.741 1.948v0c-0.463 0.494-1.043 0.784-1.742 0.87-0.699 0.086-1.38-0.182-2.043-0.803v0c-0.305-0.285-0.634-0.673-0.99-1.164-0.355-0.482-0.722-0.999-1.103-1.553-0.376-0.549-0.747-1.069-1.111-1.559-0.365-0.501-0.712-0.905-1.042-1.214v0c-0.26-0.243-0.502-0.399-0.727-0.469-0.22-0.065-0.435 0.014-0.645 0.239v0c-0.294 0.315-0.417 0.766-0.368 1.355 0.044 0.584 0.194 1.188 0.452 1.813 0.248 0.625 0.547 1.167 0.895 1.625v0c0.09 0.103 0.159 0.186 0.204 0.247 0.05 0.056 0.075 0.085 0.076 0.085v0c0.424 0.397 0.858 0.714 1.301 0.951 0.443 0.227 0.849 0.514 1.218 0.859v0c0.679 0.635 1.049 1.366 1.111 2.191 0.071 0.825-0.139 1.499-0.63 2.023z" fill="#000000" data-fill-palette-color="primary"></path><path d="M70.73 49.67v0c-0.748 0.576-1.524 0.811-2.33 0.706-0.805-0.105-1.509-0.547-2.109-1.327v0c-0.309-0.401-0.58-0.899-0.815-1.495-0.235-0.596-0.393-1.289-0.476-2.081v0c-0.765 0.52-1.556 0.736-2.373 0.65-0.818-0.087-1.577-0.585-2.278-1.495v0c-0.417-0.542-0.793-1.176-1.128-1.902-0.339-0.731-0.651-1.423-0.937-2.074-0.282-0.646-0.537-1.118-0.767-1.416v0c-0.175-0.228-0.346-0.355-0.513-0.381-0.162-0.031-0.302 0-0.422 0.091v0c-0.119 0.092-0.214 0.243-0.285 0.453-0.066 0.206-0.061 0.436 0.013 0.689v0l-0.695-0.112c-0.262-0.531-0.382-1.091-0.36-1.678 0.018-0.592 0.165-1.158 0.44-1.698 0.271-0.545 0.639-0.997 1.105-1.355v0c0.525-0.405 1.11-0.587 1.753-0.548 0.649 0.036 1.313 0.495 1.993 1.378v0c0.426 0.553 0.815 1.198 1.167 1.936 0.357 0.744 0.685 1.444 0.985 2.103 0.298 0.668 0.573 1.164 0.823 1.489v0c0.234 0.303 0.467 0.478 0.7 0.522 0.238 0.041 0.439-0.001 0.602-0.126v0c0.211-0.163 0.36-0.463 0.446-0.901 0.096-0.436 0.054-1.017-0.125-1.742-0.175-0.72-0.574-1.564-1.199-2.532v0c-0.189-0.312-0.446-0.692-0.774-1.139-0.326-0.457-0.627-0.881-0.902-1.273-0.28-0.397-0.453-0.639-0.52-0.726v0c-0.413-0.536-0.505-1.065-0.277-1.586 0.229-0.521 0.581-0.965 1.058-1.332v0c0.423-0.325 0.883-0.551 1.382-0.677 0.499-0.125 0.964-0.043 1.394 0.247v0l0.156 0.101c-0.044 0.223 0.151 0.717 0.583 1.48 0.432 0.763 1.023 1.771 1.771 3.024v0c0.489 0.814 1.029 1.745 1.619 2.792 0.59 1.047 1.134 2.134 1.632 3.261 0.502 1.123 0.87 2.234 1.103 3.332 0.238 1.094 0.258 2.101 0.061 3.021-0.193 0.926-0.694 1.699-1.501 2.321zM68.21 47.507v0c0.46-0.355 0.55-1.096 0.267-2.225-0.282-1.129-0.919-2.55-1.911-4.264v0c-0.011 1.959 0.074 3.43 0.253 4.414 0.181 0.974 0.392 1.618 0.634 1.932v0c0.234 0.303 0.486 0.351 0.757 0.143z" fill="#000000" data-fill-palette-color="primary"></path><path d="M72.297 27.529v0c-0.348 0.217-0.703 0.365-1.064 0.445-0.367 0.083-0.688 0.046-0.964-0.112v0l-0.315-0.505c-1.008-1.619-1.714-2.888-2.116-3.805-0.399-0.912-0.624-1.585-0.677-2.019v0c-0.069-0.537 0.029-0.989 0.293-1.354 0.264-0.366 0.596-0.673 0.996-0.923v0c0.511-0.318 1.07-0.533 1.676-0.645 0.613-0.116 1.156-0.019 1.63 0.29v0c-0.125 0.368-0.15 0.871-0.075 1.509 0.079 0.644 0.22 1.329 0.423 2.056 0.197 0.731 0.425 1.439 0.682 2.124 0.258 0.685 0.508 1.275 0.751 1.768v0c-0.13 0.218-0.305 0.428-0.526 0.63-0.221 0.202-0.459 0.382-0.714 0.541z" fill="#000000" data-fill-palette-color="primary"></path><path d="M88.284 32.408v0c-1.053 0.507-1.998 0.784-2.833 0.829-0.836 0.046-1.534-0.073-2.096-0.357-0.555-0.287-0.944-0.661-1.166-1.123v0c-0.311-0.647-0.298-1.359 0.041-2.137 0.339-0.778 1.001-1.404 1.986-1.878v0c0.415 0.862 0.858 1.499 1.33 1.909 0.474 0.417 0.935 0.65 1.384 0.7 0.458 0.053 0.847 0.002 1.167-0.152v0c0.394-0.19 0.666-0.461 0.815-0.814 0.155-0.355 0.151-0.703-0.012-1.041v0c-0.231-0.481-0.679-0.781-1.344-0.901-0.665-0.12-1.494-0.21-2.487-0.271v0c-0.504-0.053-1.062-0.126-1.676-0.218-0.607-0.095-1.182-0.288-1.725-0.581-0.537-0.295-0.957-0.757-1.259-1.385v0c-0.32-0.665-0.413-1.346-0.277-2.041 0.136-0.695 0.435-1.367 0.897-2.014 0.459-0.654 1.013-1.246 1.66-1.778 0.647-0.532 1.319-0.965 2.015-1.301v0c1.306-0.629 2.419-0.838 3.339-0.629 0.917 0.203 1.52 0.604 1.808 1.202v0c0.246 0.511 0.211 1.093-0.104 1.746-0.316 0.653-1 1.233-2.054 1.74v0c-0.4-0.878-0.882-1.423-1.448-1.636-0.569-0.22-1.065-0.227-1.49-0.023v0c-0.302 0.145-0.513 0.361-0.634 0.647-0.114 0.283-0.085 0.603 0.087 0.96v0c0.199 0.413 0.502 0.703 0.909 0.871 0.407 0.168 0.868 0.273 1.381 0.314 0.51 0.035 1.027 0.052 1.549 0.051v0c0.703-0.005 1.385 0.024 2.045 0.086 0.657 0.056 1.24 0.204 1.75 0.443 0.513 0.231 0.905 0.627 1.175 1.187v0c0.371 0.77 0.402 1.631 0.095 2.585-0.308 0.953-0.883 1.878-1.725 2.777-0.842 0.899-1.876 1.643-3.103 2.233z" fill="#000000" data-fill-palette-color="primary"></path><path d="M110.194 24.208v0c-1.143 0.306-2.193 0.336-3.15 0.09-0.956-0.239-1.81-0.694-2.563-1.362-0.753-0.669-1.392-1.485-1.919-2.449-0.52-0.965-0.909-2.007-1.167-3.127v0c-0.46-2.007-0.556-3.819-0.288-5.434 0.268-1.615 0.779-3.022 1.534-4.222 0.756-1.194 1.652-2.17 2.688-2.929 1.036-0.759 2.092-1.282 3.168-1.571v0c0.911-0.244 1.778-0.313 2.598-0.207 0.819 0.099 1.524 0.378 2.114 0.835 0.59 0.458 0.995 1.1 1.217 1.925v0c0.17 0.634 0.149 1.298-0.062 1.991-0.217 0.695-0.653 1.329-1.306 1.901-0.659 0.58-1.579 1.028-2.762 1.345v0c0.041-0.641 0.049-1.192 0.025-1.653-0.024-0.461-0.078-0.846-0.161-1.156v0c-0.172-0.641-0.436-1.033-0.794-1.179-0.353-0.153-0.747-0.172-1.182-0.055v0c-0.528 0.142-0.979 0.468-1.352 0.978-0.366 0.509-0.651 1.137-0.854 1.886-0.203 0.748-0.308 1.544-0.316 2.388-0.007 0.844 0.079 1.67 0.26 2.479v0c0.469 2.04 1.17 3.495 2.103 4.363 0.932 0.862 1.919 1.153 2.963 0.873v0c0.799-0.214 1.6-0.779 2.402-1.694 0.794-0.921 1.489-2.172 2.085-3.755v0l0.399 0.063c0.203 1.708 0.053 3.235-0.451 4.581-0.497 1.343-1.209 2.451-2.136 3.322-0.926 0.878-1.957 1.469-3.093 1.773z" fill="#000000" data-fill-palette-color="primary"></path><path d="M127.105 26.422v0c-0.936 0.117-1.725-0.074-2.366-0.574-0.641-0.499-1.022-1.237-1.145-2.213v0c-0.063-0.502-0.044-1.069 0.057-1.702 0.1-0.633 0.315-1.311 0.645-2.034v0c-0.923 0.06-1.714-0.155-2.375-0.645-0.661-0.49-1.062-1.304-1.204-2.444v0c-0.085-0.678-0.087-1.415-0.007-2.211 0.079-0.802 0.161-1.557 0.245-2.263 0.085-0.7 0.104-1.236 0.058-1.609v0c-0.036-0.285-0.119-0.481-0.249-0.589-0.124-0.109-0.26-0.154-0.41-0.135v0c-0.149 0.019-0.308 0.1-0.476 0.245-0.161 0.144-0.274 0.344-0.338 0.601v0l-0.542-0.449c0.043-0.591 0.224-1.134 0.541-1.629 0.316-0.501 0.73-0.914 1.24-1.24 0.51-0.332 1.056-0.535 1.64-0.607v0c0.658-0.082 1.254 0.057 1.789 0.418 0.541 0.36 0.88 1.093 1.018 2.198v0c0.086 0.692 0.094 1.446 0.024 2.261-0.07 0.822-0.142 1.592-0.218 2.311-0.082 0.727-0.097 1.294-0.047 1.701v0c0.047 0.38 0.16 0.648 0.339 0.805 0.185 0.156 0.379 0.221 0.582 0.196v0c0.265-0.033 0.545-0.216 0.841-0.549 0.304-0.327 0.563-0.849 0.777-1.565 0.215-0.709 0.299-1.639 0.251-2.791v0c-0.004-0.365-0.034-0.823-0.089-1.374-0.049-0.559-0.093-1.077-0.132-1.554-0.04-0.484-0.066-0.781-0.079-0.889v0c-0.084-0.672 0.105-1.174 0.566-1.508 0.461-0.333 0.991-0.537 1.588-0.611v0c0.529-0.066 1.041-0.026 1.534 0.119 0.494 0.145 0.852 0.452 1.076 0.92v0l0.083 0.165c-0.151 0.17-0.234 0.694-0.249 1.571-0.015 0.877-0.017 2.045-0.007 3.505v0c0.008 0.95 0.001 2.026-0.021 3.227-0.022 1.202-0.105 2.414-0.249 3.638-0.137 1.223-0.384 2.366-0.74 3.431-0.35 1.063-0.843 1.941-1.481 2.634-0.636 0.7-1.46 1.112-2.47 1.239zM126.031 23.279v0c0.577-0.072 1.03-0.666 1.359-1.782 0.329-1.116 0.501-2.664 0.516-4.643v0c-1.003 1.682-1.677 2.993-2.021 3.932-0.339 0.931-0.483 1.593-0.434 1.987v0c0.047 0.38 0.241 0.549 0.58 0.506z" fill="#000000" data-fill-palette-color="primary"></path><path d="M143.62 19.974v0c-0.759-0.003-1.449-0.17-2.07-0.501-0.621-0.338-1.128-0.825-1.522-1.463v0c-0.022 0.355-0.157 0.683-0.404 0.983-0.241 0.3-0.703 0.448-1.387 0.445v0c-0.752-0.003-1.308-0.211-1.669-0.623-0.354-0.419-0.529-0.966-0.526-1.643v0c0.002-0.417 0.063-1.019 0.182-1.804 0.113-0.779 0.253-1.66 0.422-2.645 0.161-0.977 0.323-1.995 0.485-3.054 0.169-1.052 0.313-2.081 0.434-3.085 0.114-0.998 0.172-1.893 0.176-2.686v0c0.002-0.526-0.023-0.988-0.076-1.385-0.053-0.397-0.158-0.708-0.314-0.935v0l0.001-0.174c0.44-0.47 0.896-0.82 1.368-1.051 0.473-0.237 0.925-0.355 1.356-0.353v0c0.643 0.003 1.189 0.262 1.637 0.776 0.456 0.508 0.681 1.319 0.677 2.434v0c-0.002 0.547-0.064 1.316-0.185 2.307-0.114 0.991-0.258 1.978-0.433 2.962v0c0.681-0.961 1.406-1.696 2.174-2.206 0.768-0.503 1.508-0.752 2.218-0.749v0c0.964 0.004 1.786 0.466 2.466 1.385 0.673 0.912 1.005 2.295 0.997 4.148v0c-0.005 1.094-0.136 2.174-0.393 3.239-0.264 1.065-0.651 2.025-1.161 2.877-0.517 0.859-1.149 1.544-1.896 2.053-0.747 0.503-1.6 0.752-2.557 0.748zM142.217 17.106v0c0.602 0.003 1.116-0.258 1.542-0.783 0.426-0.525 0.75-1.197 0.972-2.016 0.222-0.82 0.335-1.663 0.34-2.532v0c0.002-0.568-0.043-1.111-0.137-1.631-0.093-0.52-0.235-0.945-0.425-1.274-0.183-0.329-0.425-0.494-0.726-0.495v0c-0.533-0.002-1.138 0.61-1.813 1.838-0.675 1.235-1.206 2.983-1.592 5.244v0c0.337 1.095 0.95 1.645 1.839 1.649z" fill="#000000" data-fill-palette-color="primary"></path><path d="M157.983 21.157v0c-1.362-0.183-2.457-0.609-3.285-1.279-0.82-0.676-1.393-1.494-1.719-2.456-0.332-0.969-0.428-1.979-0.286-3.029v0c0.133-0.989 0.46-1.96 0.98-2.911 0.513-0.945 1.195-1.782 2.045-2.509 0.849-0.721 1.836-1.264 2.961-1.631 1.124-0.36 2.351-0.45 3.679-0.271v0c1.647 0.221 2.8 0.752 3.46 1.592 0.66 0.841 0.92 1.783 0.779 2.826v0c-0.121 0.901-0.473 1.699-1.056 2.394-0.575 0.689-1.287 1.21-2.135 1.565-0.848 0.355-1.74 0.47-2.675 0.345v0c-0.488-0.066-0.973-0.206-1.454-0.423-0.487-0.224-0.951-0.524-1.39-0.901v0c-0.068 1.171 0.155 2.056 0.668 2.656 0.506 0.599 1.162 0.953 1.969 1.062v0c0.562 0.076 1.139 0.043 1.731-0.099 0.591-0.135 1.146-0.343 1.667-0.625 0.521-0.282 0.94-0.602 1.257-0.959v0l0.175 0.158c-0.131 0.976-0.442 1.779-0.934 2.41-0.491 0.624-1.094 1.109-1.81 1.454-0.715 0.339-1.471 0.554-2.27 0.647-0.806 0.092-1.591 0.086-2.357-0.016zM159.65 13.671v0c0.596 0.08 1.104-0.028 1.523-0.323 0.419-0.296 0.755-0.664 1.008-1.106 0.253-0.442 0.402-0.839 0.45-1.192v0c0.058-0.434-0.015-0.813-0.22-1.137-0.206-0.317-0.525-0.505-0.959-0.563v0c-0.332-0.045-0.717 0.024-1.156 0.207-0.433 0.19-0.848 0.559-1.246 1.105-0.398 0.547-0.714 1.339-0.95 2.377v0c0.566 0.359 1.083 0.57 1.55 0.632z" fill="#000000" data-fill-palette-color="primary"></path><path d="M170.591 23.437v0c-0.661-0.175-1.175-0.598-1.542-1.268-0.365-0.677-0.418-1.508-0.157-2.492v0c0.126-0.476 0.322-1.001 0.587-1.574 0.272-0.572 0.563-1.152 0.875-1.742 0.312-0.589 0.597-1.147 0.857-1.672 0.253-0.527 0.428-0.976 0.526-1.346v0c0.102-0.383 0.113-0.706 0.034-0.967-0.071-0.266-0.215-0.428-0.434-0.486v0c-0.35-0.093-0.77 0.051-1.26 0.43v0l-0.139-0.154c0.064-0.294 0.222-0.624 0.474-0.988 0.252-0.365 0.583-0.691 0.991-0.979 0.41-0.294 0.89-0.503 1.439-0.627 0.551-0.13 1.153-0.108 1.808 0.065v0c0.972 0.257 1.602 0.721 1.891 1.392 0.289 0.671 0.33 1.399 0.121 2.186v0c-0.033 0.126-0.072 0.257-0.115 0.394-0.05 0.135-0.098 0.264-0.144 0.386v0c0.968-1.01 1.895-1.733 2.781-2.17 0.888-0.444 1.643-0.583 2.265-0.419v0c0.582 0.154 0.948 0.495 1.098 1.023 0.157 0.53 0.15 1.115-0.02 1.756v0c-0.154 0.582-0.426 1.143-0.817 1.683-0.384 0.542-0.853 0.952-1.408 1.229-0.546 0.273-1.137 0.314-1.773 0.125v0l-0.096-0.079c0.106-0.481 0.05-0.896-0.169-1.243-0.217-0.355-0.508-0.58-0.871-0.677v0c-0.496-0.131-1.024-0.006-1.585 0.376-0.553 0.377-0.952 1.032-1.199 1.964v0c-0.151 0.568-0.25 1.196-0.298 1.884-0.048 0.688-0.132 1.259-0.252 1.715v0c-0.145 0.549-0.404 1.018-0.776 1.407-0.379 0.388-0.804 0.66-1.278 0.818-0.473 0.158-0.944 0.174-1.414 0.05z" fill="#000000" data-fill-palette-color="primary"></path><path d="M191.543 30.804v0c-1.146-0.535-1.998-1.175-2.556-1.919-0.561-0.738-0.877-1.5-0.946-2.287-0.073-0.781 0.043-1.497 0.346-2.147v0c0.295-0.632 0.732-1.164 1.311-1.595 0.576-0.425 1.237-0.694 1.984-0.806 0.75-0.103 1.518 0.03 2.305 0.398v0c-0.088 0.14-0.162 0.275-0.223 0.405-0.061 0.13-0.091 0.195-0.092 0.195v0c-0.535 1.146-0.845 2.099-0.928 2.86-0.084 0.761-0.022 1.363 0.186 1.808 0.21 0.438 0.495 0.741 0.854 0.908v0c0.545 0.255 1.133 0.265 1.763 0.032 0.63-0.234 1.081-0.642 1.353-1.225v0c0.304-0.65 0.293-1.354-0.033-2.11-0.32-0.753-0.767-1.63-1.341-2.63v0c-0.309-0.582-0.628-1.225-0.955-1.929-0.328-0.704-0.534-1.457-0.62-2.259-0.086-0.802 0.07-1.628 0.466-2.477v0c0.417-0.892 0.995-1.58 1.735-2.065 0.736-0.494 1.561-0.814 2.475-0.96 0.914-0.147 1.844-0.15 2.789-0.01 0.946 0.14 1.828 0.401 2.645 0.783v0c1.01 0.472 1.763 1.024 2.261 1.656 0.5 0.626 0.791 1.271 0.872 1.936 0.088 0.668 0.005 1.274-0.249 1.819v0c-0.24 0.514-0.613 0.94-1.118 1.278-0.499 0.341-1.092 0.528-1.779 0.561-0.681 0.036-1.424-0.133-2.23-0.51v0c0.162-0.218 0.299-0.422 0.411-0.612 0.111-0.19 0.202-0.359 0.271-0.507v0c0.399-0.855 0.503-1.554 0.311-2.096-0.201-0.539-0.521-0.911-0.961-1.117v0c-0.427-0.2-0.913-0.234-1.458-0.104-0.538 0.134-0.97 0.55-1.297 1.251v0c-0.281 0.601-0.363 1.189-0.247 1.764 0.116 0.575 0.35 1.141 0.702 1.697 0.355 0.566 0.743 1.132 1.164 1.699v0c0.431 0.579 0.831 1.177 1.2 1.794 0.365 0.623 0.612 1.267 0.739 1.931 0.128 0.663 0.017 1.37-0.333 2.119v0c-0.368 0.787-0.939 1.452-1.714 1.996-0.775 0.544-1.662 0.933-2.662 1.167-1.003 0.226-2.059 0.287-3.165 0.185-1.11-0.096-2.188-0.388-3.236-0.877z" fill="#000000" data-fill-palette-color="primary"></path><path d="M206.812 39.058v0c-1.161-0.736-1.977-1.581-2.448-2.536-0.462-0.957-0.64-1.94-0.534-2.95 0.104-1.019 0.439-1.976 1.006-2.871v0c0.535-0.843 1.237-1.588 2.109-2.234 0.862-0.644 1.83-1.118 2.906-1.424 1.072-0.3 2.196-0.38 3.372-0.242 1.172 0.144 2.324 0.575 3.456 1.292v0c1.403 0.89 2.229 1.854 2.476 2.894 0.248 1.039 0.09 2.004-0.474 2.893v0c-0.487 0.768-1.14 1.345-1.961 1.733-0.811 0.385-1.675 0.561-2.594 0.529-0.919-0.032-1.777-0.301-2.574-0.806v0c-0.416-0.264-0.797-0.594-1.144-0.993-0.349-0.407-0.644-0.874-0.885-1.399v0c-0.551 1.035-0.719 1.932-0.505 2.691 0.209 0.756 0.657 1.352 1.344 1.788v0c0.479 0.304 1.017 0.515 1.614 0.634 0.593 0.125 1.185 0.168 1.776 0.13 0.591-0.038 1.105-0.153 1.542-0.345v0l0.094 0.217c-0.527 0.832-1.146 1.431-1.857 1.798-0.707 0.361-1.457 0.549-2.252 0.564-0.791 0.009-1.568-0.112-2.333-0.362-0.77-0.254-1.482-0.587-2.134-1.001zM211.458 32.956v0c0.508 0.322 1.014 0.437 1.519 0.344 0.504-0.093 0.964-0.288 1.378-0.584 0.414-0.296 0.717-0.594 0.907-0.894v0c0.234-0.37 0.326-0.744 0.276-1.125-0.054-0.374-0.266-0.679-0.636-0.913v0c-0.283-0.179-0.662-0.278-1.136-0.295-0.472-0.008-1.004 0.153-1.594 0.483-0.59 0.33-1.209 0.917-1.857 1.761v0c0.364 0.563 0.745 0.97 1.143 1.223z" fill="#000000" data-fill-palette-color="primary"></path><path d="M218.901 47.832v0c-0.959-0.794-1.588-1.679-1.889-2.655-0.302-0.987-0.326-1.97-0.074-2.951 0.247-0.985 0.709-1.885 1.385-2.701v0c0.637-0.769 1.423-1.414 2.36-1.935 0.932-0.525 1.958-0.869 3.078-1.033 1.116-0.168 2.251-0.098 3.407 0.211 1.156 0.309 2.276 0.912 3.361 1.811v0c1.08 0.894 1.704 1.77 1.872 2.628 0.164 0.864 0.037 1.548-0.382 2.053v0c-0.445 0.537-1.123 0.81-2.035 0.819-0.908 0.003-1.878-0.423-2.91-1.278v0c0.237-0.168 0.467-0.35 0.691-0.546 0.224-0.196 0.419-0.394 0.585-0.594v0c0.253-0.305 0.401-0.618 0.444-0.938 0.043-0.32-0.102-0.617-0.434-0.891v0c-0.305-0.253-0.743-0.384-1.312-0.394-0.573-0.004-1.201 0.164-1.882 0.505-0.687 0.337-1.355 0.897-2.005 1.683v0c-0.637 0.769-1.027 1.498-1.171 2.186-0.139 0.693-0.092 1.313 0.139 1.859 0.231 0.546 0.573 1.007 1.026 1.382v0c0.595 0.493 1.298 0.813 2.108 0.96 0.81 0.147 1.568 0.047 2.273-0.302v0l0.142 0.263c-0.623 0.753-1.327 1.254-2.11 1.503-0.777 0.253-1.579 0.326-2.405 0.219-0.821-0.102-1.602-0.327-2.343-0.675-0.737-0.343-1.376-0.74-1.919-1.189z" fill="#000000" data-fill-palette-color="primary"></path><path d="M228.468 56.555v0c-0.577-0.621-0.808-1.382-0.694-2.282 0.12-0.896 0.608-1.741 1.464-2.538v0c0.471-0.438 1.028-0.853 1.671-1.245 0.638-0.388 1.254-0.75 1.846-1.087v0c0.449-0.24 0.857-0.474 1.223-0.703 0.371-0.224 0.654-0.426 0.85-0.608v0c0.245-0.228 0.374-0.446 0.387-0.653 0.012-0.208-0.044-0.379-0.17-0.514v0c-0.13-0.14-0.303-0.236-0.52-0.288-0.215-0.061-0.453-0.05-0.712 0.032v0l-0.094-0.221c0.566-0.526 1.177-0.838 1.834-0.935 0.661-0.092 1.295-0.023 1.901 0.208 0.606 0.24 1.113 0.58 1.523 1.02v0c0.335 0.361 0.584 0.774 0.746 1.239 0.162 0.466 0.19 0.948 0.085 1.447-0.1 0.495-0.381 0.956-0.841 1.385v0c-0.275 0.256-0.641 0.526-1.096 0.809-0.455 0.283-0.937 0.568-1.446 0.855v0c-0.519 0.305-1.038 0.615-1.558 0.93-0.514 0.31-0.939 0.621-1.275 0.933v0c-0.3 0.279-0.504 0.557-0.611 0.834-0.102 0.282-0.065 0.518 0.112 0.708v0c0.335 0.361 1.045 0.457 2.13 0.288 1.075-0.169 2.304-0.635 3.687-1.397v0c0.272-0.15 0.551-0.321 0.839-0.514 0.283-0.188 0.557-0.405 0.822-0.652v0c0.205-0.191 0.404-0.399 0.596-0.624 0.187-0.23 0.366-0.475 0.534-0.735v0l0.143-0.133c0.58-0.129 1.131-0.104 1.652 0.075 0.521 0.169 0.949 0.434 1.285 0.794v0c0.447 0.481 0.687 1.07 0.719 1.768 0.023 0.698-0.281 1.34-0.912 1.926v0c-0.376 0.349-0.874 0.682-1.495 0.998-0.616 0.321-1.264 0.643-1.944 0.967v0c-0.669 0.305-1.314 0.62-1.935 0.945-0.631 0.325-1.139 0.667-1.525 1.026v0c-0.566 0.526-0.663 0.989-0.291 1.39v0c0.102 0.11 0.258 0.217 0.468 0.322 0.214 0.1 0.479 0.129 0.795 0.087v0l0.102 0.185c-0.496 0.461-1.06 0.733-1.692 0.817-0.632 0.083-1.246 0.015-1.843-0.205-0.587-0.22-1.088-0.552-1.502-0.998v0c-0.526-0.566-0.791-1.267-0.794-2.105 0.001-0.832 0.47-1.683 1.406-2.554v0l0.045-0.042c-1.493 0.333-2.731 0.387-3.714 0.163-0.979-0.219-1.713-0.592-2.202-1.118z" fill="#000000" data-fill-palette-color="primary"></path><path d="M239.503 69.476v0c-0.395-0.558-0.519-1.212-0.37-1.962 0.153-0.754 0.646-1.425 1.477-2.013v0c0.402-0.284 0.888-0.562 1.46-0.832 0.575-0.265 1.171-0.523 1.788-0.775 0.617-0.252 1.194-0.497 1.729-0.735 0.532-0.243 0.954-0.474 1.267-0.695v0c0.324-0.229 0.539-0.469 0.646-0.721 0.116-0.25 0.109-0.467-0.021-0.651v0c-0.209-0.296-0.624-0.455-1.243-0.478v0l-0.008-0.207c0.238-0.185 0.57-0.337 0.997-0.455 0.427-0.118 0.89-0.157 1.388-0.115 0.504 0.037 1.006 0.184 1.507 0.441 0.506 0.253 0.955 0.656 1.345 1.209v0c0.581 0.82 0.767 1.581 0.559 2.281-0.208 0.7-0.644 1.285-1.308 1.755v0c-0.106 0.075-0.22 0.151-0.341 0.229-0.125 0.072-0.245 0.14-0.358 0.203v0c1.39-0.155 2.565-0.115 3.526 0.118 0.966 0.229 1.635 0.606 2.006 1.131v0c0.348 0.491 0.41 0.987 0.187 1.488-0.219 0.507-0.599 0.952-1.141 1.336v0c-0.491 0.348-1.06 0.603-1.706 0.767-0.642 0.17-1.265 0.183-1.868 0.041-0.594-0.141-1.074-0.488-1.441-1.041v0l-0.023-0.122c0.39-0.301 0.612-0.655 0.667-1.063 0.061-0.411-0.018-0.771-0.235-1.077v0c-0.296-0.419-0.782-0.661-1.457-0.728-0.666-0.065-1.392 0.181-2.179 0.738v0c-0.48 0.34-0.959 0.758-1.436 1.255-0.477 0.497-0.909 0.882-1.294 1.155v0c-0.463 0.328-0.962 0.522-1.498 0.582-0.539 0.055-1.041-0.009-1.505-0.191-0.464-0.182-0.837-0.472-1.117-0.868z" fill="#000000" data-fill-palette-color="primary"></path><path d="M261.632 75.704v0c-0.375-0.66-0.48-1.312-0.313-1.958 0.164-0.652 0.549-1.15 1.155-1.495v0c0.654-0.372 1.359-0.447 2.115-0.225 0.756 0.223 1.335 0.687 1.738 1.395v0c0.372 0.654 0.473 1.308 0.304 1.963-0.173 0.649-0.563 1.147-1.169 1.492v0c-0.654 0.372-1.356 0.445-2.106 0.219-0.75-0.226-1.325-0.69-1.724-1.391zM247.394 81.52v0c-0.362-0.636-0.463-1.338-0.302-2.106 0.164-0.762 0.745-1.427 1.743-1.995v0c0.576-0.328 1.158-0.557 1.746-0.687 0.587-0.13 1.177-0.226 1.771-0.288 0.59-0.069 1.155-0.154 1.695-0.257 0.543-0.097 1.034-0.27 1.474-0.521v0c0.398-0.227 0.644-0.457 0.739-0.692 0.098-0.229 0.096-0.432-0.006-0.61v0c-0.159-0.279-0.494-0.446-1.005-0.502v0l0.001-0.225c0.691-0.307 1.371-0.418 2.04-0.335 0.669 0.083 1.281 0.309 1.837 0.677 0.556 0.368 0.979 0.808 1.27 1.319v0c0.355 0.624 0.461 1.28 0.318 1.967-0.138 0.684-0.658 1.283-1.562 1.797v0c-0.541 0.308-1.155 0.555-1.843 0.743-0.688 0.187-1.385 0.344-2.092 0.471-0.703 0.133-1.354 0.268-1.953 0.404-0.596 0.127-1.076 0.294-1.439 0.5v0c-0.315 0.179-0.502 0.369-0.562 0.568-0.06 0.199-0.047 0.373 0.038 0.522v0c0.081 0.143 0.207 0.26 0.377 0.351 0.173 0.083 0.334 0.124 0.485 0.126v0l0.048 0.208c-0.606 0.345-1.226 0.486-1.861 0.422-0.628-0.067-1.206-0.266-1.732-0.595-0.526-0.33-0.935-0.75-1.225-1.262z" fill="#000000" data-fill-palette-color="primary"></path><path d="M252.349 91.332v0c-0.251-0.554-0.363-1.131-0.334-1.729 0.026-0.605 0.239-1.178 0.639-1.72 0.391-0.545 1-1.006 1.828-1.382v0c0.442-0.201 1.044-0.421 1.806-0.661 0.762-0.24 1.606-0.481 2.534-0.722 0.924-0.247 1.851-0.487 2.781-0.721v0c-0.174-0.334-0.358-0.648-0.552-0.943-0.194-0.295-0.396-0.583-0.605-0.863v0l0.152-0.137c0.569 0.162 1.085 0.364 1.547 0.605 0.465 0.247 0.887 0.532 1.266 0.856v0c1.235-0.29 2.302-0.545 3.201-0.765 0.905-0.223 1.435-0.37 1.591-0.44v0c0.293-0.133 0.635-0.014 1.028 0.355 0.399 0.367 0.727 0.834 0.985 1.401v0c0.226 0.498 0.341 1.009 0.346 1.532 0.014 0.527-0.168 0.97-0.546 1.329v0c-0.148-0.061-0.594-0.035-1.339 0.078-0.754 0.109-1.651 0.276-2.69 0.499v0c0.137 0.336 0.274 0.679 0.411 1.03 0.137 0.351 0.271 0.714 0.404 1.09v0c-0.089 0.085-0.19 0.161-0.302 0.227-0.11 0.072-0.236 0.141-0.38 0.206v0c-0.255 0.116-0.549 0.204-0.882 0.265-0.342 0.057-0.654 0.09-0.936 0.098v0c-0.158-0.431-0.296-0.834-0.413-1.209-0.12-0.381-0.25-0.75-0.39-1.107v0c-0.803 0.199-1.597 0.409-2.383 0.63-0.792 0.224-1.502 0.445-2.131 0.663-0.626 0.209-1.113 0.392-1.463 0.551v0c-0.716 0.325-1.135 0.676-1.256 1.054-0.121 0.378-0.097 0.754 0.072 1.127v0c0.158 0.349 0.368 0.629 0.63 0.841 0.261 0.212 0.515 0.333 0.762 0.364v0l0.044 0.295c-0.758 0.216-1.5 0.219-2.227 0.008-0.724-0.205-1.37-0.554-1.939-1.046-0.56-0.489-0.98-1.042-1.259-1.659z" fill="#000000" data-fill-palette-color="primary"></path><path d="M251.658 105.038v0c-0.296-0.896-0.261-1.707 0.104-2.433 0.365-0.725 1.015-1.243 1.95-1.551v0c0.48-0.159 1.041-0.25 1.681-0.274 0.64-0.024 1.347 0.056 2.12 0.24v0c-0.237-0.894-0.18-1.712 0.173-2.455 0.352-0.743 1.074-1.294 2.165-1.655v0c0.649-0.214 1.372-0.359 2.167-0.434 0.802-0.078 1.558-0.144 2.268-0.198 0.703-0.052 1.233-0.137 1.59-0.255v0c0.273-0.09 0.449-0.21 0.53-0.359 0.083-0.142 0.1-0.285 0.053-0.428v0c-0.047-0.143-0.158-0.283-0.333-0.419-0.173-0.13-0.391-0.202-0.655-0.216v0l0.336-0.618c0.588-0.072 1.156 0 1.702 0.215 0.553 0.213 1.038 0.539 1.457 0.977 0.425 0.436 0.729 0.933 0.914 1.492v0c0.208 0.63 0.187 1.242-0.064 1.835-0.248 0.6-0.901 1.075-1.96 1.425v0c-0.662 0.219-1.4 0.372-2.213 0.461-0.82 0.091-1.59 0.168-2.31 0.233-0.729 0.061-1.288 0.155-1.678 0.284v0c-0.364 0.12-0.605 0.283-0.724 0.488-0.117 0.212-0.144 0.415-0.08 0.609v0c0.084 0.253 0.318 0.493 0.702 0.719 0.38 0.235 0.942 0.388 1.685 0.459 0.737 0.073 1.666-0.024 2.787-0.294v0c0.357-0.075 0.801-0.192 1.331-0.353 0.539-0.156 1.039-0.3 1.499-0.43 0.467-0.133 0.753-0.216 0.857-0.251v0c0.643-0.212 1.172-0.124 1.589 0.264 0.416 0.388 0.719 0.868 0.907 1.439v0c0.167 0.506 0.227 1.016 0.181 1.529-0.047 0.512-0.278 0.924-0.695 1.233v0l-0.146 0.113c-0.196-0.115-0.726-0.095-1.589 0.061-0.863 0.155-2.01 0.379-3.44 0.671v0c-0.93 0.192-1.987 0.393-3.171 0.604-1.183 0.211-2.389 0.364-3.617 0.46-1.226 0.102-2.396 0.082-3.509-0.062-1.111-0.137-2.068-0.451-2.871-0.942-0.809-0.489-1.374-1.217-1.693-2.185zM254.533 103.375v0c0.182 0.552 0.853 0.881 2.011 0.989 1.159 0.107 2.71-0.024 4.655-0.392v0c-1.845-0.658-3.261-1.066-4.248-1.222-0.979-0.152-1.657-0.166-2.034-0.042v0c-0.364 0.12-0.492 0.342-0.384 0.667z" fill="#000000" data-fill-palette-color="primary"></path><path d="M10.108 142.271c0-1.306 1.059-2.365 2.365-2.365 1.306 0 2.365 1.059 2.364 2.365 0 1.306-1.059 2.365-2.364 2.365-1.306 0-2.365-1.059-2.365-2.365z" fill="#000000" data-fill-palette-color="primary"></path><path d="M268.31 142.271c0-1.306 1.059-2.365 2.365-2.365 1.306 0 2.365 1.059 2.364 2.365 0 1.306-1.059 2.365-2.364 2.365-1.306 0-2.365-1.059-2.365-2.365z" fill="#000000" data-fill-palette-color="primary"></path></g><g id="text-1"><path d="M12.955 179.131v0c-0.115-0.379-0.077-0.759 0.115-1.139 0.19-0.386 0.622-0.682 1.296-0.887v0c0.445-0.135 0.955-0.219 1.532-0.25 0.581-0.041 1.19-0.058 1.828-0.052 0.631 0.008 1.246 0.022 1.845 0.04 0.594 0.027 1.132 0.035 1.615 0.024 0.474-0.015 0.839-0.062 1.094-0.139v0c0.301-0.091 0.417-0.252 0.347-0.48v0c-0.083-0.275-0.319-0.486-0.707-0.633-0.39-0.153-0.91-0.292-1.562-0.415v0l0-0.107c0.87-0.264 1.7-0.262 2.488 0.005 0.787 0.261 1.477 0.734 2.071 1.419 0.594 0.684 1.038 1.511 1.331 2.479v0c0.298 0.981 0.37 1.831 0.217 2.549-0.147 0.716-0.445 1.3-0.894 1.751-0.447 0.457-0.975 0.778-1.583 0.963v0c-0.517 0.157-1.064 0.216-1.64 0.177-0.568-0.035-1.116-0.169-1.644-0.402-0.528-0.233-0.993-0.552-1.395-0.959-0.402-0.407-0.693-0.904-0.872-1.493v0c-0.183-0.602-0.22-1.277-0.111-2.024v0c-0.58 0.019-1.165 0.057-1.755 0.115-0.596 0.06-1.186 0.178-1.768 0.354v0c-0.288 0.087-0.571 0.191-0.849 0.312v0c-0.239-0.128-0.448-0.3-0.628-0.517-0.174-0.219-0.297-0.449-0.371-0.691zM19.756 179.96v0c0.133 0.438 0.375 0.787 0.725 1.045 0.348 0.252 0.739 0.411 1.174 0.479 0.435 0.068 0.846 0.043 1.232-0.074v0c0.451-0.137 0.809-0.406 1.073-0.808 0.266-0.395 0.297-0.926 0.095-1.594v0c-0.026-0.085-0.06-0.185-0.103-0.301-0.049-0.114-0.101-0.227-0.156-0.338v0c-0.256 0.17-0.512 0.313-0.771 0.426-0.26 0.108-0.518 0.2-0.773 0.278v0c-0.438 0.133-0.874 0.23-1.305 0.289-0.425 0.058-0.852 0.101-1.279 0.131v0c0.015 0.167 0.044 0.322 0.088 0.467z" fill="#000000" data-fill-palette-color="primary"></path><path d="M16.89 191.026v0c-0.154-0.388-0.131-0.794 0.069-1.218 0.199-0.425 0.588-0.752 1.167-0.981v0c0.28-0.111 0.607-0.204 0.982-0.279 0.381-0.078 0.774-0.145 1.177-0.202 0.401-0.063 0.78-0.129 1.136-0.196 0.349-0.065 0.632-0.14 0.848-0.226v0c0.229-0.091 0.395-0.201 0.498-0.33 0.101-0.136 0.126-0.267 0.076-0.394v0c-0.081-0.203-0.304-0.358-0.669-0.463v0l0.029-0.122c0.167-0.081 0.385-0.123 0.655-0.127 0.268-0.011 0.546 0.033 0.836 0.132 0.293 0.09 0.572 0.248 0.838 0.473 0.26 0.228 0.466 0.536 0.62 0.924v0c0.224 0.566 0.225 1.04 0.001 1.423-0.227 0.392-0.57 0.678-1.027 0.859v0c-0.076 0.03-0.157 0.059-0.242 0.085-0.079 0.024-0.158 0.048-0.236 0.072v0c0.85 0.104 1.544 0.296 2.081 0.576 0.537 0.28 0.878 0.601 1.022 0.963v0c0.136 0.343 0.102 0.647-0.102 0.912-0.201 0.271-0.49 0.481-0.865 0.629v0c-0.343 0.136-0.721 0.205-1.132 0.206-0.409 0.008-0.779-0.074-1.111-0.243-0.332-0.17-0.569-0.444-0.712-0.821v0l0.012-0.082c0.275-0.124 0.457-0.303 0.548-0.537 0.091-0.235 0.095-0.457 0.012-0.667v0c-0.116-0.292-0.367-0.509-0.754-0.65-0.391-0.132-0.859-0.09-1.406 0.127v0c-0.331 0.131-0.676 0.308-1.036 0.532-0.358 0.23-0.67 0.398-0.937 0.503v0c-0.318 0.126-0.642 0.17-0.973 0.133-0.327-0.047-0.614-0.157-0.86-0.333-0.252-0.172-0.434-0.398-0.545-0.678z" fill="#000000" data-fill-palette-color="primary"></path><path d="M21.369 201.409v0c-0.377-0.775-0.533-1.493-0.468-2.157 0.062-0.654 0.291-1.229 0.688-1.726 0.391-0.494 0.878-0.884 1.462-1.168v0c0.547-0.266 1.147-0.433 1.799-0.499 0.646-0.063 1.288-0.011 1.925 0.158 0.646 0.172 1.244 0.47 1.793 0.896 0.543 0.428 0.991 1.004 1.344 1.73v0c0.377 0.775 0.531 1.49 0.463 2.147-0.074 0.66-0.31 1.238-0.707 1.735-0.4 0.491-0.895 0.88-1.485 1.168v0c-0.541 0.263-1.133 0.43-1.776 0.499-0.637 0.067-1.277 0.017-1.92-0.149-0.637-0.169-1.227-0.467-1.77-0.895-0.546-0.434-0.995-1.014-1.348-1.739zM22.903 201.187v0c0.135 0.277 0.393 0.44 0.775 0.49 0.379 0.044 0.815 0.003 1.308-0.124 0.503-0.123 0.988-0.298 1.455-0.526v0c0.412-0.2 0.783-0.43 1.113-0.689 0.33-0.259 0.574-0.523 0.733-0.791 0.159-0.267 0.177-0.527 0.055-0.779v0c-0.132-0.271-0.388-0.431-0.77-0.481-0.388-0.047-0.826-0.009-1.314 0.115-0.494 0.126-0.977 0.304-1.45 0.535v0c-0.418 0.203-0.794 0.432-1.127 0.685-0.33 0.259-0.571 0.521-0.724 0.785-0.159 0.267-0.177 0.527-0.054 0.78z" fill="#000000" data-fill-palette-color="primary"></path><path d="M26.026 210.144v0c-0.185-0.319-0.286-0.664-0.303-1.034-0.023-0.366 0.068-0.727 0.273-1.083 0.214-0.353 0.561-0.669 1.039-0.947v0c0.26-0.151 0.611-0.323 1.053-0.515 0.451-0.19 0.952-0.39 1.502-0.599 0.548-0.199 1.097-0.399 1.645-0.598v0c-0.123-0.198-0.252-0.38-0.388-0.546-0.136-0.166-0.278-0.329-0.425-0.489v0l0.091-0.088c0.353 0.064 0.679 0.155 0.977 0.275 0.293 0.123 0.564 0.27 0.814 0.441v0c0.732-0.251 1.366-0.472 1.902-0.665 0.54-0.187 0.854-0.306 0.943-0.357v0c0.172-0.099 0.386-0.05 0.644 0.149 0.267 0.201 0.496 0.467 0.688 0.798v0c0.168 0.29 0.27 0.594 0.305 0.914 0.041 0.316-0.043 0.594-0.252 0.834v0c-0.093-0.025-0.365 0.018-0.814 0.128-0.446 0.117-0.98 0.272-1.603 0.467v0c0.098 0.196 0.202 0.396 0.313 0.601 0.105 0.208 0.208 0.421 0.311 0.638v0c-0.045 0.058-0.102 0.11-0.17 0.158-0.064 0.053-0.138 0.104-0.22 0.151v0c-0.148 0.086-0.321 0.155-0.52 0.207-0.201 0.062-0.387 0.102-0.558 0.122v0c-0.123-0.253-0.233-0.49-0.329-0.71-0.1-0.227-0.2-0.441-0.302-0.643v0c-0.48 0.168-0.951 0.342-1.415 0.524-0.47 0.185-0.889 0.361-1.258 0.528-0.37 0.167-0.652 0.307-0.848 0.421v0c-0.42 0.244-0.655 0.486-0.703 0.728-0.047 0.233-0.007 0.458 0.12 0.677v0c0.117 0.201 0.26 0.359 0.429 0.474 0.17 0.115 0.329 0.173 0.479 0.173v0l0.043 0.177c-0.442 0.178-0.893 0.225-1.351 0.143-0.453-0.085-0.865-0.257-1.236-0.516-0.375-0.265-0.667-0.578-0.876-0.938z" fill="#000000" data-fill-palette-color="primary"></path><path d="M30.64 217.563v0c-0.468-0.699-0.714-1.373-0.738-2.024-0.024-0.65 0.121-1.245 0.434-1.785 0.304-0.541 0.726-0.992 1.265-1.354v0c0.506-0.339 1.081-0.58 1.725-0.723 0.646-0.153 1.307-0.18 1.983-0.081 0.675 0.099 1.324 0.331 1.947 0.695 0.617 0.368 1.154 0.893 1.611 1.575v0c0.567 0.846 0.792 1.588 0.676 2.226-0.122 0.641-0.45 1.141-0.984 1.499v0c-0.46 0.308-0.968 0.471-1.523 0.489-0.55 0.014-1.076-0.102-1.58-0.349-0.509-0.244-0.923-0.604-1.243-1.081v0c-0.167-0.25-0.297-0.529-0.388-0.838-0.101-0.311-0.153-0.646-0.156-1.007v0c-0.562 0.451-0.878 0.913-0.947 1.388-0.069 0.474 0.035 0.919 0.313 1.333v0c0.19 0.284 0.436 0.535 0.738 0.752 0.308 0.214 0.631 0.384 0.971 0.51 0.34 0.126 0.656 0.186 0.948 0.18v0l-0.008 0.154c-0.5 0.335-0.992 0.516-1.475 0.543-0.489 0.031-0.957-0.046-1.403-0.233-0.444-0.196-0.851-0.459-1.219-0.788-0.369-0.329-0.684-0.69-0.947-1.081zM34.748 215.292v0c0.205 0.307 0.461 0.498 0.767 0.573 0.305 0.075 0.608 0.078 0.907 0.009 0.303-0.063 0.546-0.156 0.728-0.277v0c0.222-0.148 0.364-0.335 0.428-0.559 0.07-0.228 0.032-0.45-0.113-0.665v0c-0.118-0.176-0.308-0.325-0.569-0.445-0.262-0.121-0.599-0.163-1.011-0.126-0.417 0.041-0.908 0.217-1.472 0.529v0c0.063 0.402 0.175 0.722 0.335 0.961z" fill="#000000" data-fill-palette-color="primary"></path><path d="M36.553 225.699v0c-0.47-0.596-0.73-1.209-0.782-1.839-0.057-0.625 0.054-1.213 0.333-1.764 0.275-0.556 0.668-1.036 1.179-1.438v0c0.478-0.377 1.028-0.662 1.65-0.855 0.631-0.193 1.29-0.268 1.976-0.226 0.691 0.048 1.362 0.237 2.014 0.568 0.647 0.335 1.237 0.841 1.77 1.517v0c0.529 0.671 0.791 1.275 0.786 1.81-0.01 0.539-0.174 0.934-0.491 1.183v0c-0.338 0.267-0.78 0.341-1.326 0.222-0.542-0.113-1.066-0.492-1.574-1.136v0c0.164-0.068 0.324-0.147 0.48-0.235 0.157-0.089 0.299-0.184 0.428-0.285v0c0.188-0.148 0.317-0.315 0.389-0.502 0.065-0.182 0.016-0.378-0.15-0.587v0c-0.148-0.188-0.393-0.322-0.734-0.401-0.341-0.079-0.735-0.06-1.182 0.056-0.457 0.116-0.93 0.367-1.419 0.752v0c-0.478 0.377-0.806 0.761-0.984 1.154-0.174 0.398-0.226 0.774-0.155 1.128 0.07 0.354 0.217 0.673 0.441 0.958v0c0.292 0.371 0.67 0.652 1.134 0.843 0.464 0.191 0.929 0.23 1.396 0.115v0l0.045 0.173c-0.467 0.368-0.95 0.579-1.448 0.632-0.497 0.043-0.984-0.017-1.461-0.181-0.481-0.169-0.921-0.406-1.318-0.712-0.398-0.296-0.731-0.613-0.997-0.95z" fill="#000000" data-fill-palette-color="primary"></path><path d="M42.338 232.529v0c-0.247-0.274-0.417-0.591-0.509-0.949-0.098-0.354-0.083-0.726 0.043-1.116 0.137-0.39 0.411-0.77 0.822-1.141v0c0.224-0.201 0.531-0.442 0.924-0.721 0.402-0.279 0.851-0.578 1.347-0.896 0.495-0.308 0.991-0.616 1.486-0.924v0c-0.161-0.168-0.325-0.32-0.492-0.454-0.167-0.135-0.34-0.265-0.517-0.39v0l0.071-0.106c0.359-0.01 0.697 0.012 1.013 0.068 0.312 0.06 0.607 0.148 0.887 0.264v0c0.665-0.396 1.24-0.744 1.725-1.043 0.49-0.294 0.773-0.475 0.849-0.543v0c0.147-0.133 0.367-0.128 0.66 0.012 0.302 0.142 0.582 0.355 0.838 0.64v0c0.224 0.249 0.386 0.526 0.487 0.831 0.105 0.301 0.081 0.59-0.075 0.868v0c-0.097-0.005-0.353 0.093-0.77 0.293-0.413 0.206-0.903 0.468-1.472 0.788v0c0.136 0.172 0.28 0.346 0.43 0.523 0.145 0.182 0.291 0.369 0.436 0.56v0c-0.033 0.066-0.077 0.129-0.134 0.19-0.052 0.065-0.113 0.13-0.184 0.193v0c-0.127 0.114-0.282 0.218-0.467 0.31-0.184 0.102-0.358 0.18-0.52 0.234v0c-0.172-0.222-0.328-0.431-0.469-0.627-0.144-0.201-0.287-0.39-0.427-0.567v0c-0.435 0.263-0.86 0.531-1.277 0.805-0.421 0.278-0.795 0.537-1.123 0.776-0.327 0.239-0.575 0.435-0.742 0.586v0c-0.361 0.325-0.54 0.611-0.539 0.858 0.002 0.237 0.088 0.45 0.257 0.638v0c0.156 0.173 0.328 0.298 0.518 0.375 0.19 0.078 0.358 0.101 0.505 0.07v0l0.078 0.164c-0.396 0.265-0.827 0.405-1.292 0.419-0.46 0.01-0.899-0.074-1.316-0.25-0.421-0.182-0.772-0.428-1.051-0.738z" fill="#000000" data-fill-palette-color="primary"></path><path d="M54.615 231.876v0c-0.329-0.329-0.498-0.696-0.508-1.102-0.009-0.406 0.138-0.761 0.443-1.066v0c0.324-0.324 0.728-0.481 1.212-0.471 0.479 0.005 0.894 0.184 1.247 0.537v0c0.324 0.324 0.488 0.692 0.492 1.103 0.009 0.416-0.138 0.776-0.443 1.08v0c-0.324 0.324-0.725 0.478-1.204 0.464-0.479-0.015-0.892-0.196-1.239-0.545zM47.156 237.616v0c-0.319-0.319-0.49-0.718-0.514-1.197-0.034-0.479 0.199-0.967 0.697-1.464v0c0.285-0.285 0.59-0.512 0.914-0.682 0.329-0.174 0.663-0.328 1.001-0.463 0.343-0.13 0.665-0.268 0.965-0.413 0.305-0.15 0.566-0.333 0.783-0.551v0c0.198-0.198 0.305-0.372 0.32-0.522 0.024-0.15-0.01-0.271-0.102-0.363v0c-0.14-0.14-0.365-0.186-0.674-0.138v0l-0.029-0.13c0.353-0.295 0.735-0.469 1.146-0.522 0.406-0.058 0.803-0.024 1.19 0.102 0.387 0.126 0.706 0.315 0.957 0.567v0c0.309 0.31 0.481 0.68 0.514 1.109 0.029 0.425-0.182 0.863-0.632 1.313v0c-0.271 0.271-0.593 0.515-0.965 0.732-0.377 0.222-0.764 0.43-1.16 0.623-0.397 0.193-0.759 0.377-1.089 0.55-0.329 0.174-0.583 0.35-0.761 0.529v0c-0.155 0.155-0.237 0.295-0.247 0.421 0 0.126 0.036 0.225 0.109 0.297v0c0.072 0.073 0.167 0.123 0.282 0.153 0.111 0.024 0.213 0.024 0.305 0v0l0.065 0.109c-0.305 0.304-0.648 0.488-1.03 0.55-0.382 0.063-0.757 0.041-1.124-0.066-0.363-0.111-0.669-0.293-0.921-0.544z" fill="#000000" data-fill-palette-color="primary"></path><path d="M52.277 242.377v0c-0.32-0.278-0.499-0.661-0.538-1.148-0.043-0.482 0.137-0.955 0.542-1.418v0c0.198-0.227 0.451-0.455 0.759-0.685 0.313-0.235 0.634-0.468 0.962-0.7 0.338-0.232 0.647-0.452 0.928-0.66 0.291-0.209 0.508-0.396 0.652-0.561v0c0.153-0.175 0.238-0.341 0.256-0.498 0.018-0.166-0.03-0.298-0.144-0.397v0c-0.144-0.126-0.381-0.177-0.708-0.155v0l-0.03-0.121c0.111-0.148 0.285-0.286 0.523-0.414 0.233-0.132 0.498-0.224 0.796-0.274 0.302-0.055 0.62-0.045 0.954 0.029 0.325 0.074 0.645 0.248 0.959 0.522v0c0.464 0.404 0.693 0.834 0.686 1.29-0.012 0.461-0.184 0.883-0.516 1.264v0c-0.121 0.139-0.251 0.262-0.389 0.369v0c0.414-0.111 0.874-0.187 1.38-0.226 0.511-0.035 1.01-0.005 1.497 0.092 0.482 0.102 0.898 0.306 1.249 0.611v0c0.407 0.355 0.574 0.726 0.499 1.114-0.085 0.389-0.297 0.779-0.638 1.171v0c-0.319 0.366-0.699 0.725-1.14 1.075-0.441 0.35-0.868 0.685-1.282 1.005-0.414 0.319-0.733 0.608-0.958 0.866v0c-0.305 0.351-0.36 0.611-0.164 0.782v0c0.108 0.094 0.23 0.142 0.366 0.142 0.131 0.005 0.237-0.012 0.317-0.051v0l0.059 0.12c-0.278 0.32-0.615 0.525-1.012 0.615-0.386 0.09-0.775 0.083-1.164-0.021-0.385-0.099-0.717-0.27-0.995-0.513v0c-0.34-0.296-0.539-0.673-0.595-1.129-0.057-0.466 0.146-0.965 0.609-1.496v0c0.274-0.315 0.611-0.619 1.012-0.913 0.397-0.289 0.782-0.57 1.156-0.844 0.374-0.273 0.655-0.518 0.843-0.734v0c0.112-0.129 0.179-0.252 0.2-0.371 0.016-0.113-0.037-0.223-0.161-0.33v0c-0.196-0.171-0.494-0.271-0.893-0.302-0.399-0.021-0.816 0.047-1.251 0.203-0.435 0.156-0.812 0.417-1.131 0.784v0c-0.202 0.232-0.369 0.481-0.501 0.747-0.136 0.271-0.312 0.531-0.527 0.778v0c-0.413 0.475-0.846 0.727-1.3 0.759-0.459 0.027-0.848-0.099-1.167-0.377z" fill="#000000" data-fill-palette-color="primary"></path><path d="M61.014 253.819v0c-0.458-0.335-0.737-0.747-0.838-1.236-0.104-0.483 0.025-0.973 0.389-1.469v0c0.387-0.53 1.028-1.018 1.923-1.465v0c-0.073-0.028-0.146-0.06-0.221-0.098-0.074-0.037-0.145-0.08-0.211-0.129v0c-0.541-0.396-0.822-0.961-0.843-1.696-0.023-0.745 0.271-1.534 0.88-2.368v0c0.553-0.756 1.188-1.317 1.904-1.683 0.712-0.36 1.417-0.535 2.113-0.526 0.696 0.009 1.29 0.194 1.781 0.553v0c0.342 0.25 0.591 0.564 0.748 0.941 0.156 0.377 0.184 0.82 0.081 1.33v0c0.074-0.09 0.137-0.171 0.19-0.242 0.057-0.077 0.107-0.146 0.152-0.207v0c0.117-0.16 0.335-0.204 0.655-0.131 0.315 0.078 0.622 0.226 0.92 0.444v0c0.27 0.198 0.485 0.431 0.644 0.7 0.155 0.274 0.183 0.561 0.082 0.861v0l-0.035 0.101c-0.135 0.011-0.385 0.202-0.748 0.571-0.359 0.364-0.845 0.877-1.457 1.539v0c-0.39 0.418-0.841 0.889-1.351 1.414-0.512 0.515-1.056 1.015-1.631 1.501-0.575 0.486-1.161 0.892-1.755 1.219-0.599 0.333-1.186 0.522-1.762 0.567-0.571 0.04-1.108-0.124-1.61-0.491zM64.183 248.512v0c0.27 0.198 0.733 0.197 1.386-0.002 0.654-0.199 1.382-0.645 2.185-1.337v0c0.097-0.48 0.113-0.862 0.05-1.146-0.058-0.28-0.175-0.484-0.352-0.613v0c-0.232-0.17-0.535-0.213-0.908-0.13-0.374 0.082-0.755 0.257-1.145 0.522-0.389 0.266-0.723 0.589-1.001 0.97v0c-0.287 0.392-0.442 0.744-0.468 1.056-0.03 0.308 0.054 0.535 0.253 0.68zM61.559 251.752v0c0.315 0.23 0.863 0.157 1.647-0.219 0.783-0.376 1.65-1.081 2.6-2.113v0c-1.409 0.444-2.439 0.821-3.09 1.133-0.65 0.321-1.053 0.589-1.211 0.804v0c-0.113 0.155-0.095 0.286 0.054 0.395z" fill="#000000" data-fill-palette-color="primary"></path><path d="M76.274 259.595v0c-0.394-0.219-0.767-0.485-1.117-0.798-0.353-0.322-0.644-0.671-0.872-1.049-0.231-0.387-0.36-0.795-0.386-1.225-0.03-0.439 0.079-0.88 0.324-1.321v0c0.027-0.048 0.053-0.096 0.08-0.144 0.023-0.042 0.061-0.095 0.113-0.16v0c0.183-0.258 0.436-0.559 0.761-0.903 0.334-0.346 0.699-0.707 1.094-1.081 0.39-0.378 0.777-0.749 1.161-1.114 0.384-0.366 0.723-0.709 1.019-1.03 0.292-0.315 0.5-0.582 0.623-0.803v0c0.136-0.245 0.139-0.404 0.007-0.477v0c-0.131-0.073-0.395-0.056-0.792 0.052-0.406 0.111-0.943 0.359-1.612 0.746v0l-0.075-0.077c0.456-0.818 1.03-1.414 1.723-1.788 0.687-0.377 1.456-0.528 2.307-0.453 0.854 0.068 1.744 0.36 2.67 0.876v0c0.866 0.482 1.542 1.026 2.026 1.632 0.481 0.612 0.796 1.249 0.943 1.911 0.154 0.665 0.169 1.334 0.045 2.008-0.128 0.68-0.365 1.331-0.711 1.952v0c-0.422 0.759-0.979 1.443-1.671 2.052-0.685 0.612-1.455 1.096-2.309 1.449-0.845 0.351-1.729 0.52-2.653 0.507-0.92-0.019-1.82-0.273-2.698-0.762zM77.646 257.741v0c0.4 0.223 0.831 0.306 1.293 0.25 0.458-0.05 0.917-0.206 1.375-0.467 0.464-0.258 0.895-0.589 1.293-0.994 0.397-0.405 0.731-0.849 1-1.333v0c0.319-0.574 0.52-1.166 0.602-1.778 0.086-0.618-0.003-1.203-0.266-1.756-0.257-0.55-0.735-1.02-1.435-1.409v0c-0.053 0.221-0.122 0.437-0.207 0.647-0.089 0.216-0.194 0.432-0.314 0.648v0c-0.256 0.46-0.561 0.909-0.913 1.346-0.359 0.434-0.716 0.85-1.07 1.247-0.36 0.394-0.692 0.765-0.995 1.113-0.309 0.344-0.547 0.666-0.713 0.964v0c-0.173 0.311-0.245 0.595-0.217 0.854 0.032 0.252 0.221 0.475 0.567 0.668z" fill="#000000" data-fill-palette-color="primary"></path><path d="M89.901 266.265v0c-0.369-0.163-0.639-0.424-0.81-0.782-0.168-0.365-0.13-0.823 0.113-1.374v0c0.022-0.05 0.046-0.103 0.07-0.16 0.022-0.05 0.052-0.1 0.089-0.151v0c-0.6 0.497-1.164 0.81-1.69 0.936-0.533 0.124-0.999 0.097-1.4-0.079v0c-0.369-0.163-0.658-0.447-0.868-0.853-0.212-0.4-0.307-0.897-0.284-1.493 0.023-0.595 0.193-1.252 0.511-1.972v0c0.325-0.738 0.718-1.35 1.178-1.834 0.457-0.494 0.942-0.866 1.457-1.118 0.514-0.251 1.017-0.392 1.509-0.422 0.498-0.027 0.934 0.042 1.309 0.208v0c0.425 0.188 0.751 0.484 0.976 0.889 0.225 0.405 0.276 0.917 0.152 1.536v0c0.111-0.168 0.208-0.319 0.29-0.455 0.079-0.145 0.129-0.242 0.152-0.292v0c0.139-0.282 0.377-0.432 0.713-0.448 0.342-0.014 0.682 0.054 1.02 0.203v0c0.294 0.13 0.549 0.313 0.766 0.551 0.213 0.228 0.306 0.501 0.278 0.818v0l-0.013 0.106c-0.252 0.233-0.529 0.522-0.831 0.867-0.302 0.345-0.602 0.713-0.901 1.104-0.299 0.391-0.573 0.782-0.82 1.174-0.245 0.385-0.437 0.738-0.578 1.057v0c-0.154 0.35-0.226 0.606-0.216 0.768 0.017 0.164 0.079 0.27 0.186 0.317v0c0.181 0.08 0.401 0.023 0.657-0.17v0l0.103 0.124c-0.157 0.357-0.418 0.634-0.782 0.832-0.361 0.192-0.755 0.298-1.183 0.319-0.425 0.014-0.809-0.054-1.153-0.206zM88.205 263.119v0c0.275 0.121 0.686 0.011 1.233-0.33 0.549-0.348 1.148-0.925 1.794-1.731v0c0.063-0.092 0.123-0.177 0.181-0.257 0.064-0.077 0.118-0.157 0.163-0.242v0c0.002-0.462-0.052-0.815-0.162-1.058-0.113-0.252-0.257-0.416-0.432-0.493v0c-0.263-0.116-0.572-0.084-0.928 0.096-0.349 0.182-0.688 0.451-1.017 0.807-0.331 0.362-0.59 0.753-0.774 1.171v0c-0.257 0.582-0.379 1.047-0.369 1.396 0.007 0.339 0.111 0.553 0.311 0.641z" fill="#000000" data-fill-palette-color="primary"></path><path d="M96.715 268.919v0c-0.348-0.124-0.647-0.322-0.899-0.593-0.254-0.265-0.418-0.599-0.492-1.003-0.065-0.408-0.004-0.873 0.182-1.394v0c0.101-0.283 0.258-0.641 0.471-1.074 0.221-0.437 0.474-0.912 0.76-1.427 0.29-0.506 0.579-1.013 0.869-1.52v0c-0.221-0.072-0.437-0.127-0.649-0.166-0.211-0.039-0.425-0.072-0.64-0.098v0l0.012-0.126c0.311-0.179 0.619-0.32 0.924-0.422 0.303-0.095 0.605-0.158 0.906-0.188v0c0.397-0.664 0.738-1.243 1.023-1.737 0.292-0.491 0.455-0.785 0.489-0.882v0c0.067-0.187 0.262-0.288 0.587-0.302 0.333-0.019 0.68 0.036 1.041 0.165v0c0.316 0.113 0.59 0.28 0.823 0.5 0.236 0.215 0.351 0.481 0.346 0.799v0c-0.087 0.041-0.267 0.25-0.538 0.625-0.265 0.377-0.572 0.841-0.922 1.391v0c0.201 0.086 0.411 0.172 0.627 0.257 0.214 0.091 0.431 0.186 0.65 0.286v0c0.003 0.074-0.006 0.15-0.028 0.23-0.015 0.082-0.038 0.168-0.07 0.258v0c-0.057 0.161-0.145 0.326-0.264 0.494-0.114 0.177-0.23 0.328-0.347 0.453v0c-0.257-0.114-0.494-0.223-0.71-0.329-0.223-0.108-0.438-0.207-0.645-0.296v0c-0.258 0.438-0.505 0.876-0.742 1.314-0.239 0.445-0.445 0.85-0.619 1.217-0.174 0.366-0.299 0.655-0.375 0.868v0c-0.163 0.457-0.185 0.794-0.067 1.01 0.115 0.208 0.291 0.354 0.529 0.44v0c0.219 0.078 0.43 0.106 0.634 0.084 0.204-0.022 0.363-0.081 0.478-0.178v0l0.147 0.107c-0.223 0.421-0.536 0.749-0.939 0.983-0.401 0.227-0.826 0.362-1.277 0.404-0.457 0.04-0.882-0.01-1.275-0.15z" fill="#000000" data-fill-palette-color="primary"></path><path d="M107.543 272.257v0c-0.388-0.11-0.692-0.33-0.91-0.662-0.217-0.338-0.244-0.797-0.08-1.377v0c0.015-0.053 0.031-0.109 0.047-0.167 0.015-0.053 0.037-0.107 0.067-0.163v0c-0.525 0.576-1.04 0.964-1.543 1.163-0.51 0.197-0.976 0.236-1.397 0.116v0c-0.388-0.11-0.714-0.351-0.979-0.724-0.266-0.366-0.429-0.846-0.488-1.438-0.06-0.592 0.017-1.267 0.23-2.024v0c0.219-0.776 0.523-1.437 0.912-1.98 0.383-0.552 0.812-0.989 1.287-1.31 0.474-0.321 0.953-0.53 1.435-0.628 0.489-0.096 0.931-0.089 1.326 0.023v0c0.447 0.126 0.811 0.375 1.089 0.745 0.279 0.37 0.401 0.87 0.365 1.499v0c0.087-0.182 0.161-0.345 0.224-0.491 0.058-0.154 0.094-0.258 0.109-0.31v0c0.099-0.299 0.313-0.48 0.644-0.543 0.337-0.061 0.683-0.041 1.038 0.059v0c0.309 0.087 0.588 0.234 0.836 0.439 0.243 0.197 0.373 0.454 0.389 0.771v0l0.002 0.107c-0.217 0.265-0.451 0.59-0.702 0.974-0.251 0.384-0.497 0.79-0.739 1.219-0.242 0.429-0.458 0.855-0.648 1.277-0.189 0.416-0.33 0.791-0.425 1.127v0c-0.104 0.368-0.14 0.632-0.107 0.79 0.04 0.16 0.116 0.257 0.228 0.289v0c0.191 0.054 0.4-0.033 0.628-0.26v0l0.118 0.108c-0.106 0.375-0.325 0.686-0.658 0.933-0.331 0.24-0.707 0.401-1.127 0.481-0.419 0.074-0.809 0.059-1.171-0.043zM105.426 269.378v0c0.29 0.082 0.681-0.085 1.175-0.5 0.496-0.421 1.008-1.076 1.536-1.964v0c0.05-0.1 0.097-0.193 0.143-0.279 0.052-0.085 0.095-0.172 0.127-0.262v0c-0.062-0.458-0.165-0.8-0.307-1.025-0.147-0.233-0.313-0.376-0.497-0.428v0c-0.276-0.078-0.578-0.004-0.905 0.223-0.321 0.229-0.619 0.543-0.895 0.941-0.278 0.405-0.479 0.827-0.604 1.269v0c-0.173 0.612-0.23 1.09-0.17 1.433 0.054 0.335 0.187 0.532 0.397 0.592z" fill="#000000" data-fill-palette-color="primary"></path><path d="M111.219 275.824v0c-0.067-0.112-0.113-0.258-0.137-0.438v0c0.443-0.178 0.756-0.398 0.937-0.661 0.188-0.261 0.316-0.548 0.383-0.862v0c0.073-0.341 0.108-0.687 0.105-1.037-0.004-0.343 0.024-0.655 0.084-0.936v0c0.108-0.508 0.347-0.877 0.718-1.106 0.377-0.227 0.823-0.286 1.338-0.177v0c0.555 0.118 0.934 0.359 1.135 0.724 0.194 0.37 0.242 0.785 0.144 1.247v0c-0.101 0.475-0.354 0.956-0.758 1.443-0.406 0.494-0.938 0.908-1.596 1.244-0.66 0.342-1.444 0.528-2.353 0.559z" fill="#000000" data-fill-palette-color="primary"></path><path d="M125.316 275.689v0c-0.767-0.089-1.386-0.305-1.855-0.649-0.47-0.337-0.802-0.743-0.994-1.22-0.185-0.483-0.247-0.989-0.186-1.518v0c0.054-0.469 0.2-0.92 0.436-1.354 0.237-0.441 0.557-0.83 0.962-1.169 0.403-0.332 0.876-0.576 1.417-0.734v0c-0.434-0.353-0.745-0.754-0.935-1.203-0.183-0.441-0.248-0.893-0.194-1.354v0c0.069-0.591 0.329-1.146 0.782-1.665 0.453-0.519 1.074-0.918 1.863-1.198 0.79-0.28 1.704-0.36 2.743-0.24v0c0.727 0.084 1.294 0.24 1.702 0.466 0.407 0.233 0.692 0.5 0.857 0.802 0.158 0.301 0.218 0.61 0.181 0.929v0c-0.043 0.367-0.197 0.721-0.464 1.062-0.273 0.333-0.636 0.587-1.09 0.761-0.461 0.181-1.001 0.235-1.619 0.163v0c0.246-0.515 0.389-0.95 0.43-1.302v0c0.042-0.36-0.003-0.627-0.135-0.801-0.131-0.18-0.304-0.283-0.521-0.308v0c-0.224-0.026-0.475 0.031-0.753 0.171-0.279 0.147-0.524 0.363-0.736 0.648-0.206 0.293-0.333 0.646-0.381 1.06v0c-0.025 0.217-0.019 0.462 0.018 0.735 0.036 0.28 0.114 0.56 0.232 0.843v0c0.27-0.134 0.518-0.226 0.745-0.275 0.219-0.05 0.414-0.066 0.583-0.046v0c0.353 0.041 0.597 0.193 0.732 0.457 0.134 0.27 0.183 0.558 0.148 0.863v0c-0.043 0.367-0.195 0.704-0.458 1.011-0.263 0.307-0.611 0.435-1.046 0.384v0c-0.401-0.046-0.851-0.291-1.35-0.734v0c-0.677 0.376-1.051 0.869-1.122 1.48v0c-0.054 0.469 0.051 0.839 0.315 1.111 0.264 0.278 0.623 0.444 1.078 0.496v0c0.584 0.068 1.263-0.06 2.038-0.383 0.767-0.324 1.477-0.861 2.128-1.612v0l0.133 0.098c-0.114 0.806-0.359 1.49-0.734 2.053-0.376 0.569-0.831 1.026-1.367 1.369-0.529 0.345-1.103 0.581-1.723 0.709-0.621 0.134-1.241 0.166-1.86 0.094z" fill="#000000" data-fill-palette-color="primary"></path><path d="M134.856 276.427v0c-0.417-0.007-0.787-0.184-1.11-0.531-0.323-0.347-0.479-0.822-0.469-1.423v0c0.005-0.294 0.051-0.635 0.14-1.024 0.088-0.382 0.184-0.773 0.286-1.175 0.102-0.402 0.198-0.783 0.286-1.144 0.088-0.354 0.134-0.651 0.137-0.89v0c0.003-0.198-0.042-0.36-0.135-0.484-0.087-0.125-0.205-0.188-0.356-0.191v0c-0.198-0.003-0.416 0.109-0.652 0.338v0l-0.101-0.073c-0.004-0.185 0.041-0.403 0.134-0.654 0.1-0.251 0.254-0.492 0.463-0.721 0.209-0.236 0.482-0.433 0.82-0.592 0.338-0.152 0.739-0.224 1.204-0.216v0c0.52 0.009 0.906 0.196 1.16 0.563 0.254 0.367 0.377 0.803 0.368 1.309v0c-0.001 0.062-0.002 0.123-0.003 0.184-0.001 0.062-0.009 0.123-0.024 0.184v0c0.225-0.359 0.487-0.703 0.787-1.033 0.299-0.323 0.639-0.595 1.018-0.814 0.38-0.219 0.788-0.326 1.226-0.318v0c0.561 0.009 0.947 0.197 1.16 0.562 0.213 0.366 0.315 0.781 0.308 1.247v0c-0.001 0.089-0.003 0.178-0.004 0.266-0.008 0.082-0.02 0.164-0.035 0.246v0c0.252-0.351 0.528-0.703 0.828-1.053 0.3-0.344 0.64-0.632 1.019-0.866 0.387-0.226 0.826-0.335 1.318-0.327v0c0.615 0.01 1.033 0.195 1.253 0.554 0.22 0.359 0.326 0.782 0.318 1.267v0c-0.007 0.431-0.07 0.919-0.189 1.464-0.112 0.545-0.223 1.084-0.334 1.615-0.111 0.525-0.17 0.972-0.176 1.341v0c-0.004 0.219 0.024 0.397 0.084 0.535 0.059 0.145 0.164 0.218 0.314 0.22v0c0.13 0.002 0.25-0.034 0.361-0.107 0.111-0.073 0.191-0.161 0.24-0.262v0l0.133 0.053c-0.007 0.424-0.133 0.794-0.378 1.112-0.251 0.317-0.563 0.565-0.935 0.744-0.372 0.172-0.743 0.254-1.112 0.248v0c-0.444-0.007-0.835-0.164-1.172-0.471-0.337-0.306-0.5-0.805-0.488-1.495v0c0.007-0.431 0.069-0.891 0.187-1.382 0.118-0.497 0.235-0.977 0.352-1.44 0.117-0.463 0.178-0.845 0.183-1.146v0c0.007-0.431-0.14-0.649-0.441-0.654v0c-0.219-0.004-0.436 0.085-0.651 0.267-0.215 0.174-0.41 0.407-0.586 0.698-0.169 0.291-0.307 0.597-0.415 0.916-0.108 0.32-0.164 0.63-0.169 0.931v0c-0.005 0.28 0.021 0.585 0.077 0.914 0.056 0.329 0.082 0.644 0.077 0.945v0c-0.01 0.595-0.185 1.053-0.525 1.376-0.34 0.316-0.733 0.47-1.177 0.463v0c-0.417-0.007-0.787-0.153-1.111-0.439-0.324-0.279-0.481-0.695-0.472-1.249v0c0.004-0.253 0.043-0.56 0.118-0.921 0.074-0.368 0.159-0.75 0.255-1.145 0.089-0.395 0.17-0.777 0.244-1.145 0.074-0.368 0.114-0.689 0.119-0.962v0c0.004-0.219-0.024-0.394-0.084-0.524-0.059-0.131-0.181-0.198-0.366-0.201v0c-0.267-0.004-0.522 0.125-0.765 0.387-0.251 0.263-0.464 0.58-0.642 0.954-0.177 0.373-0.299 0.73-0.366 1.071v0c-0.015 0.082-0.023 0.147-0.024 0.194-0.008 0.048-0.011 0.072-0.011 0.072v0c-0.006 0.355 0.03 0.681 0.107 0.976 0.07 0.295 0.103 0.597 0.098 0.905v0c-0.009 0.567-0.185 1.036-0.526 1.406-0.348 0.37-0.741 0.552-1.178 0.545z" fill="#000000" data-fill-palette-color="primary"></path><path d="M150.844 279.714v0c-0.286 0.025-0.565-0.026-0.837-0.154-0.271-0.121-0.507-0.34-0.706-0.659-0.192-0.32-0.313-0.762-0.362-1.328v0c-0.047-0.538-0.026-1.13 0.062-1.776 0.088-0.646 0.197-1.294 0.326-1.943 0.128-0.656 0.239-1.277 0.332-1.861 0.093-0.591 0.12-1.112 0.081-1.562v0c-0.028-0.327-0.092-0.548-0.191-0.663-0.106-0.114-0.22-0.166-0.343-0.155v0c-0.116 0.01-0.229 0.054-0.339 0.132-0.11 0.078-0.202 0.168-0.275 0.271v0l-0.128-0.061c-0.035-0.402 0.052-0.783 0.261-1.145 0.209-0.354 0.489-0.653 0.838-0.896 0.343-0.236 0.713-0.371 1.108-0.405v0c0.381-0.033 0.693 0.036 0.934 0.207 0.248 0.164 0.446 0.39 0.594 0.68 0.142 0.29 0.241 0.607 0.299 0.952v0c0.376-0.726 0.809-1.278 1.297-1.657 0.489-0.379 0.961-0.588 1.418-0.627v0c0.62-0.054 1.173 0.193 1.66 0.741 0.48 0.549 0.773 1.436 0.88 2.662v0c0.1 1.151 0 2.131-0.301 2.94-0.3 0.808-0.713 1.428-1.239 1.857-0.525 0.437-1.073 0.68-1.646 0.73v0c-0.497 0.043-0.966-0.064-1.407-0.321-0.448-0.256-0.812-0.657-1.093-1.202v0c-0.061 0.479-0.109 0.953-0.144 1.423-0.035 0.463-0.034 0.912 0.004 1.348v0c0.021 0.245 0.059 0.479 0.112 0.701 0.047 0.229 0.115 0.457 0.203 0.682v0l0.009 0.102c-0.125 0.299-0.318 0.532-0.578 0.699-0.253 0.166-0.53 0.262-0.829 0.288zM153.574 274.392v0c0.279-0.024 0.512-0.154 0.697-0.39 0.185-0.236 0.338-0.534 0.457-0.894 0.119-0.367 0.199-0.755 0.239-1.164 0.04-0.408 0.044-0.803 0.011-1.185v0c-0.041-0.477-0.138-0.88-0.291-1.21-0.159-0.329-0.371-0.483-0.636-0.459v0c-0.334 0.029-0.676 0.398-1.026 1.108-0.358 0.704-0.593 1.75-0.706 3.139v0c0.133 0.345 0.314 0.614 0.543 0.807 0.222 0.187 0.459 0.269 0.712 0.248z" fill="#000000" data-fill-palette-color="primary"></path><path d="M164.312 274.732v0c-0.849 0.147-1.583 0.098-2.201-0.148-0.611-0.241-1.1-0.621-1.468-1.14-0.367-0.512-0.605-1.089-0.717-1.729v0c-0.104-0.6-0.098-1.222 0.02-1.867 0.118-0.638 0.347-1.24 0.686-1.805 0.345-0.573 0.797-1.065 1.357-1.474 0.562-0.403 1.24-0.673 2.035-0.812v0c0.849-0.147 1.579-0.097 2.191 0.151 0.613 0.254 1.104 0.641 1.472 1.16 0.361 0.52 0.598 1.104 0.709 1.75v0c0.103 0.593 0.099 1.208-0.012 1.845-0.113 0.63-0.338 1.231-0.676 1.804-0.339 0.565-0.789 1.05-1.351 1.452-0.568 0.404-1.25 0.675-2.045 0.813zM164.524 273.197v0c0.303-0.053 0.532-0.255 0.686-0.609 0.147-0.352 0.229-0.782 0.244-1.291 0.021-0.517-0.013-1.032-0.101-1.544v0c-0.078-0.451-0.196-0.872-0.355-1.261-0.158-0.389-0.343-0.697-0.556-0.923-0.213-0.227-0.457-0.316-0.733-0.268v0c-0.296 0.051-0.522 0.254-0.676 0.606-0.153 0.36-0.237 0.791-0.254 1.293-0.016 0.509 0.022 1.023 0.112 1.542v0c0.08 0.458 0.195 0.882 0.346 1.273 0.158 0.389 0.342 0.694 0.554 0.913 0.213 0.227 0.457 0.316 0.733 0.269z" fill="#000000" data-fill-palette-color="primary"></path><path d="M174.082 272.568v0c-0.573 0.161-1.088 0.121-1.547-0.12-0.456-0.234-0.784-0.707-0.983-1.417v0c-0.1-0.355-0.162-0.743-0.188-1.162-0.032-0.417-0.049-0.831-0.051-1.243-0.002-0.411-0.008-0.786-0.017-1.124-0.008-0.332-0.038-0.59-0.09-0.774v0c-0.054-0.191-0.132-0.318-0.234-0.381-0.101-0.057-0.204-0.07-0.31-0.041v0c-0.112 0.031-0.214 0.099-0.305 0.203-0.092 0.104-0.157 0.236-0.198 0.396v0l-0.142-0.013c-0.108-0.46-0.092-0.883 0.048-1.271 0.146-0.389 0.371-0.715 0.673-0.977 0.303-0.263 0.632-0.444 0.988-0.544v0c0.29-0.081 0.583-0.1 0.879-0.055 0.301 0.036 0.564 0.151 0.789 0.343 0.233 0.197 0.394 0.479 0.482 0.845v0c0.064 0.252 0.106 0.567 0.127 0.944 0.019 0.371 0.033 0.775 0.042 1.214 0.009 0.438 0.027 0.855 0.053 1.252 0.026 0.397 0.08 0.741 0.162 1.031v0c0.068 0.244 0.159 0.428 0.272 0.552 0.113 0.124 0.258 0.162 0.436 0.112v0c0.191-0.054 0.413-0.223 0.668-0.507 0.252-0.291 0.483-0.668 0.694-1.133v0c-0.246-0.598-0.437-1.138-0.572-1.618v0c-0.342-1.218-0.409-2.151-0.2-2.799 0.209-0.648 0.586-1.049 1.133-1.202v0c0.395-0.111 0.703-0.052 0.923 0.178 0.219 0.223 0.391 0.558 0.517 1.005v0c0.183 0.652 0.247 1.298 0.192 1.938-0.061 0.642-0.195 1.177-0.402 1.604v0c0.167 0.493 0.381 0.852 0.644 1.077 0.255 0.227 0.511 0.304 0.768 0.231v0c0.257-0.072 0.479-0.291 0.668-0.656 0.195-0.367 0.307-0.878 0.336-1.533 0.029-0.654-0.069-1.447-0.294-2.378v0c-0.196-0.748-0.398-1.277-0.606-1.587v0l-0.022-0.079c0.086-0.301 0.271-0.591 0.555-0.87 0.291-0.28 0.607-0.469 0.949-0.565v0c0.244-0.068 0.487-0.062 0.73 0.019 0.249 0.079 0.486 0.29 0.71 0.632 0.229 0.334 0.425 0.857 0.59 1.571v0c0.241 0.984 0.32 1.885 0.237 2.703-0.083 0.819-0.278 1.541-0.585 2.167-0.314 0.628-0.695 1.143-1.143 1.545-0.448 0.403-0.929 0.676-1.442 0.821v0c-0.579 0.163-1.15 0.153-1.713-0.031-0.569-0.181-1.057-0.527-1.463-1.038v0c-0.354 0.661-0.747 1.236-1.177 1.727-0.429 0.497-0.956 0.833-1.581 1.008z" fill="#000000" data-fill-palette-color="primary"></path><path d="M190.265 267.505v0c-0.783 0.306-1.495 0.4-2.135 0.283-0.64-0.117-1.19-0.387-1.648-0.81-0.462-0.414-0.812-0.924-1.048-1.529v0c-0.221-0.567-0.332-1.18-0.333-1.841-0.01-0.664 0.107-1.315 0.35-1.953 0.243-0.638 0.61-1.221 1.1-1.75 0.493-0.523 1.122-0.933 1.887-1.232v0c0.949-0.37 1.722-0.43 2.319-0.178 0.6 0.258 1.016 0.686 1.25 1.285v0c0.201 0.516 0.251 1.047 0.148 1.593-0.105 0.54-0.333 1.029-0.683 1.467-0.348 0.444-0.789 0.77-1.324 0.979v0c-0.28 0.109-0.581 0.175-0.903 0.198-0.325 0.032-0.664 0.01-1.016-0.066v0c0.318 0.646 0.701 1.055 1.149 1.225 0.448 0.17 0.905 0.164 1.37-0.017v0c0.318-0.124 0.617-0.31 0.894-0.558 0.275-0.254 0.511-0.533 0.708-0.838 0.197-0.304 0.324-0.6 0.381-0.886v0l0.148 0.041c0.219 0.561 0.289 1.08 0.212 1.558-0.075 0.484-0.252 0.924-0.531 1.319-0.288 0.391-0.632 0.731-1.034 1.02-0.401 0.289-0.821 0.519-1.261 0.69zM188.938 263.003v0c0.344-0.134 0.586-0.342 0.725-0.624 0.14-0.282 0.208-0.577 0.206-0.884 0.004-0.31-0.034-0.567-0.114-0.771v0c-0.097-0.248-0.248-0.428-0.452-0.539-0.207-0.117-0.432-0.129-0.674-0.034v0c-0.197 0.077-0.384 0.23-0.558 0.46-0.175 0.23-0.288 0.549-0.342 0.959-0.051 0.416 0.016 0.933 0.198 1.552v0c0.406 0.025 0.743-0.015 1.011-0.119z" fill="#000000" data-fill-palette-color="primary"></path><path d="M198.282 264.019v0c-0.376 0.181-0.783 0.187-1.22 0.018-0.438-0.169-0.792-0.533-1.062-1.094v0c-0.13-0.271-0.246-0.591-0.348-0.959-0.104-0.375-0.2-0.761-0.285-1.16-0.092-0.396-0.184-0.769-0.277-1.119-0.09-0.344-0.185-0.621-0.286-0.83v0c-0.107-0.222-0.228-0.38-0.364-0.474-0.142-0.091-0.275-0.107-0.398-0.047v0c-0.197 0.095-0.335 0.328-0.415 0.7v0l-0.123-0.02c-0.092-0.16-0.15-0.375-0.174-0.645-0.03-0.267-0.006-0.547 0.072-0.843 0.069-0.299 0.206-0.589 0.413-0.87 0.209-0.275 0.501-0.503 0.877-0.684v0c0.548-0.264 1.021-0.298 1.419-0.102 0.407 0.199 0.717 0.52 0.93 0.963v0c0.036 0.074 0.07 0.152 0.102 0.236 0.029 0.077 0.059 0.154 0.088 0.231v0c0.043-0.856 0.186-1.561 0.427-2.118 0.241-0.556 0.537-0.919 0.888-1.087v0c0.333-0.16 0.638-0.148 0.917 0.036 0.285 0.182 0.515 0.454 0.689 0.818v0c0.16 0.333 0.255 0.704 0.286 1.114 0.037 0.407-0.018 0.783-0.164 1.126-0.146 0.343-0.402 0.599-0.768 0.769v0l-0.082-0.006c-0.143-0.265-0.334-0.435-0.575-0.509-0.24-0.074-0.462-0.062-0.666 0.036v0c-0.283 0.136-0.482 0.403-0.595 0.798-0.104 0.399-0.028 0.864 0.227 1.394v0c0.154 0.32 0.356 0.652 0.604 0.995 0.255 0.34 0.445 0.64 0.569 0.899v0c0.148 0.308 0.215 0.629 0.201 0.961-0.023 0.33-0.113 0.624-0.27 0.882-0.154 0.264-0.366 0.461-0.637 0.591z" fill="#000000" data-fill-palette-color="primary"></path><path d="M203.273 250.959v0c-0.406 0.226-0.806 0.289-1.2 0.187-0.393-0.102-0.695-0.341-0.904-0.716v0c-0.223-0.4-0.264-0.831-0.123-1.294 0.135-0.459 0.421-0.81 0.858-1.053v0c0.4-0.223 0.799-0.281 1.195-0.174 0.403 0.104 0.709 0.345 0.918 0.721v0c0.223 0.4 0.262 0.828 0.118 1.285-0.145 0.456-0.432 0.805-0.863 1.044zM206.76 259.701v0c-0.394 0.22-0.825 0.276-1.292 0.168-0.47-0.098-0.876-0.455-1.219-1.07v0c-0.196-0.352-0.332-0.707-0.406-1.065-0.078-0.364-0.135-0.727-0.173-1.09-0.032-0.366-0.076-0.713-0.134-1.041-0.061-0.334-0.166-0.635-0.316-0.904v0c-0.137-0.245-0.275-0.395-0.415-0.45-0.138-0.064-0.263-0.065-0.376-0.001v0c-0.173 0.097-0.279 0.3-0.317 0.611v0l-0.134-0.008c-0.187-0.42-0.25-0.835-0.189-1.245 0.055-0.407 0.196-0.779 0.423-1.116 0.227-0.338 0.495-0.593 0.806-0.766v0c0.382-0.213 0.785-0.277 1.208-0.192 0.417 0.088 0.781 0.41 1.09 0.966v0c0.186 0.334 0.333 0.71 0.441 1.128 0.111 0.424 0.205 0.852 0.283 1.286 0.078 0.434 0.155 0.833 0.232 1.197 0.078 0.364 0.178 0.656 0.302 0.877v0c0.107 0.191 0.219 0.308 0.337 0.353 0.121 0.034 0.226 0.027 0.315-0.024v0c0.09-0.05 0.164-0.127 0.224-0.23 0.054-0.1 0.081-0.198 0.084-0.293v0l0.122-0.033c0.21 0.376 0.293 0.757 0.249 1.141-0.044 0.385-0.167 0.739-0.37 1.063-0.206 0.318-0.464 0.564-0.775 0.738z" fill="#000000" data-fill-palette-color="primary"></path><path d="M212.737 256.075v0c-0.355 0.232-0.772 0.299-1.251 0.204-0.475-0.09-0.881-0.393-1.217-0.909v0c-0.164-0.252-0.315-0.558-0.452-0.917-0.14-0.366-0.277-0.738-0.41-1.117-0.131-0.388-0.258-0.746-0.382-1.073-0.122-0.337-0.242-0.597-0.362-0.78v0c-0.127-0.195-0.263-0.322-0.408-0.383-0.155-0.062-0.295-0.052-0.421 0.03v0c-0.16 0.105-0.274 0.318-0.343 0.64v0l-0.125-0.004c-0.112-0.147-0.197-0.353-0.255-0.617-0.064-0.26-0.079-0.54-0.046-0.84 0.03-0.305 0.126-0.608 0.288-0.91 0.16-0.292 0.415-0.552 0.765-0.781v0c0.515-0.336 0.992-0.439 1.428-0.307 0.441 0.137 0.799 0.418 1.075 0.842v0c0.101 0.155 0.184 0.313 0.249 0.474v0c0.006-0.429 0.059-0.892 0.159-1.389 0.106-0.502 0.271-0.973 0.497-1.415 0.23-0.436 0.54-0.781 0.93-1.034v0c0.452-0.295 0.855-0.354 1.207-0.176 0.351 0.187 0.668 0.499 0.953 0.934v0c0.265 0.407 0.506 0.87 0.722 1.39 0.217 0.52 0.422 1.023 0.617 1.508 0.194 0.486 0.385 0.871 0.571 1.158v0c0.254 0.389 0.49 0.513 0.708 0.371v0c0.12-0.078 0.199-0.183 0.236-0.313 0.041-0.125 0.054-0.231 0.038-0.319v0l0.131-0.024c0.232 0.355 0.337 0.735 0.315 1.141-0.019 0.396-0.132 0.768-0.338 1.115-0.201 0.343-0.456 0.616-0.765 0.817v0c-0.378 0.247-0.794 0.334-1.248 0.264-0.464-0.073-0.888-0.404-1.273-0.995v0c-0.228-0.349-0.429-0.757-0.603-1.223-0.17-0.461-0.335-0.908-0.495-1.342-0.161-0.434-0.319-0.771-0.477-1.012v0c-0.093-0.143-0.194-0.241-0.301-0.293-0.104-0.047-0.224-0.025-0.362 0.065v0c-0.218 0.142-0.396 0.401-0.534 0.776-0.129 0.378-0.178 0.798-0.146 1.259 0.031 0.461 0.18 0.895 0.445 1.302v0c0.168 0.258 0.362 0.486 0.582 0.686 0.224 0.205 0.425 0.445 0.604 0.72v0c0.344 0.527 0.469 1.013 0.375 1.457-0.099 0.448-0.327 0.788-0.681 1.02z" fill="#000000" data-fill-palette-color="primary"></path><path d="M226.129 250.796v0c-0.447 0.349-0.92 0.505-1.417 0.468-0.493-0.032-0.929-0.29-1.307-0.775v0c-0.404-0.517-0.699-1.268-0.884-2.25v0c-0.047 0.062-0.098 0.124-0.155 0.186-0.056 0.061-0.117 0.117-0.181 0.167v0c-0.528 0.412-1.149 0.528-1.863 0.348-0.723-0.182-1.402-0.68-2.037-1.494v0c-0.576-0.738-0.942-1.502-1.098-2.291-0.152-0.784-0.128-1.509 0.071-2.176 0.199-0.667 0.539-1.188 1.018-1.562v0c0.334-0.261 0.704-0.415 1.11-0.463 0.405-0.047 0.839 0.048 1.302 0.285v0c-0.066-0.096-0.127-0.179-0.181-0.249-0.059-0.075-0.111-0.143-0.158-0.202v0c-0.122-0.156-0.104-0.378 0.053-0.666 0.161-0.282 0.388-0.537 0.679-0.764v0c0.264-0.206 0.547-0.349 0.849-0.428 0.306-0.074 0.59-0.022 0.85 0.156v0l0.088 0.062c-0.026 0.133 0.089 0.425 0.345 0.875 0.252 0.445 0.613 1.052 1.083 1.822v0c0.295 0.489 0.625 1.051 0.99 1.686 0.355 0.633 0.688 1.293 0.998 1.979 0.31 0.686 0.541 1.36 0.693 2.022 0.156 0.667 0.178 1.284 0.065 1.849-0.118 0.56-0.422 1.032-0.913 1.415zM221.89 246.298v0c0.264-0.206 0.39-0.651 0.377-1.335-0.013-0.684-0.243-1.506-0.689-2.467v0c-0.435-0.224-0.798-0.344-1.088-0.361-0.285-0.021-0.514 0.036-0.687 0.172v0c-0.226 0.177-0.351 0.456-0.373 0.838-0.023 0.382 0.041 0.797 0.19 1.243 0.149 0.447 0.369 0.857 0.659 1.229v0c0.299 0.383 0.595 0.629 0.888 0.738 0.288 0.113 0.529 0.095 0.723-0.057zM224.29 249.707v0c0.307-0.24 0.387-0.788 0.24-1.644-0.148-0.856-0.589-1.882-1.323-3.079v0c0.042 1.476 0.124 2.57 0.246 3.282 0.131 0.713 0.279 1.174 0.442 1.385v0c0.118 0.151 0.249 0.17 0.395 0.056z" fill="#000000" data-fill-palette-color="primary"></path><path d="M234.755 238.802v0c-0.55 0.543-1.096 0.895-1.639 1.055-0.538 0.166-1.041 0.187-1.509 0.063-0.463-0.129-0.849-0.349-1.156-0.66v0c-0.298-0.302-0.511-0.663-0.639-1.085-0.118-0.421-0.132-0.859-0.042-1.312 0.1-0.454 0.337-0.866 0.711-1.236v0c0.062 0.083 0.125 0.156 0.187 0.219 0.062 0.063 0.094 0.095 0.094 0.095v0c0.543 0.55 1.024 0.93 1.443 1.14 0.419 0.211 0.779 0.302 1.079 0.275 0.295-0.032 0.528-0.132 0.698-0.3v0c0.263-0.259 0.393-0.595 0.391-1.005 0.003-0.416-0.133-0.762-0.407-1.04v0c-0.307-0.311-0.713-0.454-1.215-0.428-0.503 0.026-1.101 0.097-1.793 0.213v0c-0.402 0.06-0.84 0.108-1.314 0.144-0.474 0.036-0.948-0.006-1.42-0.125-0.478-0.124-0.919-0.39-1.322-0.799v0c-0.423-0.428-0.698-0.906-0.825-1.434-0.122-0.523-0.126-1.062-0.012-1.617 0.105-0.555 0.299-1.088 0.583-1.599 0.279-0.516 0.615-0.968 1.01-1.357v0c0.482-0.476 0.955-0.789 1.42-0.942 0.465-0.152 0.9-0.183 1.306-0.093 0.401 0.094 0.731 0.273 0.99 0.536v0c0.24 0.243 0.405 0.546 0.495 0.91 0.085 0.358 0.065 0.738-0.058 1.138-0.128 0.396-0.385 0.783-0.769 1.163v0c-0.086-0.136-0.175-0.255-0.266-0.357-0.082-0.102-0.158-0.19-0.23-0.263v0c-0.408-0.414-0.787-0.621-1.135-0.624-0.348-0.002-0.629 0.102-0.843 0.314v0c-0.204 0.202-0.327 0.472-0.368 0.81-0.041 0.338 0.104 0.675 0.436 1.011v0c0.283 0.287 0.604 0.461 0.961 0.521 0.353 0.055 0.727 0.041 1.124-0.044 0.397-0.085 0.804-0.188 1.221-0.311v0c0.426-0.123 0.855-0.224 1.285-0.304 0.431-0.079 0.852-0.086 1.262-0.021 0.406 0.07 0.786 0.285 1.142 0.646v0c0.375 0.38 0.635 0.848 0.782 1.404 0.151 0.562 0.184 1.154 0.097 1.778-0.076 0.623-0.264 1.241-0.563 1.853-0.294 0.617-0.692 1.173-1.192 1.668z" fill="#000000" data-fill-palette-color="primary"></path><path d="M242.696 230.415v0c-0.55 0.636-1.136 1.051-1.757 1.247-0.621 0.195-1.233 0.213-1.836 0.052-0.602-0.15-1.149-0.438-1.64-0.863v0c-0.46-0.398-0.845-0.889-1.154-1.473-0.318-0.583-0.519-1.213-0.601-1.891-0.083-0.677-0.031-1.365 0.156-2.062 0.192-0.693 0.557-1.349 1.094-1.969v0c0.667-0.77 1.323-1.184 1.969-1.24 0.651-0.052 1.219 0.133 1.705 0.553v0c0.419 0.362 0.71 0.809 0.874 1.341 0.159 0.527 0.186 1.065 0.081 1.615-0.101 0.555-0.339 1.05-0.715 1.484v0c-0.197 0.227-0.432 0.426-0.706 0.596-0.273 0.18-0.583 0.318-0.93 0.417v0c0.583 0.423 1.113 0.606 1.588 0.547 0.476-0.059 0.877-0.277 1.204-0.654v0c0.224-0.259 0.401-0.562 0.53-0.911 0.125-0.353 0.203-0.71 0.236-1.071 0.032-0.361 0.007-0.682-0.077-0.962v0l0.151-0.033c0.455 0.394 0.76 0.82 0.913 1.28 0.159 0.464 0.208 0.935 0.146 1.414-0.072 0.48-0.218 0.942-0.438 1.384-0.22 0.442-0.485 0.842-0.793 1.199zM239.421 227.052v0c0.242-0.279 0.358-0.576 0.35-0.89-0.008-0.315-0.085-0.607-0.23-0.878-0.141-0.276-0.294-0.485-0.46-0.629v0c-0.202-0.175-0.419-0.263-0.652-0.265-0.238-0.007-0.442 0.088-0.612 0.284v0c-0.139 0.16-0.232 0.383-0.279 0.667-0.047 0.285 0.001 0.62 0.145 1.008 0.149 0.392 0.449 0.818 0.9 1.28v0c0.371-0.167 0.65-0.36 0.838-0.577z" fill="#000000" data-fill-palette-color="primary"></path><path d="M248.982 222.563v0c-0.451 0.61-0.973 1.024-1.567 1.24-0.588 0.22-1.184 0.268-1.79 0.144-0.609-0.119-1.175-0.371-1.697-0.757v0c-0.489-0.362-0.91-0.817-1.261-1.365-0.353-0.558-0.599-1.174-0.74-1.847-0.136-0.679-0.131-1.376 0.016-2.092 0.152-0.712 0.484-1.415 0.996-2.108v0c0.508-0.687 1.02-1.099 1.538-1.236 0.523-0.132 0.946-0.079 1.271 0.161v0c0.346 0.256 0.535 0.663 0.564 1.221 0.034 0.552-0.193 1.158-0.68 1.818v0c-0.109-0.14-0.227-0.274-0.354-0.401-0.127-0.128-0.256-0.24-0.388-0.338v0c-0.192-0.142-0.388-0.223-0.586-0.242-0.193-0.015-0.369 0.085-0.527 0.299v0c-0.142 0.192-0.207 0.464-0.193 0.814 0.013 0.35 0.136 0.725 0.367 1.125 0.233 0.41 0.599 0.8 1.1 1.17v0c0.489 0.362 0.947 0.576 1.372 0.645 0.43 0.063 0.806 0.013 1.13-0.148 0.323-0.161 0.592-0.387 0.807-0.679v0c0.28-0.379 0.452-0.818 0.514-1.316 0.062-0.498-0.024-0.957-0.259-1.377v0l0.156-0.089c0.478 0.353 0.809 0.763 0.991 1.23 0.173 0.468 0.243 0.953 0.212 1.457-0.036 0.509-0.149 0.995-0.339 1.458-0.18 0.462-0.398 0.866-0.653 1.213z" fill="#000000" data-fill-palette-color="primary"></path><path d="M253.96 215.238v0c-0.275 0.441-0.687 0.696-1.237 0.764-0.548 0.078-1.126-0.073-1.736-0.453v0c-0.331-0.206-0.662-0.469-0.995-0.788-0.336-0.314-0.65-0.618-0.942-0.913v0c-0.216-0.223-0.416-0.424-0.602-0.605-0.192-0.184-0.357-0.319-0.497-0.406v0c-0.174-0.108-0.325-0.15-0.453-0.125-0.122 0.028-0.214 0.092-0.276 0.191v0c-0.058 0.093-0.086 0.209-0.083 0.347 0.002 0.138 0.046 0.275 0.132 0.408v0l-0.119 0.095c-0.4-0.249-0.681-0.561-0.843-0.936-0.161-0.374-0.221-0.758-0.178-1.15 0.043-0.392 0.162-0.745 0.357-1.058v0c0.159-0.255 0.365-0.47 0.617-0.643 0.243-0.171 0.519-0.265 0.828-0.281 0.309-0.017 0.626 0.075 0.951 0.278v0c0.197 0.123 0.416 0.295 0.656 0.517 0.24 0.222 0.487 0.46 0.74 0.714v0c0.258 0.258 0.522 0.514 0.789 0.77 0.268 0.255 0.521 0.457 0.759 0.605v0c0.215 0.134 0.413 0.209 0.596 0.226 0.177 0.013 0.309-0.049 0.395-0.188v0c0.155-0.25 0.098-0.68-0.173-1.293-0.271-0.612-0.74-1.262-1.407-1.951v0c-0.131-0.138-0.278-0.278-0.44-0.419-0.156-0.137-0.327-0.264-0.513-0.38v0c-0.145-0.09-0.3-0.171-0.465-0.241-0.168-0.08-0.342-0.149-0.525-0.206v0l-0.095-0.06c-0.169-0.323-0.246-0.653-0.23-0.989 0.022-0.333 0.112-0.627 0.271-0.882v0c0.213-0.342 0.521-0.578 0.923-0.706 0.411-0.13 0.841-0.056 1.288 0.222v0c0.267 0.166 0.544 0.407 0.83 0.723 0.287 0.316 0.58 0.647 0.879 0.994v0c0.284 0.346 0.572 0.679 0.865 0.998 0.296 0.313 0.581 0.555 0.854 0.725v0c0.4 0.249 0.689 0.232 0.866-0.052v0c0.047-0.075 0.082-0.183 0.104-0.322 0.032-0.141 0.009-0.305-0.069-0.491v0l0.094-0.074c0.348 0.217 0.601 0.503 0.758 0.859 0.148 0.358 0.202 0.73 0.163 1.116-0.033 0.39-0.146 0.739-0.338 1.047v0c-0.253 0.406-0.625 0.674-1.116 0.803-0.489 0.138-1.067 0-1.735-0.416v0l-0.035-0.022c0.441 0.831 0.671 1.554 0.691 2.17 0.029 0.614-0.073 1.106-0.304 1.478z" fill="#000000" data-fill-palette-color="primary"></path><path d="M259.698 205.445v0c-0.191 0.371-0.512 0.621-0.963 0.75-0.451 0.129-0.953 0.051-1.506-0.234v0c-0.267-0.138-0.553-0.323-0.856-0.556-0.309-0.236-0.618-0.488-0.926-0.755-0.312-0.261-0.61-0.503-0.895-0.726-0.279-0.221-0.521-0.384-0.728-0.491v0c-0.219-0.113-0.411-0.166-0.576-0.158-0.168 0.013-0.284 0.081-0.347 0.202v0c-0.1 0.194-0.07 0.464 0.091 0.808v0l-0.11 0.059c-0.17-0.072-0.346-0.209-0.527-0.411-0.184-0.195-0.334-0.434-0.45-0.716-0.125-0.28-0.19-0.594-0.195-0.943 0.001-0.346 0.097-0.704 0.288-1.074v0c0.279-0.541 0.636-0.853 1.071-0.937 0.444-0.086 0.886-0.017 1.323 0.209v0c0.073 0.038 0.147 0.08 0.224 0.127 0.07 0.044 0.14 0.087 0.209 0.131v0c-0.481-0.709-0.792-1.358-0.935-1.947-0.143-0.589-0.125-1.057 0.054-1.403v0c0.169-0.328 0.421-0.502 0.754-0.523 0.337-0.026 0.684 0.053 1.043 0.237v0c0.328 0.169 0.628 0.408 0.9 0.718 0.275 0.303 0.457 0.636 0.547 0.997 0.09 0.362 0.04 0.721-0.151 1.076v0l-0.069 0.045c-0.274-0.126-0.529-0.146-0.766-0.059-0.237 0.086-0.406 0.229-0.509 0.429v0c-0.144 0.28-0.142 0.611 0.006 0.996 0.157 0.381 0.497 0.706 1.02 0.975v0c0.316 0.163 0.677 0.306 1.082 0.431 0.408 0.118 0.74 0.243 0.995 0.375v0c0.304 0.157 0.55 0.372 0.74 0.646 0.18 0.277 0.285 0.566 0.315 0.867 0.036 0.303-0.015 0.588-0.153 0.855z" fill="#000000" data-fill-palette-color="primary"></path><path d="M255.817 192.014v0c-0.188 0.425-0.469 0.716-0.845 0.872-0.375 0.156-0.76 0.147-1.154-0.028v0c-0.419-0.185-0.711-0.505-0.876-0.959-0.168-0.448-0.152-0.9 0.049-1.357v0c0.185-0.419 0.468-0.705 0.85-0.858 0.384-0.159 0.773-0.152 1.168 0.023v0c0.419 0.185 0.708 0.503 0.867 0.955 0.159 0.452 0.14 0.903-0.059 1.353zM263.866 196.892v0c-0.182 0.413-0.492 0.717-0.93 0.913-0.434 0.204-0.973 0.164-1.618-0.121v0c-0.369-0.163-0.691-0.365-0.966-0.605-0.281-0.244-0.546-0.499-0.794-0.766-0.246-0.273-0.49-0.523-0.734-0.75-0.25-0.23-0.515-0.407-0.797-0.532v0c-0.256-0.113-0.457-0.15-0.602-0.109-0.148 0.032-0.249 0.107-0.301 0.226v0c-0.08 0.181-0.042 0.408 0.115 0.679v0l-0.111 0.074c-0.402-0.223-0.703-0.516-0.901-0.88-0.201-0.358-0.312-0.74-0.335-1.146-0.022-0.406 0.038-0.772 0.182-1.097v0c0.177-0.4 0.46-0.694 0.849-0.881 0.386-0.181 0.87-0.143 1.452 0.115v0c0.35 0.155 0.694 0.366 1.031 0.635 0.344 0.271 0.677 0.557 1.001 0.856 0.324 0.3 0.626 0.572 0.906 0.816 0.281 0.244 0.537 0.417 0.769 0.519v0c0.2 0.088 0.361 0.114 0.481 0.078 0.117-0.045 0.197-0.115 0.238-0.209v0c0.041-0.094 0.055-0.2 0.04-0.319-0.018-0.112-0.054-0.207-0.11-0.284v0l0.078-0.1c0.394 0.174 0.689 0.428 0.886 0.761 0.197 0.333 0.312 0.691 0.345 1.072 0.027 0.378-0.031 0.73-0.174 1.055z" fill="#000000" data-fill-palette-color="primary"></path><path d="M266.635 190.072v0c-0.13 0.346-0.333 0.642-0.608 0.888-0.269 0.249-0.606 0.407-1.012 0.474-0.409 0.058-0.873-0.011-1.391-0.205v0c-0.282-0.106-0.637-0.269-1.065-0.489-0.433-0.229-0.904-0.49-1.414-0.784-0.501-0.298-1.003-0.597-1.505-0.895v0c-0.075 0.22-0.135 0.435-0.177 0.645-0.043 0.21-0.079 0.423-0.109 0.639v0l-0.126-0.015c-0.174-0.314-0.309-0.624-0.405-0.931-0.09-0.304-0.148-0.607-0.173-0.909v0c-0.657-0.408-1.23-0.759-1.719-1.052-0.486-0.3-0.777-0.468-0.874-0.504v0c-0.186-0.07-0.283-0.267-0.292-0.592-0.013-0.334 0.048-0.68 0.183-1.038v0c0.118-0.314 0.29-0.585 0.515-0.815 0.219-0.232 0.487-0.343 0.804-0.333v0c0.04 0.088 0.245 0.271 0.615 0.55 0.373 0.272 0.831 0.587 1.376 0.945v0c0.09-0.2 0.179-0.408 0.267-0.623 0.095-0.213 0.194-0.427 0.298-0.644v0c0.074-0.002 0.15 0.009 0.229 0.032 0.082 0.016 0.167 0.041 0.257 0.074v0c0.16 0.06 0.323 0.151 0.489 0.272 0.175 0.117 0.324 0.235 0.447 0.355v0c-0.118 0.255-0.232 0.49-0.341 0.704-0.112 0.221-0.215 0.434-0.307 0.641v0c0.433 0.265 0.867 0.52 1.301 0.764 0.441 0.246 0.843 0.46 1.206 0.64 0.363 0.181 0.65 0.311 0.861 0.39v0c0.454 0.171 0.791 0.199 1.01 0.084 0.21-0.111 0.359-0.285 0.448-0.522v0c0.082-0.218 0.114-0.428 0.096-0.632-0.018-0.204-0.075-0.364-0.17-0.481v0l0.109-0.145c0.417 0.23 0.74 0.549 0.967 0.956 0.22 0.404 0.348 0.832 0.382 1.283 0.032 0.458-0.025 0.882-0.172 1.273z" fill="#000000" data-fill-palette-color="primary"></path><path d="M272.609 182.897v0c-0.169 0.556-0.471 0.95-0.906 1.182-0.442 0.23-0.947 0.259-1.516 0.087v0c-0.301-0.091-0.615-0.244-0.944-0.458-0.322-0.212-0.645-0.5-0.97-0.863v0c-0.198 0.533-0.516 0.922-0.955 1.168-0.432 0.247-0.986 0.269-1.66 0.064v0c-0.399-0.121-0.812-0.304-1.238-0.547-0.426-0.244-0.827-0.476-1.203-0.698-0.369-0.219-0.665-0.363-0.887-0.43v0c-0.164-0.05-0.291-0.053-0.383-0.009-0.092 0.044-0.152 0.111-0.18 0.202v0c-0.026 0.085-0.019 0.191 0.022 0.318 0.04 0.127 0.123 0.241 0.249 0.343v0l-0.388 0.183c-0.32-0.169-0.578-0.404-0.771-0.706-0.203-0.297-0.334-0.63-0.394-0.998-0.053-0.366-0.027-0.723 0.078-1.07v0c0.117-0.386 0.343-0.682 0.677-0.888 0.336-0.212 0.828-0.22 1.476-0.023v0c0.412 0.125 0.836 0.307 1.27 0.546 0.441 0.241 0.853 0.473 1.236 0.697 0.389 0.225 0.704 0.375 0.946 0.448v0c0.216 0.066 0.39 0.068 0.523 0.009 0.132-0.06 0.218-0.152 0.255-0.277v0c0.046-0.15 0.014-0.353-0.094-0.607-0.111-0.248-0.339-0.521-0.684-0.819-0.339-0.296-0.836-0.575-1.493-0.839v0c-0.203-0.083-0.467-0.181-0.789-0.293-0.325-0.106-0.626-0.208-0.904-0.307-0.277-0.099-0.449-0.158-0.514-0.177v0c-0.399-0.121-0.633-0.35-0.703-0.685-0.074-0.344-0.058-0.693 0.049-1.046v0c0.093-0.307 0.244-0.58 0.452-0.817 0.21-0.244 0.47-0.372 0.781-0.385v0l0.117 0.004c0.055 0.124 0.327 0.299 0.816 0.526 0.482 0.225 1.133 0.516 1.954 0.872v0c0.53 0.232 1.13 0.504 1.8 0.814 0.662 0.315 1.317 0.664 1.965 1.047 0.648 0.383 1.224 0.804 1.727 1.264 0.51 0.462 0.881 0.957 1.114 1.485 0.226 0.526 0.249 1.087 0.069 1.683zM270.583 182.721v0c0.105-0.347-0.112-0.749-0.653-1.206-0.54-0.457-1.362-0.939-2.466-1.445v0c0.695 0.983 1.26 1.687 1.696 2.112 0.437 0.419 0.774 0.664 1.009 0.735v0c0.216 0.066 0.354 0 0.414-0.196z" fill="#000000" data-fill-palette-color="primary"></path></g></svg></g></svg></g></svg></g></svg></g><defs></defs></svg><rect width="279.72" height="279.72" fill="none" stroke="none" visibility="hidden"></rect></g></svg></g></svg>